<svg width="150" height="150" viewBox="0 0 150 150" fill="none" xmlns="http://www.w3.org/2000/svg">
<path d="M81.1302 73.0521C81.1302 78.3545 81.1302 83.6317 81.1302 89.0598C82.5373 89.0598 83.8187 89.0598 85.1755 89.0598C85.1755 91.8994 85.1755 94.5883 85.1755 97.4783C83.7935 97.4783 82.4619 97.4783 81.1554 97.4783C81.1302 97.428 81.08 97.4029 81.0549 97.3526C81.0549 94.714 81.0549 92.0753 81.0549 89.3362C79.7232 89.3362 78.4669 89.3362 77.0599 89.3362C77.0599 90.6681 77.0599 91.9497 77.0599 93.3067C75.7031 93.3067 74.5222 93.3067 73.1654 93.3067C73.1654 94.6888 73.1654 95.9705 73.1654 97.3777C71.7584 97.3777 70.477 97.3777 69.1202 97.3777C69.1202 100.067 69.1202 102.605 69.1202 105.269C75.7533 105.269 82.3865 105.269 89.1202 105.269C89.1202 106.701 89.1202 107.957 89.1202 109.39C87.9142 109.39 86.683 109.39 85.3011 109.39C85.3011 116.225 85.3011 122.91 85.3011 129.67C82.4619 129.67 79.7734 129.67 76.9594 129.67C76.9594 127.006 76.9594 124.392 76.9594 121.603C75.6277 121.603 74.3966 121.603 73.09 121.603C73.09 118.813 73.09 116.2 73.09 113.411C75.7031 113.411 78.3162 113.411 80.9795 113.411C80.9795 112.003 80.9795 110.772 80.9795 109.465C76.9845 109.465 73.09 109.465 69.0448 109.465C69.0448 112.154 69.0448 114.768 69.0448 117.582C67.6378 117.582 66.3312 117.582 64.9744 117.582C64.9744 118.964 64.9744 120.145 64.9744 121.427C66.0549 121.427 67.0599 121.452 68.0649 121.427C68.7433 121.402 69.0699 121.603 69.0197 122.332C68.9694 123.362 69.0197 124.417 69.0197 125.649C67.6378 125.649 66.3312 125.649 64.9744 125.649C64.9744 127.031 64.9744 128.237 64.9744 129.594C67.6629 129.594 70.3262 129.594 73.0398 129.594C73.0398 131.027 73.0398 132.308 73.0398 133.69C70.3765 133.69 67.7634 133.69 65.0247 133.69C65.0247 135.022 65.0247 136.254 65.0247 137.636C66.2559 137.636 67.5373 137.636 69.0197 137.636C69.0197 138.767 69.0699 139.747 68.9946 140.727C68.9192 141.631 69.2709 141.908 70.1503 141.832C71.0297 141.757 71.9091 141.807 72.9644 141.807C72.9644 140.425 72.9644 139.118 72.9644 137.686C74.3212 137.686 75.5272 137.686 76.884 137.686C76.884 136.304 76.884 135.022 76.884 133.665C78.3664 133.665 79.6729 133.665 81.08 133.665C81.08 134.997 81.08 136.304 81.08 137.787C79.7986 137.787 78.5172 137.787 77.085 137.787C77.085 139.018 77.0096 140.098 77.1353 141.154C77.1604 141.405 77.8137 141.782 78.1905 141.782C80.5021 141.832 82.7885 141.807 85.2006 141.807C85.2006 143.139 85.2006 144.396 85.2006 145.803C83.9192 145.803 82.6378 145.803 81.2307 145.803C81.2307 147.21 81.2307 148.492 81.2307 149.849C79.7734 149.849 78.4669 149.849 77.0096 149.849C77.0096 147.235 77.0096 144.672 77.0096 141.983C75.678 141.983 74.4971 141.983 73.1654 141.983C73.1654 143.24 73.1654 144.471 73.1654 145.753C71.7332 145.753 70.4518 145.753 68.9946 145.753C68.9946 144.521 68.9946 143.29 68.9946 141.983C66.3061 141.983 63.7684 141.983 61.1302 141.983C61.1302 143.139 61.1302 144.295 61.1302 145.602C62.3111 145.602 63.5423 145.602 64.8739 145.602C64.8739 147.11 64.8739 148.467 64.8739 149.874C60.879 149.874 56.9091 149.874 52.8136 149.874C52.8136 148.517 52.8136 147.185 52.8136 145.728C54.0699 145.728 55.3262 145.728 56.683 145.728C56.683 141.707 56.683 137.812 56.683 133.741C54.0951 133.741 51.482 133.741 48.7684 133.741C48.7684 131.001 48.7684 128.413 48.7684 125.749C47.4116 125.749 46.1805 125.749 44.7986 125.749C44.7986 127.031 44.7986 128.313 44.7986 129.72C43.4167 129.72 42.1855 129.72 40.8036 129.72C40.8036 131.102 40.8036 132.333 40.8036 133.715C39.3966 133.715 38.1151 133.715 36.7835 133.715C36.7835 135.072 36.7835 136.254 36.7835 137.611C38.09 137.611 39.3714 137.611 40.7282 137.611C40.7282 141.757 40.7282 145.753 40.7282 149.849C38.0146 149.849 35.3262 149.849 32.5624 149.849C32.5624 147.185 32.5624 144.572 32.5624 141.807C33.8689 141.807 35.1503 141.807 36.5322 141.807C36.5322 140.425 36.5322 139.194 36.5322 137.837C35.2508 137.837 33.9694 137.837 32.5875 137.837C32.5875 135.047 32.5875 132.409 32.5875 129.594C35.2508 129.594 37.9141 129.594 40.6277 129.594C40.6277 128.237 40.6277 127.056 40.6277 125.699C39.3212 125.699 38.0649 125.699 36.6579 125.699C36.6579 124.267 36.6579 122.985 36.6579 121.578C35.2508 121.578 33.9694 121.578 32.5373 121.578C32.5373 117.507 32.5373 113.536 32.5373 109.49C29.8237 109.49 27.2609 109.49 24.6478 109.49C24.6478 110.772 24.6478 112.003 24.6478 113.335C25.9795 113.335 27.2106 113.335 28.5674 113.335C28.5674 114.742 28.5674 116.074 28.5674 117.482C23.2157 117.482 17.7885 117.482 12.286 117.482C12.286 114.793 12.286 112.179 12.286 109.465C9.62269 109.465 7.03475 109.465 4.37143 109.465C4.37143 112.154 4.37143 114.768 4.37143 117.482C2.93927 117.482 1.63274 117.482 0.225701 117.482C0.225701 112.079 0.225701 106.701 0.225701 101.197C2.83877 101.197 5.42671 101.197 8.1654 101.197C8.1654 99.8405 8.1654 98.6091 8.1654 97.2521C9.62269 97.2521 10.879 97.2521 12.286 97.2521C12.286 95.8197 12.286 94.5632 12.286 93.1308C13.693 93.1308 14.9744 93.1308 16.3564 93.1308C16.3564 91.7487 16.3564 90.4922 16.3564 89.11C17.7131 89.11 18.9192 89.11 20.2508 89.11C20.2508 87.753 20.2508 86.5719 20.2508 85.24C18.9945 85.24 17.7634 85.24 16.4569 85.24C16.4569 82.4255 16.4569 79.7617 16.4569 76.9974C17.7131 76.9974 18.9945 76.9974 20.4016 76.9974C20.4016 78.2791 20.4016 79.5356 20.4016 80.9177C23.1403 80.9177 25.7533 80.9177 28.4669 80.9177C28.4669 79.6863 28.4669 78.455 28.4669 77.0728C27.1604 77.0728 25.9041 77.0728 24.4719 77.0728C24.4719 75.7158 24.4719 74.4845 24.4719 73.1023C23.0398 73.1023 21.7584 73.1023 20.3513 73.1023C20.3513 68.981 20.3513 65.0356 20.3513 61.0149C14.9996 61.0149 9.77344 61.0149 4.44681 61.0149C4.44681 62.196 4.44681 63.4022 4.44681 64.7089C7.03475 64.7089 9.59756 64.7089 12.3363 64.7089C12.3363 66.0911 12.3363 67.3727 12.3363 68.8554C13.4669 68.8554 14.4468 68.9056 15.4267 68.8302C16.3312 68.78 16.6076 69.1318 16.5574 69.9862C16.5071 70.9663 16.5322 71.9715 16.5322 73.0772C15.5272 73.0772 14.6981 73.1526 13.8689 73.0521C12.7634 72.9515 12.3111 73.2531 12.3614 74.4845C12.4619 76.6456 12.3865 78.8068 12.3865 81.1439C10.9795 81.1439 9.72319 81.1439 8.34128 81.1439C8.34128 82.5511 8.34128 83.7825 8.34128 85.24C7.33625 85.24 6.43173 85.2903 5.52721 85.2149C4.62269 85.1395 4.22068 85.4159 4.32118 86.396C4.39656 87.2504 4.3463 88.13 4.3463 89.0849C2.91414 89.0849 1.60761 89.0849 0.200575 89.0849C0.200575 87.7781 0.200575 86.4965 0.200575 85.0892C1.55736 85.0892 2.81364 85.0892 4.17042 85.0892C4.17042 83.7322 4.17042 82.5511 4.17042 81.1941C2.88902 81.1941 1.63274 81.1941 0.250826 81.1941C0.250826 78.4047 0.250826 75.7661 0.250826 72.9515C1.55736 72.9515 2.81364 72.9515 4.17042 72.9515C4.17042 71.5694 4.17042 70.338 4.17042 69.0061C2.86389 69.0061 1.63274 69.0061 0.125198 69.0061C0.125198 68.0763 0.125198 67.2722 0.125198 66.4429C0.125198 64.8849 0.150324 63.3519 0.100073 61.7939C0.0749469 60.9395 0.376454 60.6882 1.18047 60.7384C2.13525 60.7887 3.09002 60.7636 4.19555 60.7636C4.19555 59.3563 4.19555 58.0998 4.19555 56.6925C6.93424 56.6925 9.49706 56.6925 12.1855 56.6925C12.1855 55.3606 12.1855 54.1293 12.1855 52.7471C10.9041 52.7471 9.62269 52.7471 8.1654 52.7471C8.1654 50.4855 8.09002 48.3494 8.19052 46.2385C8.24078 44.982 7.91414 44.4543 6.60761 44.6302C5.92922 44.7307 5.20057 44.6553 4.3463 44.6553C4.3463 46.0375 4.3463 47.3191 4.3463 48.651C2.88902 48.651 1.58248 48.651 0.200575 48.651C0.200575 43.1978 0.200575 37.82 0.200575 32.4171C2.91414 32.4171 5.52721 32.4171 8.29103 32.4171C8.29103 33.7741 8.29103 35.0306 8.29103 36.4127C9.67294 36.4127 10.9041 36.4127 12.2609 36.4127C12.2609 35.0809 12.2609 33.7992 12.2609 32.4422C15.0247 32.4422 17.6378 32.4422 20.3513 32.4422C20.3513 33.7992 20.3513 35.106 20.3513 36.6138C18.1905 36.6138 16.0297 36.664 13.8689 36.5887C12.7634 36.5384 12.2106 36.7897 12.3865 38.0211C12.487 38.8001 12.4116 39.6042 12.4116 40.534C13.7433 40.534 15.0247 40.534 16.5322 40.534C16.5322 41.6649 16.5574 42.645 16.5322 43.625C16.5071 44.3035 16.7332 44.6302 17.4619 44.5799C18.3664 44.5297 19.2961 44.5799 20.3262 44.5799C20.3262 43.2229 20.3262 41.9916 20.3262 40.6848C23.1654 40.6848 25.8538 40.6848 28.6177 40.6848C28.6177 41.9916 28.6177 43.2481 28.6177 44.6805C26.6076 44.6805 24.6227 44.6805 22.6126 44.6805C20.4518 44.6805 20.4518 44.6805 20.4518 46.8919C20.4518 48.5253 20.4267 50.1588 20.477 51.7922C20.5021 52.4958 20.2508 52.8225 19.5473 52.722C19.4971 52.722 19.4719 52.722 19.4217 52.722C18.492 52.7974 16.8589 52.6718 16.7584 53.0236C16.4066 54.1042 16.6327 55.3606 16.6327 56.6423C20.6277 56.6423 24.5222 56.6423 28.5925 56.6423C28.5925 55.5366 28.6428 54.5062 28.5674 53.4759C28.5423 53.2246 28.1151 52.7974 27.8388 52.7723C27.0096 52.6718 26.1553 52.7974 25.3262 52.6969C24.9996 52.6466 24.5222 52.2445 24.4971 51.9681C24.3966 50.9378 24.4468 49.8823 24.4468 48.7515C25.8538 48.7515 27.1604 48.7515 28.6428 48.7515C28.6428 49.9577 28.6428 51.1891 28.6428 52.521C29.9744 52.521 31.1553 52.521 32.487 52.521C32.487 49.9075 32.487 47.3442 32.487 44.5799C33.6428 44.5799 34.6729 44.5297 35.7031 44.6051C36.482 44.6553 36.7332 44.3538 36.683 43.5747C36.6327 42.6701 36.6579 41.7403 36.6579 40.6597C38.0146 40.6597 39.2961 40.6597 40.7282 40.6597C40.7282 39.4283 40.7785 38.3477 40.678 37.2923C40.6528 37.0661 40.1754 36.6892 39.8739 36.664C38.8438 36.5887 37.8136 36.6389 36.6579 36.6389C36.6579 35.2568 36.6579 34.0003 36.6579 32.5679C35.2508 32.5679 33.9443 32.5679 32.5624 32.5679C32.5624 29.7533 32.5624 27.1398 32.5624 24.3504C33.5423 24.3504 34.4971 24.3002 35.4518 24.3756C36.3564 24.4509 36.7584 24.1745 36.6579 23.1945C36.5574 22.2898 36.6327 21.36 36.6327 20.3045C37.9895 20.3045 39.2709 20.3045 40.6277 20.3045C40.6277 17.5905 40.6277 15.0273 40.6277 12.3384C39.2961 12.3384 38.0146 12.3384 36.7081 12.3384C36.7081 10.8808 36.7081 9.57408 36.7081 8.19194C38.0649 8.19194 39.3463 8.19194 40.8036 8.19194C40.8036 9.49869 40.8036 10.7552 40.8036 12.1373C42.1352 12.1373 43.3162 12.1373 44.5976 12.1373C44.5976 9.54895 44.5976 6.98571 44.5976 4.29681C40.5775 4.29681 36.6076 4.29681 32.5624 4.29681C32.5624 2.86441 32.5624 1.53253 32.5624 0.150391C37.9644 0.150391 43.291 0.150391 48.8689 0.150391C48.8689 1.18071 48.894 2.21104 48.8689 3.21623C48.8438 3.91987 49.095 4.14604 49.7986 4.19629C52.7383 4.32194 52.7383 4.34707 52.7383 1.38175C52.7383 1.00481 52.7383 0.627858 52.7383 0.17552C55.5272 0.17552 58.2408 0.17552 61.0548 0.17552C61.0548 2.43721 61.1051 4.64863 61.0297 6.86006C61.0046 7.81499 61.2307 8.26733 62.286 8.16681C63.09 8.09142 63.9443 8.14168 64.8739 8.14168C64.8739 6.78467 64.8739 5.57844 64.8739 4.22142C66.2559 4.22142 67.5121 4.22142 68.9443 4.22142C68.9443 2.78902 68.9443 1.53253 68.9443 0.17552C70.4267 0.17552 71.7332 0.17552 73.1905 0.17552C73.1905 1.5074 73.1905 2.76389 73.1905 4.17116C75.9041 4.17116 78.492 4.17116 81.1805 4.17116C81.1805 6.86006 81.1805 9.44843 81.1805 12.1373C82.5373 12.1373 83.7684 12.1373 85.1503 12.1373C85.1503 8.21707 85.1503 4.27168 85.1503 0.20065C86.5574 0.20065 87.8388 0.20065 89.1956 0.20065C89.1956 6.86006 89.1956 13.5446 89.1956 20.3799C87.9895 20.3799 86.7584 20.3799 85.3765 20.3799C85.3765 23.1945 85.3765 25.8582 85.3765 28.6476C83.9443 28.6476 82.688 28.6476 81.3312 28.6476C81.3312 32.6935 81.3312 36.6138 81.3312 40.6597C82.6629 40.6597 83.9192 40.6597 85.276 40.6597C85.276 42.067 85.276 43.3486 85.276 44.7559C83.9192 44.7559 82.6629 44.7559 81.3061 44.7559C81.3061 46.0877 81.3061 47.294 81.3061 48.651C82.5624 48.651 83.8438 48.651 85.2257 48.651C85.2257 50.1085 85.2257 51.3901 85.2257 52.7471C82.487 52.7471 79.8237 52.7471 77.0096 52.7471C77.0096 51.4655 77.0096 50.2342 77.0096 48.9023C74.3212 48.9023 71.7835 48.9023 69.1704 48.9023C69.1704 51.5158 69.1704 54.0539 69.1704 56.7428C74.5222 56.7428 79.8488 56.7428 85.276 56.7428C85.276 58.2254 85.276 59.5322 85.276 61.0149C83.9443 61.0149 82.6629 61.0149 81.3312 61.0149C81.3312 63.7038 81.3312 66.2419 81.3312 68.8554C83.9443 68.8554 86.482 68.8554 89.1704 68.8554C89.1704 66.2419 89.1704 63.6284 89.1704 60.9395C90.6277 60.9395 91.9091 60.9395 93.3915 60.9395C93.3915 64.9351 93.3915 68.9308 93.3915 73.0018C96.1051 73.0018 98.6428 73.0018 101.256 73.0018C101.256 71.695 101.256 70.4637 101.256 69.0815C99.9996 69.0815 98.7935 69.0815 97.5121 69.0815C97.5121 66.2921 97.5121 63.6535 97.5121 60.9395C98.7935 60.9395 100.025 60.9395 101.432 60.9395C101.432 62.196 101.432 63.4273 101.432 64.7843C106.884 64.7843 112.186 64.7843 117.613 64.7843C117.613 66.2419 117.613 67.5737 117.613 69.0564C116.331 69.0564 115.1 69.0564 113.718 69.0564C113.718 71.7453 113.718 74.3337 113.718 77.0226C112.236 77.0226 110.879 77.0226 109.397 77.0226C109.397 74.4091 109.397 71.8458 109.397 69.1821C108.115 69.1821 106.959 69.1821 105.653 69.1821C105.653 70.4385 105.653 71.7202 105.653 73.1777C104.472 73.1777 103.442 73.2028 102.412 73.1777C101.708 73.1526 101.432 73.429 101.482 74.1326C101.532 75.0122 101.482 75.8917 101.482 76.9723C102.839 76.9723 104.145 76.9723 105.577 76.9723C105.577 78.2037 105.603 79.2591 105.577 80.2895C105.552 80.9428 105.804 81.1941 106.457 81.169C107.412 81.1187 108.366 81.169 109.497 81.169C109.497 82.526 109.497 83.7825 109.497 85.1646C110.879 85.1646 112.11 85.1646 113.517 85.1646C113.517 83.8579 113.517 82.6014 113.517 81.169C114.949 81.169 116.231 81.169 117.613 81.169C117.613 78.455 117.613 75.8666 117.613 73.1274C120.326 73.1274 122.939 73.1274 125.628 73.1274C125.628 71.7453 125.628 70.5139 125.628 69.1318C124.296 69.1318 123.015 69.1318 121.683 69.1318C121.683 67.6491 121.683 66.3424 121.683 64.91C124.346 64.91 126.959 64.91 129.748 64.91C129.748 60.8389 129.748 56.8936 129.748 52.7723C131.13 52.7723 132.361 52.7723 133.718 52.7723C133.718 51.3901 133.718 50.1588 133.718 48.7766C135.125 48.7766 136.407 48.7766 137.738 48.7766C137.738 47.4196 137.738 46.2385 137.738 44.8312C135.125 44.8312 132.537 44.8312 129.799 44.8312C129.799 43.4491 129.799 42.2429 129.799 40.8105C128.567 40.8105 127.462 40.7602 126.356 40.8607C126.13 40.8859 125.829 41.5141 125.804 41.8659C125.753 44.9318 125.778 47.9725 125.778 51.0383C125.778 51.566 125.778 52.1189 125.778 52.7471C124.346 52.7471 123.04 52.7471 121.557 52.7471C121.557 48.8269 121.557 44.9066 121.557 40.911C120.226 40.911 119.045 40.911 117.688 40.911C117.688 42.1926 117.688 43.424 117.688 44.781C114.924 44.781 112.311 44.781 109.598 44.781C109.598 46.138 109.598 47.3694 109.598 48.7264C112.261 48.7264 114.874 48.7264 117.588 48.7264C117.588 52.8477 117.588 56.8433 117.588 60.9395C114.924 60.9395 112.236 60.9395 109.397 60.9395C109.397 56.9941 109.397 53.0236 109.397 48.9023C108.04 48.9023 106.809 48.9023 105.502 48.9023C105.502 47.4196 105.502 46.1129 105.502 44.6805C106.733 44.6805 107.939 44.6805 109.246 44.6805C109.246 43.3737 109.246 42.1926 109.246 40.8356C106.658 40.8356 104.07 40.8356 101.306 40.8356C101.306 39.4032 101.306 38.1467 101.306 36.7897C99.9996 36.7897 98.8438 36.7897 97.5624 36.7897C97.5624 39.3781 97.5624 41.9664 97.5624 44.7307C96.1302 44.7307 94.8237 44.7307 93.3915 44.7307C93.3915 46.1631 93.3915 47.3945 93.3915 48.7515C91.9594 48.7515 90.6528 48.7515 89.2458 48.7515C89.2458 47.4447 89.2458 46.1129 89.2458 44.6553C90.5523 44.6553 91.8337 44.6553 93.1654 44.6553C93.1654 40.5843 93.1654 36.6892 93.1654 32.6181C91.8337 32.6181 90.5523 32.6181 89.2207 32.6181C89.2207 29.8287 89.2207 27.2152 89.2207 24.4761C90.5272 24.4761 91.7584 24.4761 93.1654 24.4761C93.1654 19.0229 93.1654 13.6954 93.1654 8.26733C94.6729 8.26733 96.0297 8.26733 97.4619 8.26733C97.4619 12.2881 97.4619 16.2084 97.4619 20.3045C100.15 20.3045 102.763 20.3045 105.477 20.3045C105.477 21.7118 105.477 22.9432 105.477 24.3504C106.809 24.3504 108.04 24.3504 109.422 24.3504C109.422 25.7828 109.422 27.0644 109.422 28.4466C110.778 28.4466 112.01 28.4466 113.417 28.4466C113.417 27.165 113.417 25.8582 113.417 24.5012C114.924 24.5012 116.231 24.5012 117.663 24.5012C117.663 27.6424 117.663 30.6831 117.663 33.7239C117.663 36.6389 117.663 36.6389 120.552 36.6138C120.804 36.6138 121.055 36.5887 121.482 36.5384C121.482 35.2065 121.482 33.8998 121.482 32.5176C122.939 32.5176 124.221 32.5176 125.728 32.5176C125.728 33.5228 125.778 34.5029 125.703 35.4829C125.653 36.3876 125.979 36.6389 126.859 36.6138C129.12 36.5635 131.356 36.5887 133.794 36.5887C133.794 37.9708 133.794 39.2273 133.794 40.5843C136.532 40.5843 139.12 40.5843 141.834 40.5843C141.834 39.3027 141.834 38.0462 141.834 36.5887C143.191 36.5887 144.422 36.5887 145.778 36.5887C145.778 35.1563 145.778 33.8746 145.778 32.5176C147.236 32.5176 148.542 32.5176 149.949 32.5176C149.949 33.8746 149.949 35.1814 149.949 36.664C148.668 36.664 147.387 36.664 146.03 36.664C146.03 38.0462 146.03 39.2775 146.03 40.6094C147.336 40.6094 148.567 40.6094 149.924 40.6094C149.924 41.9916 149.924 43.2481 149.924 44.7056C147.336 44.7056 144.723 44.7056 142.06 44.7056C142.06 46.0877 142.06 47.2688 142.06 48.651C144.648 48.651 147.261 48.651 149.949 48.651C149.949 50.1085 149.949 51.365 149.949 52.7974C148.618 52.7974 147.336 52.7974 146.005 52.7974C146.005 54.1544 146.005 55.3606 146.005 56.6925C147.286 56.6925 148.567 56.6925 149.949 56.6925C149.949 60.8641 149.949 64.8848 149.949 69.0564C147.763 69.0564 145.628 69.0564 143.517 69.0564C142.135 69.0564 140.753 69.1318 139.371 69.0313C138.115 68.9308 137.738 69.4082 137.889 70.5893C137.964 71.3684 137.914 72.1725 137.914 73.0521C136.507 73.0521 135.175 73.0521 133.718 73.0521C133.718 70.4134 133.718 67.7748 133.718 65.0356C132.387 65.0356 131.206 65.0356 129.874 65.0356C129.874 67.7497 129.874 70.3632 129.874 73.1274C128.467 73.1274 127.186 73.1274 125.829 73.1274C125.829 74.4342 125.829 75.5902 125.829 76.9221C129.799 76.9221 133.794 76.9221 137.839 76.9221C137.839 78.4298 137.839 79.7366 137.839 81.169C136.507 81.169 135.276 81.169 133.919 81.169C133.919 82.5009 133.919 83.7322 133.919 85.0641C136.532 85.0641 139.145 85.0641 141.859 85.0641C141.859 83.7825 141.859 82.5511 141.859 81.1439C143.191 81.1439 144.422 81.1439 145.778 81.1439C145.778 78.4047 145.778 75.8163 145.778 73.1526C147.211 73.1526 148.542 73.1526 149.974 73.1526C149.974 77.1231 149.974 81.0936 149.974 85.2652C148.718 85.2652 147.462 85.2652 146.08 85.2652C146.08 86.6222 146.08 87.8033 146.08 89.1352C147.387 89.1352 148.668 89.1352 150 89.1352C150 93.2816 150 97.2772 150 101.424C148.693 101.424 147.412 101.424 146.055 101.424C146.055 102.806 146.055 104.037 146.055 105.419C147.361 105.419 148.643 105.419 150 105.419C150 108.184 150 110.797 150 113.561C148.693 113.561 147.412 113.561 146.055 113.561C146.055 116.25 146.055 118.788 146.055 121.477C147.336 121.477 148.618 121.477 149.974 121.477C149.974 124.317 149.974 127.006 149.974 129.82C148.668 129.82 147.437 129.82 146.08 129.82C146.08 131.127 146.08 132.308 146.08 133.64C147.336 133.64 148.618 133.64 149.974 133.64C149.974 139.169 149.974 144.521 149.974 149.975C148.593 149.975 147.286 149.975 145.829 149.975C145.829 148.643 145.829 147.361 145.829 146.029C141.783 146.029 137.864 146.029 133.819 146.029C133.819 147.386 133.819 148.668 133.819 150C131.055 150 128.417 150 125.728 150C125.728 148.617 125.728 147.311 125.728 145.803C128.366 145.803 130.979 145.803 133.643 145.803C133.643 144.471 133.643 143.315 133.643 142.008C131.005 142.008 128.392 142.008 125.678 142.008C125.678 140.601 125.678 139.37 125.678 138.013C124.321 138.013 123.065 138.013 121.658 138.013C121.658 139.093 121.708 140.149 121.633 141.179C121.608 141.481 121.155 141.983 120.879 141.983C118.492 142.059 116.13 142.008 113.567 142.008C113.567 140.651 113.567 139.37 113.567 138.013C112.186 138.013 110.954 138.013 109.547 138.013C109.547 140.626 109.547 143.215 109.547 145.903C108.14 145.903 106.884 145.903 105.502 145.903C105.502 144.672 105.502 143.466 105.502 142.033C104.246 142.033 103.115 141.983 102.01 142.084C101.783 142.109 101.482 142.737 101.482 143.114C101.432 145.376 101.457 147.612 101.457 149.975C98.7182 149.975 96.0549 149.975 93.3413 149.975C93.3413 148.617 93.3413 147.311 93.3413 145.853C94.6729 145.853 95.9544 145.853 97.3865 145.853C97.3865 144.672 97.4368 143.642 97.3363 142.611C97.3111 142.385 96.7081 142.059 96.3564 142.059C94.4719 142.008 92.5875 142.033 90.7031 142.033C90.2508 142.033 89.7986 142.033 89.1956 142.033C89.1956 140.626 89.1956 139.345 89.1956 137.962C87.8388 137.962 86.6579 137.962 85.3262 137.962C85.3262 136.505 85.3262 135.173 85.3262 133.69C86.5825 133.69 87.8136 133.69 89.1704 133.69C89.1704 129.594 89.1704 125.649 89.1704 121.603C93.3162 121.603 97.3111 121.603 101.432 121.603C101.432 122.96 101.432 124.216 101.432 125.573C102.789 125.573 103.969 125.573 105.351 125.573C105.351 124.292 105.351 123.035 105.351 121.628C106.783 121.628 108.04 121.628 109.447 121.628C109.447 124.242 109.447 126.88 109.447 129.594C110.804 129.594 112.035 129.594 113.366 129.594C113.366 124.317 113.366 119.04 113.366 113.612C112.06 113.612 110.804 113.612 109.371 113.612C109.371 112.204 109.371 110.948 109.371 109.566C106.708 109.566 104.17 109.566 101.532 109.566C101.532 110.797 101.532 112.054 101.532 113.436C102.814 113.436 104.07 113.436 105.427 113.436C105.427 114.843 105.427 116.175 105.427 117.582C102.814 117.582 100.175 117.582 97.4619 117.582C97.4619 114.868 97.4619 112.154 97.4619 109.34C98.7433 109.34 99.9242 109.34 101.231 109.34C101.231 106.626 101.231 104.062 101.231 101.373C102.663 101.373 103.969 101.373 105.477 101.373C105.477 102.655 105.477 103.962 105.477 105.344C106.809 105.344 107.964 105.344 109.221 105.344C109.221 102.756 109.221 100.192 109.221 97.5034C107.99 97.5034 106.809 97.5034 105.452 97.5034C105.452 96.1212 105.452 94.8396 105.452 93.4575C104.07 93.4575 102.839 93.4575 101.457 93.4575C101.457 94.7642 101.457 96.0207 101.457 97.428C100.1 97.428 98.9192 97.428 97.5373 97.428C97.5373 100.142 97.5373 102.756 97.5373 105.444C96.0549 105.444 94.7232 105.444 93.2659 105.444C93.2659 100.092 93.2659 94.7642 93.2659 89.3111C91.8589 89.3111 90.6277 89.3111 89.2709 89.3111C89.2709 87.9289 89.2709 86.6473 89.2709 85.2652C91.9342 85.2652 94.6227 85.2652 97.4619 85.2652C97.4619 86.5216 97.4619 87.753 97.4619 89.0598C101.457 89.0598 105.276 89.0598 109.221 89.0598C109.221 87.8787 109.221 86.6976 109.221 85.3405C108.015 85.3405 106.783 85.3405 105.402 85.3405C105.402 84.1343 105.376 83.104 105.402 82.0485C105.427 81.3952 105.15 81.1439 104.522 81.169C103.492 81.1941 102.462 81.169 101.256 81.169C101.256 79.7617 101.256 78.4801 101.256 77.0728C98.7433 77.0728 96.3564 77.0477 93.9946 77.098C93.7684 77.098 93.3915 77.6006 93.3664 77.9021C93.291 78.9324 93.3413 79.9879 93.3413 81.0936C91.9091 81.0936 90.6277 81.0936 89.1956 81.0936C89.1956 79.8371 89.1956 78.5555 89.1956 77.1231C87.8388 77.1231 86.6076 77.1231 85.2257 77.1231C85.2257 75.7409 85.2257 74.5096 85.2257 73.0772C83.7684 73.0772 82.4368 73.0772 81.1302 73.0772C81.1302 71.7704 81.1302 70.4386 81.1302 69.0815C79.6981 69.0815 78.4669 69.0815 77.085 69.0815C77.085 70.137 77.1101 71.1422 77.085 72.1223C77.0599 72.8761 77.4116 73.0269 78.0649 73.0269C79.0448 72.9767 80.075 73.0269 81.1302 73.0521ZM20.2508 97.4783C20.2508 96.1212 20.2508 94.7642 20.2508 93.4072C18.8689 93.4072 17.688 93.4072 16.5071 93.4072C16.5071 94.7391 16.5071 95.9453 16.5071 97.227C17.8388 97.3023 19.0699 97.3777 20.3011 97.4531C20.3011 98.6845 20.3011 99.9159 20.3011 101.147C21.7835 101.147 22.9895 101.147 24.2207 101.147C24.2207 99.8656 24.2207 98.6845 24.2207 97.5034C22.8388 97.4783 21.5322 97.4783 20.2508 97.4783ZM20.2508 105.52C20.2508 104.188 20.2508 102.856 20.2508 101.499C18.894 101.499 17.688 101.499 16.482 101.499C16.482 102.831 16.482 104.012 16.482 105.269C17.7885 105.344 19.0448 105.419 20.276 105.47C20.276 106.701 20.276 107.932 20.276 109.189C21.7332 109.189 22.9644 109.189 24.1956 109.189C24.1956 107.907 24.1956 106.751 24.1956 105.52C22.8388 105.52 21.5322 105.52 20.2508 105.52ZM52.5624 36.5635C51.1805 36.5635 49.9493 36.5635 48.6428 36.5635C48.6428 33.3972 48.6428 30.3816 48.6428 27.3911C48.6428 24.275 48.6428 24.3002 45.5775 24.4509C44.8488 24.4761 44.6478 24.7525 44.6729 25.431C44.7232 26.4613 44.6729 27.4917 44.6729 28.6476C43.2408 28.6476 42.0096 28.6476 40.8036 28.6476C40.8036 31.3365 40.8036 33.8495 40.8036 36.5384C42.1101 36.5384 43.3413 36.5384 44.6227 36.5384C44.6227 37.9708 44.6227 39.2524 44.6227 40.7351C43.291 40.7351 42.0347 40.7351 40.6528 40.7351C40.6528 42.1424 40.6528 43.3235 40.6528 44.7056C39.2709 44.7056 37.9895 44.7056 36.6327 44.7056C36.6327 46.4144 36.6327 47.9473 36.6327 49.4803C36.6327 52.6215 36.6327 52.6215 39.7734 52.6215C41.3815 52.6215 42.9895 52.6215 44.5976 52.6215C44.5976 55.4863 44.5976 58.1501 44.5976 60.9897C43.291 60.9897 42.0599 60.9897 40.7785 60.9897C40.7785 62.3216 40.7785 63.4776 40.7785 64.6838C43.4167 64.6838 45.9795 64.6838 48.693 64.6838C48.693 63.3771 48.693 62.1457 48.693 60.9143C50.1252 60.9143 51.3815 60.9143 52.7634 60.9143C52.7634 62.2211 52.7634 63.4273 52.7634 64.6587C54.1453 64.6587 55.4016 64.6587 56.7584 64.6587C56.7584 60.6128 56.7584 56.6925 56.7584 52.6215C58.1151 52.6215 59.3966 52.6215 60.7533 52.6215C60.7533 51.2896 60.7533 50.1085 60.7533 48.7515C59.3966 48.7515 58.1151 48.7515 56.7081 48.7515C56.7081 47.3191 56.7081 46.0626 56.7081 44.6553C53.9694 44.6553 51.4066 44.6553 48.7684 44.6553C48.7684 43.2481 48.7684 41.9916 48.7684 40.5592C50.0749 40.5592 51.3061 40.5592 52.5875 40.5592C52.5624 39.2022 52.5624 38.0211 52.5624 36.5635ZM72.9393 8.29246C70.2257 8.29246 67.6126 8.29246 64.9493 8.29246C64.9493 9.59921 64.9493 10.8306 64.9493 12.2127C66.3061 12.2127 67.5875 12.2127 68.8941 12.2127C68.8941 13.6702 68.8941 14.977 68.8941 16.4345C66.6076 16.4345 64.3966 16.4848 62.1855 16.4094C61.2056 16.3843 60.9041 16.6356 60.9041 17.6659C60.9543 22.1893 60.9292 26.7126 60.9292 31.236C60.9292 31.5878 60.9795 31.9648 61.0046 32.3166C62.286 32.3166 63.4418 32.3166 64.7483 32.3166C64.7483 29.6528 64.7483 27.0393 64.7483 24.4509C66.2307 24.4509 67.5373 24.4509 68.9946 24.4509C68.9946 27.1398 68.9946 29.7031 68.9946 32.4171C70.4016 32.4171 71.683 32.4171 72.9644 32.4171C72.9644 33.8998 72.9644 35.2065 72.9644 36.6892C70.2257 36.6892 67.5875 36.6892 64.9242 36.6892C64.9242 39.3781 64.9242 41.9162 64.9242 44.5046C66.2307 44.5046 67.4619 44.5046 68.8438 44.5046C68.8438 43.1727 68.8438 41.9413 68.8438 40.5843C71.5825 40.5843 74.1704 40.5843 76.7584 40.5843C76.7584 36.5384 76.7584 32.6433 76.7584 28.5471C75.4267 28.5471 74.2207 28.5471 73.0398 28.5471C73.0398 27.0644 73.0398 25.7577 73.0398 24.3504C74.1453 24.3504 75.1503 24.3756 76.1302 24.3504C76.8086 24.3253 77.0096 24.6017 76.9845 25.2551C76.9594 26.2854 76.9845 27.3157 76.9845 28.3963C78.4167 28.3963 79.6729 28.3963 80.9041 28.3963C80.9041 25.7074 80.9041 23.1191 80.9041 20.405C79.5473 20.405 78.2659 20.405 76.9342 20.405C76.9342 18.9978 76.9342 17.7162 76.9342 16.3089C78.291 16.3089 79.5724 16.3089 80.9041 16.3089C80.9041 14.9267 80.9041 13.7205 80.9041 12.3132C78.2157 12.3132 75.6026 12.3132 72.889 12.3132C72.9393 10.8306 72.9393 9.59921 72.9393 8.29246ZM60.7282 97.2772C60.7282 94.5632 60.7282 91.9748 60.7282 89.1854C59.3714 89.1854 58.0649 89.1854 56.6327 89.1854C56.6327 86.4211 56.6327 83.8328 56.6327 81.1439C55.2508 81.1439 53.9694 81.1439 52.5624 81.1439C52.5624 79.7366 52.5624 78.455 52.5624 77.1482C51.2307 77.1482 50.0498 77.1482 48.8187 77.1482C48.8187 79.812 48.8187 82.4004 48.8187 85.1395C50.1252 85.1395 51.3564 85.1395 52.6378 85.1395C52.6378 86.5719 52.6378 87.8284 52.6378 89.2357C51.5825 89.2357 50.6277 89.1854 49.6981 89.2608C49.3714 89.2859 48.8187 89.5875 48.8187 89.8137C48.7182 90.9194 48.7684 92.0251 48.7684 93.2313C50.2006 93.2313 51.3815 93.2313 52.6378 93.2313C52.6378 95.9956 52.6378 98.6342 52.6378 101.474C49.9493 101.474 47.3363 101.474 44.7483 101.474C44.7483 102.856 44.7483 104.037 44.7483 105.419C47.4116 105.419 50.0247 105.419 52.6126 105.419C52.6126 106.877 52.6126 108.133 52.6126 109.49C51.3061 109.49 50.1001 109.49 48.7433 109.49C48.7433 110.872 48.7433 112.129 48.7433 113.561C47.3363 113.561 46.0548 113.561 44.7483 113.561C44.7483 114.943 44.7483 116.175 44.7483 117.456C48.7433 117.456 52.6629 117.456 56.7081 117.456C56.7081 116.099 56.7081 114.843 56.7081 113.411C58.1151 113.411 59.3966 113.411 60.7031 113.411C60.7031 112.028 60.7031 110.797 60.7031 109.44C59.3463 109.44 58.0649 109.44 56.7584 109.44C56.7584 105.344 56.7584 101.399 56.7584 97.3024C58.1403 97.2772 59.3966 97.2772 60.7282 97.2772ZM48.8438 69.0061C48.8438 70.4134 48.8438 71.6448 48.8438 73.0018C51.5071 73.0018 54.095 73.0018 56.7584 73.0018C56.7835 73.5295 56.8086 73.9316 56.8337 74.3337C56.8337 76.2687 56.8086 78.1785 56.8589 80.1135C56.8589 80.4151 57.1855 80.9679 57.3865 80.9931C58.492 81.0685 59.6227 81.0433 60.8287 81.0433C60.8287 80.4402 60.8287 80.0381 60.8287 79.6109C60.8287 76.3943 60.8036 73.1526 60.8538 69.936C60.8538 69.5841 61.1553 68.9308 61.3564 68.9056C62.487 68.8051 63.6428 68.8554 64.8991 68.8554C64.8991 70.0365 64.8488 71.0417 64.9242 72.0469C64.9493 72.3736 65.2508 72.9264 65.477 72.9264C66.5825 73.0269 67.688 72.9767 68.9443 72.9767C68.9443 71.494 68.9443 70.2124 68.9443 68.8554C71.3564 68.8554 73.5925 68.8805 75.8538 68.8302C76.2056 68.8302 76.8589 68.5287 76.884 68.3025C76.9845 67.1968 76.9342 66.0911 76.9342 64.8597C75.5272 64.8597 74.3463 64.8597 72.9895 64.8597C72.9895 63.5027 72.9895 62.2714 72.9895 61.04C71.6076 61.04 70.3765 61.04 69.0197 61.04C69.0197 62.3467 69.0197 63.5278 69.0197 64.7843C67.5624 64.7843 66.2056 64.7843 64.7232 64.7843C64.7232 63.4525 64.7232 62.2211 64.7232 61.0149C63.4167 61.0149 62.2609 61.0149 61.0046 61.0149C61.0046 62.2965 61.0046 63.5027 61.0046 64.8849C59.5724 64.8849 58.2659 64.8849 56.8086 64.8849C56.8086 66.3675 56.8086 67.624 56.8086 68.981C54.0699 69.0061 51.5071 69.0061 48.8438 69.0061ZM40.5775 64.8597C37.7885 64.8597 35.1252 64.8597 32.3111 64.8597C32.3111 62.0703 32.3111 59.5071 32.3111 56.9438C30.9795 56.9438 29.7986 56.9438 28.5423 56.9438C28.5423 58.3008 28.5423 59.5322 28.5423 60.9395C27.1855 60.9395 25.9041 60.9395 24.5724 60.9395C24.5724 62.2714 24.5724 63.4525 24.5724 64.7843C25.9292 64.7843 27.2106 64.7843 28.492 64.7843C28.492 66.2419 28.492 67.5486 28.492 69.0313C27.1352 69.0313 25.8538 69.0313 24.5724 69.0313C24.5724 70.4134 24.5724 71.6448 24.5724 73.0269C28.6177 73.0269 32.5624 73.0269 36.6327 73.0269C36.6327 74.3588 36.6327 75.565 36.6327 76.8215C37.9895 76.8215 39.1956 76.8215 40.6026 76.8215C40.6026 75.5399 40.6026 74.3085 40.6026 72.9264C42.0096 72.9264 43.2408 72.9264 44.4719 72.9264C44.4719 71.5443 44.4719 70.3129 44.4719 68.9308C43.1403 68.9308 41.9091 68.9308 40.5775 68.9308C40.5775 67.5486 40.5775 66.3173 40.5775 64.8597ZM64.9996 77.0728C64.9996 81.169 64.9996 85.1144 64.9996 89.1854C66.4066 89.1854 67.6629 89.1854 69.0448 89.1854C69.0448 90.5676 69.0448 91.7989 69.0448 93.1057C70.3765 93.1057 71.6076 93.1057 72.9895 93.1057C72.9895 91.7738 72.9895 90.4922 72.9895 89.11C74.0951 89.11 75.0498 89.0849 76.0046 89.11C76.6076 89.1352 76.9342 88.9341 76.9342 88.2556C76.9091 83.4809 76.9342 78.7063 76.9091 73.9567C76.9091 73.6803 76.5322 73.1777 76.281 73.1526C75.2508 73.0521 74.2207 73.1023 73.0398 73.1023C73.0398 74.5096 73.0398 75.741 73.0398 77.0477C70.276 77.0728 67.688 77.0728 64.9996 77.0728ZM113.542 113.335C114.924 113.335 116.155 113.335 117.487 113.335C117.487 111.978 117.487 110.697 117.487 109.289C118.844 109.289 120.075 109.289 121.457 109.289C121.457 107.932 121.457 106.701 121.457 105.344C124.246 105.344 126.859 105.344 129.522 105.344C129.522 103.987 129.522 102.756 129.522 101.373C126.809 101.373 124.145 101.373 121.356 101.373C121.356 99.9912 121.356 98.7599 121.356 97.5285C118.668 97.5285 116.13 97.5285 113.567 97.5285C113.567 98.8101 113.567 99.9912 113.567 101.273C114.924 101.273 116.155 101.273 117.462 101.273C117.462 102.73 117.462 104.062 117.462 105.57C116.08 105.57 114.824 105.57 113.517 105.57C113.542 108.209 113.542 110.697 113.542 113.335ZM129.572 117.733C125.552 117.733 121.633 117.733 117.688 117.733C117.688 121.729 117.688 125.624 117.688 129.544C121.708 129.544 125.603 129.544 129.572 129.544C129.572 125.573 129.572 121.703 129.572 117.733ZM141.859 101.172C143.216 101.172 144.447 101.172 145.653 101.172C145.653 99.8405 145.653 98.6845 145.653 97.4029C141.608 97.4029 137.663 97.4029 133.567 97.4029C133.567 95.9705 133.567 94.714 133.567 93.4072C132.236 93.4072 131.055 93.4072 129.874 93.4072C129.874 96.0459 129.874 98.584 129.874 101.223C132.537 101.223 135.1 101.223 137.763 101.223C137.763 102.68 137.763 103.987 137.763 105.444C136.407 105.444 135.15 105.444 133.819 105.444C133.819 106.776 133.819 107.957 133.819 109.164C136.507 109.164 139.12 109.164 141.859 109.164C141.859 106.5 141.859 103.911 141.859 101.172ZM145.653 121.628C141.633 121.628 137.763 121.628 133.819 121.628C133.819 124.292 133.819 126.905 133.819 129.644C135.15 129.644 136.432 129.644 137.864 129.644C137.864 132.384 137.864 134.997 137.864 137.611C139.271 137.611 140.502 137.611 141.859 137.611C141.859 133.565 141.859 129.619 141.859 125.573C143.191 125.573 144.397 125.573 145.653 125.573C145.653 124.216 145.653 122.985 145.653 121.628ZM117.613 93.2062C118.969 93.2062 120.201 93.2062 121.582 93.2062C121.582 94.6135 121.582 95.8951 121.582 97.2521C122.964 97.2521 124.196 97.2521 125.452 97.2521C125.452 93.2564 125.452 89.3111 125.452 85.2149C124.07 85.2149 122.814 85.2149 121.457 85.2149C121.457 84.0589 121.507 83.0537 121.432 82.0737C121.407 81.747 121.005 81.2444 120.728 81.2193C119.748 81.1187 118.743 81.169 117.638 81.169C117.638 82.6014 117.638 83.8579 117.638 85.3154C116.206 85.3154 114.899 85.3154 113.643 85.3154C113.643 86.6724 113.643 87.8535 113.643 89.1603C115.025 89.1603 116.256 89.1603 117.638 89.1603C117.613 90.5173 117.613 91.7989 117.613 93.2062ZM93.3413 133.69C94.7734 133.69 96.0549 133.69 97.3865 133.69C97.3865 136.178 97.3614 138.515 97.4116 140.852C97.4116 141.179 97.7634 141.782 97.9895 141.807C99.0197 141.908 100.05 141.858 101.206 141.858C101.206 140.4 101.206 139.118 101.206 137.686C103.944 137.686 106.557 137.686 109.17 137.686C109.17 136.329 109.17 135.123 109.17 133.766C108.165 133.766 107.211 133.741 106.256 133.766C105.552 133.791 105.276 133.54 105.301 132.836C105.326 131.856 105.301 130.876 105.301 129.896C101.18 129.896 97.2609 129.896 93.3162 129.896C93.3413 131.152 93.3413 132.308 93.3413 133.69ZM48.8438 121.578C48.8438 122.985 48.8438 124.216 48.8438 125.599C50.1503 125.599 51.3815 125.599 52.7634 125.599C52.7634 127.006 52.7634 128.287 52.7634 129.569C54.1453 129.569 55.3765 129.569 56.7584 129.569C56.7584 128.212 56.7584 126.93 56.7584 125.523C58.1654 125.523 59.4468 125.523 60.7533 125.523C60.7533 122.859 60.7533 120.321 60.7533 117.733C59.4217 117.733 58.1654 117.733 56.7584 117.733C56.7584 119.065 56.7584 120.271 56.7584 121.578C54.0448 121.578 51.5071 121.578 48.8438 121.578ZM32.5875 93.0805C36.6327 93.0805 40.5523 93.0805 44.5976 93.0805C44.5976 91.7235 44.5976 90.4419 44.5976 89.0346C46.0046 89.0346 47.286 89.0346 48.5674 89.0346C48.5674 87.7279 48.5674 86.5719 48.5674 85.24C46.1302 85.24 43.7433 85.2149 41.3815 85.2903C41.1553 85.2903 40.7533 85.8683 40.7282 86.195C40.6277 87.175 40.7031 88.1551 40.7031 89.2608C37.889 89.2608 35.276 89.2608 32.5875 89.2608C32.5875 90.5927 32.5875 91.7738 32.5875 93.0805ZM56.6327 28.3712C56.6327 25.7074 56.6327 23.0939 56.6327 20.4302C53.9945 20.4302 51.4317 20.4302 48.7684 20.4302C48.7684 21.4856 48.7935 22.4406 48.7684 23.3955C48.7182 24.1494 49.095 24.3253 49.7483 24.3002C50.7031 24.275 51.6579 24.3002 52.7383 24.3002C52.7383 25.7326 52.7383 27.0142 52.7383 28.3461C54.1202 28.3712 55.3513 28.3712 56.6327 28.3712ZM137.638 60.8138C139.12 60.8138 140.402 60.8138 141.758 60.8138C141.758 59.4317 141.758 58.2254 141.758 56.9187C139.095 56.9187 136.482 56.9187 133.844 56.9187C133.844 59.5825 133.844 62.1457 133.844 64.6838C135.15 64.6838 136.356 64.6838 137.638 64.6838C137.638 63.4273 137.638 62.2211 137.638 60.8138ZM129.572 109.515C126.859 109.515 124.271 109.515 121.633 109.515C121.633 110.822 121.633 112.054 121.633 113.335C124.321 113.335 126.934 113.335 129.572 113.335C129.572 112.028 129.572 110.822 129.572 109.515ZM48.7433 16.2837C49.8991 16.2837 50.8538 16.334 51.8086 16.2586C52.1101 16.2335 52.5875 15.756 52.5875 15.4796C52.6378 13.3436 52.6378 11.2075 52.5875 9.09661C52.5875 8.79506 52.085 8.2422 51.884 8.26733C50.8538 8.44324 49.6478 7.61395 48.7684 8.71967C48.7182 8.76993 48.7433 8.87045 48.7433 8.97097C48.7433 11.3332 48.7433 13.6954 48.7433 16.2837ZM24.5222 97.227C27.1604 97.227 29.7232 97.227 32.286 97.227C32.286 95.9202 32.286 94.6888 32.286 93.4324C29.6478 93.4324 27.1101 93.4324 24.5222 93.4324C24.5222 94.7391 24.5222 95.9453 24.5222 97.227ZM32.3111 101.449C29.6227 101.449 27.1101 101.449 24.4468 101.449C24.4468 102.58 24.3966 103.61 24.4719 104.64C24.4971 104.892 24.8739 105.294 25.1001 105.319C27.487 105.369 29.8488 105.344 32.286 105.344C32.3111 104.012 32.3111 102.781 32.3111 101.449ZM125.502 36.6138C124.346 36.6138 123.291 36.5635 122.261 36.664C122.01 36.6892 121.532 37.2923 121.582 37.5185C121.783 38.5237 120.778 39.9812 122.11 40.5089C123.065 40.8859 124.296 40.5843 125.477 40.5843C125.502 39.2273 125.502 38.0211 125.502 36.6138ZM125.477 77.0477C124.346 77.0477 123.216 76.8215 122.236 77.098C120.804 77.5 121.809 78.857 121.608 79.7366C121.507 80.1889 121.281 80.9931 122.261 81.0182C123.316 81.0433 124.397 81.0182 125.502 81.0182C125.477 79.6612 125.477 78.4298 125.477 77.0477ZM12.1352 69.0061C10.9795 69.0061 9.92419 68.9559 8.89404 69.0313C8.64279 69.0564 8.24078 69.4334 8.24078 69.6847C8.1654 70.7401 8.21565 71.8207 8.21565 72.9013C9.64781 72.9013 10.879 72.9013 12.1604 72.9013C12.1352 71.6197 12.1352 70.4134 12.1352 69.0061ZM40.7785 121.628C40.7785 123.01 40.7785 124.242 40.7785 125.498C42.0599 125.498 43.2408 125.498 44.4468 125.498C44.4468 124.166 44.4468 122.91 44.4468 121.628C43.1905 121.628 42.0347 121.628 40.7785 121.628ZM36.7081 113.335C38.0146 113.335 39.2458 113.335 40.5272 113.335C40.5272 112.028 40.5272 110.797 40.5272 109.515C39.2207 109.515 37.9895 109.515 36.7081 109.515C36.7081 110.822 36.7081 112.054 36.7081 113.335ZM105.326 32.5176C104.095 32.5176 103.09 32.4925 102.11 32.5428C101.859 32.5679 101.407 32.8192 101.407 32.9951C101.331 34.1259 101.381 35.2819 101.381 36.5133C102.588 36.5133 103.593 36.5635 104.598 36.4881C104.874 36.463 105.301 36.0609 105.326 35.8096C105.376 34.7542 105.326 33.7239 105.326 32.5176ZM36.683 105.294C37.9895 105.294 39.2207 105.294 40.5021 105.294C40.5021 103.987 40.5021 102.756 40.5021 101.474C39.1955 101.474 37.9644 101.474 36.683 101.474C36.683 102.73 36.683 103.937 36.683 105.294ZM113.392 32.593C112.01 32.593 110.778 32.593 109.472 32.593C109.472 33.8998 109.472 35.1311 109.472 36.5133C110.628 36.5133 111.683 36.5384 112.763 36.4881C112.99 36.4881 113.341 36.1112 113.341 35.9101C113.417 34.8296 113.392 33.749 113.392 32.593ZM56.9091 12.3384C56.9091 13.6954 56.9091 14.9267 56.9091 16.1581C58.2408 16.1581 59.4719 16.1581 60.7031 16.1581C60.7031 14.8262 60.7031 13.62 60.7031 12.3384C59.3966 12.3384 58.2157 12.3384 56.9091 12.3384ZM125.728 81.2444C125.728 82.5511 125.728 83.7825 125.728 85.0641C127.035 85.0641 128.266 85.0641 129.547 85.0641C129.547 83.7574 129.547 82.5511 129.547 81.2444C128.291 81.2444 127.085 81.2444 125.728 81.2444ZM44.4971 20.4553C43.1654 20.4553 41.9845 20.4553 40.7785 20.4553C40.7785 21.7872 40.7785 23.0185 40.7785 24.2248C42.0599 24.2248 43.2408 24.2248 44.4971 24.2248C44.4971 22.9432 44.4971 21.7369 44.4971 20.4553ZM36.7332 28.3712C38.0649 28.3712 39.2709 28.3712 40.5272 28.3712C40.5272 27.0393 40.5272 25.808 40.5272 24.6017C36.7081 24.0489 36.482 24.2248 36.6579 27.8937C36.6327 28.0194 36.683 28.145 36.7332 28.3712ZM56.9091 40.7853C56.9091 42.067 56.9091 43.2481 56.9091 44.5046C58.2157 44.5046 59.4468 44.5046 60.6277 44.5046C61.3061 40.9361 61.08 40.6346 57.6629 40.7351C57.4368 40.71 57.2358 40.7351 56.9091 40.7853ZM77.1353 40.7853C77.1353 42.0921 77.1353 43.2732 77.1353 44.4543C78.492 44.4543 79.7232 44.4543 80.9795 44.4543C80.9795 43.1727 80.9795 42.0167 80.9795 40.7853C79.6981 40.7853 78.4669 40.7853 77.1353 40.7853ZM52.7131 32.593C52.7131 33.7239 52.688 34.8044 52.7383 35.8599C52.7383 36.0861 53.09 36.463 53.291 36.463C54.3966 36.5133 55.5021 36.4881 56.6076 36.4881C56.6076 35.0557 56.6076 33.8495 56.6076 32.5679C55.3513 32.593 54.1202 32.593 52.7131 32.593ZM40.8036 77.1231C40.8036 78.5052 40.8036 79.7366 40.8036 80.968C42.085 80.968 43.291 80.968 44.4719 80.968C44.4719 79.6361 44.4719 78.4047 44.4719 77.1231C43.2157 77.1231 42.0599 77.1231 40.8036 77.1231ZM141.758 48.7515C140.703 48.7515 139.748 48.7515 138.794 48.7515C138.517 48.7515 138.241 48.8269 137.814 48.8771C137.814 49.9075 137.763 50.9127 137.839 51.9179C137.864 52.1692 138.291 52.5712 138.593 52.5964C141.758 52.9733 141.859 52.8728 141.809 49.7064C141.809 49.4551 141.783 49.2038 141.758 48.7515ZM16.2307 48.7766C15.0498 48.7766 13.9945 48.7012 12.9895 48.8269C12.7383 48.852 12.3111 49.5305 12.3614 49.8321C12.5121 50.7619 11.6076 52.0938 12.9141 52.5461C13.9192 52.8728 15.1001 52.6215 16.2558 52.6215C16.2307 51.2394 16.2307 50.1085 16.2307 48.7766ZM101.407 28.3712C102.789 28.3712 103.995 28.3712 105.276 28.3712C105.276 27.0644 105.276 25.8331 105.276 24.5766C103.944 24.5766 102.688 24.5766 101.407 24.5766C101.407 25.8833 101.407 27.0896 101.407 28.3712ZM40.5272 56.9187C39.1704 56.9187 37.9393 56.9187 36.7081 56.9187C36.7081 58.2506 36.7081 59.4568 36.7081 60.7133C38.0398 60.7133 39.2458 60.7133 40.5272 60.7133C40.5272 59.4066 40.5272 58.2254 40.5272 56.9187ZM97.2358 24.4761C96.08 24.4761 95.075 24.5012 94.0699 24.4761C93.3413 24.4509 93.1654 24.9284 93.3162 25.4561C93.5925 26.4613 92.487 27.8937 93.9443 28.4215C94.9242 28.7733 96.1302 28.4969 97.2358 28.4969C97.2358 27.0393 97.2358 25.8582 97.2358 24.4761ZM133.794 89.2859C133.794 90.6178 133.794 91.8492 133.794 93.0805C135.125 93.0805 136.356 93.0805 137.613 93.0805C137.613 91.7738 137.613 90.5927 137.613 89.2859C136.306 89.2859 135.1 89.2859 133.794 89.2859ZM85.0498 16.535C83.7182 16.535 82.487 16.535 81.2056 16.535C81.2056 17.7915 81.2056 18.9475 81.2056 20.1286C82.5373 20.1286 83.7935 20.1286 85.0498 20.1286C85.0498 18.8721 85.0498 17.7413 85.0498 16.535ZM32.3111 85.0641C32.3111 83.7071 32.3111 82.5009 32.3111 81.2695C31.0548 81.2695 29.8739 81.2695 28.6679 81.2695C28.6679 82.6014 28.6679 83.8328 28.6679 85.0641C29.9242 85.0641 31.08 85.0641 32.3111 85.0641ZM64.9242 60.8138C66.0548 60.8138 67.085 60.8641 68.1152 60.7887C68.3664 60.7636 68.7684 60.3866 68.7935 60.1604C68.8689 59.105 68.8187 58.0244 68.8187 56.9438C67.4116 56.9438 66.2056 56.9438 64.9242 56.9438C64.9242 58.2254 64.9242 59.4317 64.9242 60.8138ZM133.794 113.612C133.794 114.918 133.794 116.15 133.794 117.456C135.075 117.456 136.306 117.456 137.562 117.456C137.562 116.125 137.562 114.868 137.562 113.612C136.256 113.612 135.05 113.612 133.794 113.612ZM16.1553 101.147C16.1553 99.8405 16.1553 98.6594 16.1553 97.5285C14.8237 97.5285 13.5925 97.5285 12.3363 97.5285C12.3363 98.785 12.3363 99.941 12.3363 101.147C13.6428 101.147 14.8739 101.147 16.1553 101.147ZM16.1805 109.214C16.1805 107.957 16.1805 106.776 16.1805 105.57C14.8488 105.57 13.6177 105.57 12.3614 105.57C12.3614 106.827 12.3614 107.983 12.3614 109.214C13.6679 109.214 14.8991 109.214 16.1805 109.214ZM56.6327 4.22142C55.477 4.22142 54.4468 4.19629 53.4167 4.24655C53.1905 4.24655 52.7885 4.49785 52.7634 4.6235C52.7131 5.75434 52.7383 6.88519 52.7383 7.96577C54.1955 7.96577 55.3765 7.96577 56.6327 7.96577C56.6327 6.73441 56.6327 5.57844 56.6327 4.22142ZM36.4317 105.545C35.1252 105.545 33.894 105.545 32.6126 105.545C32.6126 106.801 32.6126 107.983 32.6126 109.164C33.9443 109.164 35.1754 109.164 36.4317 109.164C36.4317 107.932 36.4317 106.776 36.4317 105.545ZM141.984 109.515C141.984 110.822 141.984 112.054 141.984 113.31C143.241 113.31 144.422 113.31 145.603 113.31C145.603 111.978 145.603 110.747 145.603 109.515C144.371 109.515 143.216 109.515 141.984 109.515ZM36.683 117.708C36.683 118.989 36.683 120.145 36.683 121.452C37.8136 121.452 38.894 121.477 39.9744 121.427C40.2006 121.427 40.5775 121.075 40.5775 120.849C40.6528 119.819 40.6026 118.788 40.6026 117.708C39.2207 117.708 38.0398 117.708 36.683 117.708ZM141.984 93.1057C143.291 93.1057 144.447 93.1057 145.653 93.1057C145.653 91.824 145.653 90.5927 145.653 89.3111C144.397 89.3111 143.191 89.3111 141.984 89.3111C141.984 90.6178 141.984 91.824 141.984 93.1057ZM28.3915 89.0346C28.3915 87.7781 28.3915 86.597 28.3915 85.2652C27.2358 85.2652 26.1805 85.24 25.1001 85.2903C24.8739 85.2903 24.5222 85.6421 24.5222 85.8683C24.4719 86.8986 24.4971 87.9289 24.4971 89.0095C25.8538 89.0346 27.085 89.0346 28.3915 89.0346ZM145.628 141.657C145.628 140.425 145.628 139.194 145.628 137.962C144.346 137.962 143.191 137.962 142.01 137.962C141.909 142.687 141.18 141.807 145.402 141.807C145.452 141.807 145.477 141.757 145.628 141.657ZM44.7734 73.1526C44.7734 74.4593 44.7734 75.6404 44.7734 76.7964C46.1051 76.7964 47.3363 76.7964 48.5674 76.7964C48.5674 75.5148 48.5674 74.3839 48.5674 73.1526C47.286 73.1526 46.08 73.1526 44.7734 73.1526ZM44.4468 109.189C44.4468 107.957 44.4468 106.751 44.4468 105.57C43.1403 105.57 41.9845 105.57 40.7533 105.57C40.7533 106.827 40.7533 107.957 40.7533 109.189C41.9845 109.189 43.1151 109.189 44.4468 109.189ZM64.9493 105.545C64.9493 106.801 64.9493 107.983 64.9493 109.189C66.281 109.189 67.5121 109.189 68.7182 109.189C68.7182 107.907 68.7182 106.726 68.7182 105.545C67.4116 105.545 66.2307 105.545 64.9493 105.545ZM97.5121 28.6225C97.5121 29.9293 97.5121 31.1104 97.5121 32.2915C98.7684 32.2915 99.9242 32.2915 101.105 32.2915C101.105 31.035 101.105 29.8539 101.105 28.6225C99.8739 28.6225 98.7182 28.6225 97.5121 28.6225ZM142.035 61.0149C142.035 62.3467 142.035 63.5278 142.035 64.6838C143.291 64.6838 144.447 64.6838 145.628 64.6838C145.628 63.4273 145.628 62.2462 145.628 61.0149C144.397 61.0149 143.241 61.0149 142.035 61.0149ZM133.517 137.636C133.517 136.304 133.517 135.098 133.517 133.866C132.236 133.866 131.055 133.866 129.849 133.866C129.849 135.173 129.849 136.354 129.849 137.636C131.08 137.636 132.236 137.636 133.517 137.636Z" fill="black"/>
<path d="M28.5427 0.0753895C28.5427 9.5996 28.5427 18.973 28.5427 28.447C19.0955 28.447 9.64824 28.447 0.0251256 28.447C0.0251256 27.9444 0.0251256 27.4167 0.0251256 26.8889C0.0251256 18.3448 0.0502513 9.82577 0 1.28162C0 0.251298 0.301508 0 1.33166 0C9.8995 0.0502597 18.4925 0.0251298 27.0603 0.0251298C27.5126 0.0251298 27.99 0.0502597 28.5427 0.0753895ZM4.32161 4.2972C4.32161 11.032 4.32161 17.616 4.32161 24.2252C11.0302 24.2252 17.6382 24.2252 24.2211 24.2252C24.2211 17.5155 24.2211 10.9315 24.2211 4.2972C17.5377 4.2972 10.9799 4.2972 4.32161 4.2972Z" fill="black"/>
<path d="M28.5428 121.528C28.5428 131.053 28.5428 140.426 28.5428 149.9C19.0705 149.9 9.64835 149.9 0.125732 149.9C0.125732 140.451 0.125732 131.027 0.125732 121.528C9.59809 121.528 18.9951 121.528 28.5428 121.528ZM24.2463 125.8C17.5378 125.8 10.9549 125.8 4.32171 125.8C4.32171 132.485 4.32171 139.069 4.32171 145.678C11.0051 145.678 17.588 145.678 24.2463 145.678C24.2463 139.044 24.2463 132.485 24.2463 125.8Z" fill="black"/>
<path d="M120.507 28.4966C120.507 19.0226 120.507 9.62408 120.507 0.125C129.929 0.125 139.351 0.125 148.874 0.125C148.874 9.57382 148.874 18.9975 148.874 28.4966C139.427 28.4966 130.005 28.4966 120.507 28.4966ZM124.653 4.29655C124.653 4.74889 124.653 5.1761 124.653 5.57817C124.653 11.3832 124.678 17.2133 124.628 23.0183C124.628 24.0737 124.929 24.3502 125.959 24.3502C131.763 24.2999 137.593 24.325 143.397 24.325C143.799 24.325 144.201 24.2748 144.628 24.2496C144.628 17.54 144.628 10.956 144.628 4.29655C137.995 4.29655 131.412 4.29655 124.653 4.29655Z" fill="black"/>
<path d="M100.231 52.7979C98.8991 52.7979 97.7433 52.7979 96.4619 52.7979C96.4619 54.1297 96.4619 55.3862 96.4619 56.7432C93.6227 56.7432 90.9342 56.7432 88.1704 56.7432C88.1704 55.4114 88.1704 54.0795 88.1704 52.6219C90.5071 52.6219 92.7935 52.5717 95.0548 52.6471C96.0347 52.6722 96.4367 52.4209 96.3111 51.3906C96.2106 50.5362 96.286 49.6566 96.286 48.752C97.693 48.752 98.9493 48.752 100.381 48.752C100.381 50.0587 100.381 51.2901 100.381 52.6219C101.763 52.6219 103.02 52.6219 104.351 52.6219C104.351 54.0292 104.351 55.336 104.351 56.7684C103.02 56.7684 101.663 56.7684 100.231 56.7684C100.231 55.4365 100.231 54.2051 100.231 52.7979Z" fill="black"/>
<path d="M100.281 8.14258C102.995 8.14258 105.633 8.14258 108.347 8.14258C108.347 9.49959 108.347 10.7812 108.347 12.2639C107.342 12.2639 106.362 12.289 105.382 12.2639C104.678 12.2387 104.402 12.49 104.427 13.1937C104.452 14.1989 104.427 15.1789 104.427 16.3098C102.995 16.3098 101.663 16.3098 100.256 16.3098C100.281 13.6209 100.281 10.9571 100.281 8.14258Z" fill="black"/>
<path d="M116.512 20.2798C115.13 20.2798 113.849 20.2798 112.467 20.2798C112.467 17.6161 112.467 14.9774 112.467 12.2383C113.798 12.2383 115.105 12.2383 116.512 12.2383C116.512 14.9272 116.512 17.5407 116.512 20.2798Z" fill="black"/>
<path d="M28.4927 36.5891C27.1108 36.5891 25.8294 36.5891 24.4224 36.5891C24.4224 35.2321 24.4224 33.875 24.4224 32.4678C25.7791 32.4678 27.0857 32.4678 28.4927 32.4678C28.4927 33.7997 28.4927 35.1315 28.4927 36.5891Z" fill="black"/>
<path d="M88.1206 117.558C88.1206 116.175 88.1206 114.894 88.1206 113.512C89.4774 113.512 90.7839 113.512 92.191 113.512C92.191 114.818 92.191 116.15 92.191 117.558C90.8844 117.558 89.5779 117.558 88.1206 117.558Z" fill="black"/>
<path d="M104.402 0.0751953C105.759 0.0751953 106.99 0.0751953 108.322 0.0751953C108.322 1.43221 108.322 2.73896 108.322 4.14623C107.015 4.14623 105.759 4.14623 104.402 4.14623C104.402 2.81435 104.402 1.5076 104.402 0.0751953Z" fill="black"/>
<path d="M124.553 60.8647C123.146 60.8647 121.864 60.8647 120.532 60.8647C120.532 59.4574 120.532 58.1507 120.532 56.7686C121.889 56.7686 123.171 56.7686 124.553 56.7686C124.553 58.1256 124.553 59.4826 124.553 60.8647Z" fill="black"/>
<path d="M80.1306 97.454C80.1306 98.7105 80.1306 99.9419 80.1306 101.299C78.6984 101.299 77.3919 101.299 75.9849 101.299C75.9849 100.017 75.9849 98.7357 75.9849 97.3535C77.3668 97.3535 78.6984 97.3535 80.0301 97.3535C80.0552 97.3786 80.1055 97.4289 80.1306 97.454Z" fill="black"/>
<path d="M112.492 145.828C113.849 145.828 115.13 145.828 116.512 145.828C116.512 147.185 116.512 148.492 116.512 149.899C115.206 149.899 113.899 149.899 112.492 149.899C112.492 148.592 112.492 147.261 112.492 145.828Z" fill="black"/>
<path d="M48.719 141.959C48.719 140.501 48.719 139.169 48.719 137.787C50.0255 137.787 51.2818 137.787 52.714 137.787C52.714 138.993 52.7642 140.149 52.6888 141.305C52.6637 141.531 52.2617 141.934 52.0105 141.934C50.9552 141.984 49.8748 141.959 48.719 141.959Z" fill="black"/>
<path d="M48.6936 52.6719C50.0253 52.6719 51.2564 52.6719 52.6132 52.6719C52.6132 54.0038 52.6132 55.3105 52.6132 56.7178C51.3569 56.7178 50.0504 56.7178 48.6936 56.7178C48.6936 55.3859 48.6936 54.1043 48.6936 52.6719Z" fill="black"/>
<path d="M67.9192 85.1902C67.9192 83.7578 67.9192 82.4762 67.9192 81.1191C69.3011 81.1191 70.6076 81.1191 72.0147 81.1191C72.0147 82.4762 72.0147 83.7829 72.0147 85.1902C70.6328 85.1902 69.3262 85.1902 67.9192 85.1902Z" fill="black"/>
<path d="M124.578 125.649C123.146 125.649 121.864 125.649 120.532 125.649C120.532 124.267 120.532 122.96 120.532 121.553C121.889 121.553 123.196 121.553 124.578 121.553C124.578 122.91 124.578 124.216 124.578 125.649Z" fill="black"/>
<path d="M20.3012 20.2796C16.2309 20.2796 12.261 20.2796 8.19067 20.2796C8.19067 16.2588 8.19067 12.2632 8.19067 8.16699C12.1856 8.16699 16.2058 8.16699 20.3012 8.16699C20.3012 12.1878 20.3012 16.1583 20.3012 20.2796Z" fill="black"/>
<path d="M8.16626 141.883C8.16626 137.837 8.16626 133.841 8.16626 129.745C12.1612 129.745 16.1562 129.745 20.2517 129.745C20.2517 133.766 20.2517 137.787 20.2517 141.883C16.2316 141.883 12.2366 141.883 8.16626 141.883Z" fill="black"/>
<path d="M140.859 8.16699C140.859 12.238 140.859 16.2085 140.859 20.2544C136.814 20.2544 132.819 20.2544 128.723 20.2544C128.723 16.2588 128.723 12.2632 128.723 8.16699C132.743 8.16699 136.738 8.16699 140.859 8.16699Z" fill="black"/>
</svg>
