<svg width="24" height="24" viewBox="0 0 24 24" fill="none" xmlns="http://www.w3.org/2000/svg">
<path d="M7.28969 15.4727L7.28966 15.4727L7.29586 15.4762C8.34129 16.0611 9.5988 15.8978 10.7776 15.1884C10.7777 15.1883 10.7778 15.1883 10.7778 15.1882L11.9985 14.4559L13.2232 15.1889L13.2236 15.1891C14.014 15.6611 14.7217 15.8298 15.32 15.8298C15.9432 15.8298 16.429 15.6383 16.7314 15.462C17.7391 14.877 18.25 13.7306 18.25 12.4198V3.53983C18.25 3.16069 18.6487 2.93051 18.9492 3.07842L18.9514 3.0795C20.5516 3.85753 21.5 5.4655 21.5 7.80983V16.1898C21.5 19.1237 19.1239 21.4998 16.19 21.4998H7.81C4.87614 21.4998 2.5 19.1237 2.5 16.1898V7.80983C2.5 5.46563 3.44825 3.85771 5.04836 3.07963C5.36002 2.92872 5.75 3.16073 5.75 3.53983V12.4198C5.75 13.7334 6.26288 14.8788 7.28969 15.4727Z" fill="#FFD263" stroke="#FFD263"/>
<path d="M15.4805 13.2967L15.4805 13.2967L15.4765 13.299C15.4413 13.3198 15.3529 13.3494 15.1752 13.3178C14.9992 13.2864 14.7717 13.1999 14.5072 13.0413L14.5068 13.041L13.1897 12.2527C13.1892 12.2524 13.1886 12.2521 13.188 12.2517C12.8366 12.0386 12.4041 11.9475 12 11.9475C11.5959 11.9475 11.1634 12.0386 10.812 12.2517C10.8114 12.2521 10.8108 12.2524 10.8103 12.2527L9.49323 13.041L9.49275 13.0413C9.23055 13.1986 9.0037 13.283 8.82714 13.3136C8.65268 13.3438 8.5584 13.3172 8.51676 13.2951C8.426 13.2401 8.25 13.002 8.25 12.42V3C8.25 2.72614 8.47614 2.5 8.75 2.5H15.25C15.5239 2.5 15.75 2.72614 15.75 3V12.42C15.75 13.0079 15.5704 13.2449 15.4805 13.2967Z" fill="#FFD263" stroke="#FFD263"/>
</svg>
