<svg width="24" height="24" viewBox="0 0 24 24" fill="none" xmlns="http://www.w3.org/2000/svg">
<path d="M15.7913 2.00092C16.17 2.02461 16.4623 2.34923 16.4522 2.73508V3.76997C19.4609 4.06186 21 5.72477 21 8.71446V16.9848C21 20.3106 19.1043 22 15.3739 22H8.62609C4.89565 22 3 20.3106 3 16.9848V8.71446C3 6.72428 3.67826 5.30019 5.06957 4.46874L5.16716 4.41312C5.36884 4.31898 5.6054 4.32761 5.80202 4.44176C6.0314 4.57494 6.16687 4.82876 6.15169 5.09698C6.13652 5.3652 5.97333 5.60155 5.73043 5.70708C4.8087 6.25548 4.37391 7.21077 4.37391 8.71446V8.97981H17.0609C17.4403 8.97981 17.7478 9.29266 17.7478 9.67859C17.7478 10.0645 17.4403 10.3774 17.0609 10.3774H4.37391V16.9848C4.37391 19.5233 5.6087 20.5759 8.62609 20.5936H15.3739C18.3478 20.5936 19.6174 19.5145 19.6174 16.9759V8.70561C19.6174 6.4943 18.6522 5.42403 16.4522 5.16752V5.83975C16.4014 6.19806 16.093 6.45964 15.7374 6.44599C15.3818 6.43234 15.0936 6.14786 15.0696 5.78668V2.67316L15.0823 2.56256C15.1106 2.41762 15.1836 2.2845 15.2921 2.18341C15.4278 2.05706 15.6076 1.99132 15.7913 2.00092ZM16.187 16.197L16.2977 16.2041C16.4876 16.2279 16.6656 16.315 16.8031 16.4534C16.9681 16.6196 17.0609 16.8459 17.0609 17.082C17.0609 17.5706 16.6716 17.9666 16.1913 17.9666C15.7111 17.9666 15.3217 17.5706 15.3217 17.082C15.3217 16.5935 15.7111 16.1975 16.1913 16.1975L16.187 16.197ZM12.0174 16.1975L12.1265 16.2044C12.5552 16.259 12.887 16.6311 12.887 17.082C12.887 17.5706 12.4976 17.9666 12.0174 17.9666C11.5371 17.9666 11.1478 17.5706 11.1478 17.082C11.1478 16.5935 11.5371 16.1975 12.0174 16.1975ZM7.848 16.197L7.95859 16.2041C8.14845 16.2279 8.32652 16.315 8.46398 16.4534C8.62894 16.6196 8.72174 16.8459 8.72174 17.082C8.72174 17.5706 8.33242 17.9666 7.85217 17.9666C7.37193 17.9666 6.98261 17.5706 6.98261 17.082C6.98261 16.5935 7.37193 16.1975 7.85217 16.1975L7.848 16.197ZM16.187 12.615L16.2977 12.6218C16.4876 12.6456 16.6656 12.7327 16.8031 12.8711C16.9681 13.0373 17.0609 13.2636 17.0609 13.4997C17.0609 13.9882 16.6716 14.3843 16.1913 14.3843C15.7111 14.3843 15.3217 13.9882 15.3217 13.4997C15.3217 13.0112 15.7111 12.6152 16.1913 12.6152L16.187 12.615ZM12.0174 12.6152L12.1265 12.6221C12.5552 12.6767 12.887 13.0488 12.887 13.4997C12.887 13.9882 12.4976 14.3843 12.0174 14.3843C11.5371 14.3843 11.1478 13.9882 11.1478 13.4997C11.1478 13.0112 11.5371 12.6152 12.0174 12.6152ZM7.848 12.615L7.95859 12.6218C8.14845 12.6456 8.32652 12.7327 8.46398 12.8711C8.62894 13.0373 8.72174 13.2636 8.72174 13.4997C8.72174 13.9882 8.33242 14.3843 7.85217 14.3843C7.37193 14.3843 6.98261 13.9882 6.98261 13.4997C6.98261 13.0112 7.37193 12.6152 7.85217 12.6152L7.848 12.615ZM8.23913 2.10645C8.59328 2.10645 8.8909 2.37709 8.93043 2.73508V3.69921H12.8609C13.2403 3.69921 13.5478 4.01206 13.5478 4.39798C13.5478 4.7839 13.2403 5.09675 12.8609 5.09675H8.91304V5.79553C8.91306 5.9824 8.83949 6.16149 8.70877 6.29279C8.57806 6.42409 8.40109 6.49667 8.21739 6.4943L8.11694 6.48427C7.78964 6.42674 7.54338 6.13445 7.54777 5.78668V2.73508L7.56718 2.63048C7.64745 2.32566 7.9204 2.10645 8.23913 2.10645Z" fill="black"/>
</svg>
