<svg width="20" height="20" viewBox="0 0 20 20" fill="none" xmlns="http://www.w3.org/2000/svg">
<path d="M16.7952 13.3105L18.2653 13.3018C18.5455 13.3001 18.774 13.5259 18.7757 13.8062L18.7932 16.7253C18.7948 17.0055 18.569 17.234 18.2888 17.2357L16.8186 17.2445C16.5384 17.2462 16.3099 17.0204 16.3082 16.7401L16.2908 13.821C16.2891 13.5407 16.5149 13.3123 16.7952 13.3105Z" fill="#2F4859"/>
<path d="M1.83501 13.3994L3.30513 13.3906C3.58534 13.389 3.81388 13.6148 3.81559 13.895L3.83295 16.8142C3.8346 17.0944 3.60882 17.3229 3.32856 17.3247L1.85844 17.3334C1.57823 17.3351 1.34969 17.1093 1.34798 16.829L1.33058 13.9099C1.32892 13.6297 1.55475 13.4011 1.83501 13.3994Z" fill="#2F4859"/>
<path d="M18.4663 6.20076C18.3435 6.21234 18.2501 6.31613 18.2514 6.43943C18.2816 6.68011 18.1274 6.90549 17.8921 6.96448L17.5264 6.96674L17.7142 7.51487C17.7142 7.51487 20.0689 7.50072 19.9984 6.72732C19.9439 6.12707 18.9218 6.15706 18.4663 6.20076Z" fill="#2F4859"/>
<path d="M1.53372 6.20076C1.65652 6.21234 1.74992 6.31613 1.74862 6.43943C1.71837 6.68011 1.87262 6.90549 2.10788 6.96448L2.47362 6.96674L2.28581 7.51487C2.28581 7.51487 -0.0688796 7.50072 0.00154896 6.72732C0.0561261 6.12707 1.07814 6.15706 1.53372 6.20076Z" fill="#2F4859"/>
<path d="M19.4736 10.7936C19.4296 10.2184 19.2633 9.65926 18.9857 9.15352L17.9932 7.33326C17.9932 7.33326 16.2308 3.36077 15.4966 3.04464C14.7867 2.73895 10.2554 2.67023 9.95519 2.66602H9.93859C9.63836 2.67394 5.10831 2.79679 4.40217 3.11091C3.6717 3.43571 1.95588 7.42827 1.95588 7.42827L0.985986 9.26041C0.714655 9.76942 0.555037 10.3304 0.517766 10.906C0.449545 12.1774 0.58654 13.4516 0.923433 14.6795C1.08215 15.2586 1.61101 15.6581 2.21146 15.6524L10.0157 15.6073H10.0323L17.8366 15.5609C18.437 15.5592 18.9609 15.1534 19.1127 14.5726C19.4353 13.3405 19.5571 12.0645 19.4736 10.7936Z" fill="#FE7058"/>
<path d="M6.20425 13.1543L13.8094 13.1089C13.9455 13.1081 14.0564 13.2177 14.0572 13.3538L14.065 14.6487C14.0658 14.7848 13.9561 14.8958 13.8201 14.8966L6.21493 14.942C6.07884 14.9428 5.96788 14.8331 5.96708 14.6971L5.95935 13.4021C5.95855 13.2661 6.06821 13.1551 6.20425 13.1543Z" fill="#3A556A"/>
<path d="M15.6392 3.64383C15.5598 3.47092 15.3885 3.35861 15.1983 3.35474L9.99804 3.24805H9.98168L4.78296 3.41679C4.5929 3.42301 4.42305 3.53729 4.34574 3.71105L2.854 7.06644L10.0037 7.02375H10.0201L17.1708 6.98106L15.6392 3.64383Z" fill="#2F4859"/>
<path d="M17.3318 12.8902C16.8306 12.8931 16.4265 13.3017 16.4295 13.803C16.4324 14.3043 16.841 14.7083 17.3423 14.7054C17.8436 14.7025 18.2476 14.2938 18.2447 13.7925C18.2447 13.7924 18.2447 13.7922 18.2447 13.7921C18.2415 13.291 17.8329 12.8872 17.3318 12.8902Z" fill="#EBF0F3"/>
<path d="M2.75749 12.9771C2.25621 12.9801 1.8523 13.3889 1.85536 13.8902C1.85837 14.3915 2.2672 14.7954 2.76848 14.7923C3.26975 14.7893 3.67361 14.3805 3.6706 13.8792C3.66754 13.378 3.25877 12.9741 2.75749 12.9771Z" fill="#EBF0F3"/>
<path d="M6.60193 10.8521H13.2214V11.6783H6.60193V10.8521Z" fill="#3A556A"/>
<path d="M18.6055 9.55297C18.5836 9.35959 18.4091 9.22059 18.2158 9.24251C18.2007 9.24421 18.1858 9.24687 18.171 9.25053L15.1439 9.99069C15.053 10.013 14.9747 10.0706 14.9263 10.1507L14.3266 11.1432C14.2262 11.3096 14.2795 11.5258 14.4459 11.6263C14.5007 11.6595 14.5637 11.677 14.6278 11.677H17.5854C17.6546 11.6775 17.7224 11.6577 17.7804 11.6201C18.4782 11.1581 18.6965 10.4383 18.6055 9.55297Z" fill="#E1E6E9"/>
<path d="M17.1708 9.83405C16.8048 9.849 16.5202 10.1579 16.5352 10.5238C16.5502 10.8898 16.859 11.1744 17.225 11.1594C17.591 11.1445 17.8755 10.8357 17.8606 10.4697C17.8455 10.1038 17.5368 9.8192 17.1708 9.83405Z" fill="#BDBEC1"/>
<path d="M15.7657 10.4667C15.4873 10.4779 15.2707 10.7127 15.2819 10.991C15.2931 11.2694 15.5279 11.486 15.8062 11.4748C16.0846 11.4636 16.3012 11.2288 16.29 10.9505C16.29 10.9503 16.29 10.9502 16.29 10.9501C16.2786 10.6719 16.0439 10.4555 15.7657 10.4667Z" fill="#BDBEC1"/>
<path d="M1.39446 9.55297C1.41633 9.35959 1.59085 9.22059 1.78418 9.24251C1.79923 9.24421 1.81417 9.24687 1.82892 9.25053L4.85605 9.99069C4.94694 10.013 5.02524 10.0706 5.07365 10.1507L5.67335 11.1432C5.77377 11.3096 5.7204 11.5258 5.55406 11.6263C5.49918 11.6595 5.43628 11.677 5.37217 11.677H2.41452C2.34535 11.6775 2.27758 11.6577 2.21949 11.6201C1.52173 11.1581 1.30342 10.4383 1.39446 9.55297Z" fill="#E1E6E9"/>
<path d="M2.82919 9.83405C3.19518 9.849 3.47975 10.1579 3.46475 10.5238C3.44981 10.8898 3.14095 11.1744 2.77497 11.1594C2.40903 11.1445 2.12445 10.8357 2.13935 10.4697C2.15445 10.1038 2.4632 9.8192 2.82919 9.83405Z" fill="#BDBEC1"/>
<path d="M4.23431 10.4667C4.51266 10.4779 4.72927 10.7127 4.71808 10.991C4.70689 11.2694 4.47213 11.486 4.19378 11.4748C3.91543 11.4636 3.69882 11.2288 3.71001 10.9505C3.71001 10.9503 3.71001 10.9502 3.71001 10.9501C3.7214 10.6719 3.95606 10.4555 4.23431 10.4667Z" fill="#BDBEC1"/>
</svg>
