<svg width="24" height="24" viewBox="0 0 24 24" fill="none" xmlns="http://www.w3.org/2000/svg">
<path d="M8.58001 3.06348L21.8175 12.9072C21.0788 13.9047 21.285 15.3147 22.2825 16.0572L18.7013 20.8685C17.7038 20.1297 16.2938 20.336 15.555 21.3335L2.31376 11.486C3.05626 10.4885 2.84626 9.07848 1.84875 8.33973L5.43 3.52473C6.42751 4.26723 7.83376 4.05723 8.58001 3.06348Z" fill="#65BC6A"/>
<path d="M23.325 14.0248C23.49 14.1485 23.5238 14.3848 23.4 14.5498L22.2825 16.0573C21.285 15.3148 21.0788 13.9048 21.8175 12.9073L23.325 14.0248ZM18.7013 20.8685L17.5838 22.376C17.46 22.541 17.2238 22.5748 17.0588 22.451L15.555 21.3335C16.2938 20.336 17.7038 20.1298 18.7013 20.8685ZM14.0813 9.48725C15.5738 10.601 15.885 12.716 14.775 14.2123C13.6613 15.7085 11.5463 16.016 10.0538 14.906C8.55752 13.7923 8.24627 11.6773 9.35627 10.1848C10.47 8.6885 12.585 8.37725 14.0813 9.48725Z" fill="#398F3E"/>
<path d="M10.4996 14.304C10.5667 14.3539 10.6455 14.3783 10.7231 14.3783C10.8379 14.3783 10.9507 14.3261 11.0242 14.2271L11.3426 13.7989C11.3681 13.8026 11.3921 13.8098 11.418 13.8116C11.4454 13.8135 11.4727 13.8146 11.4997 13.8146C12.0836 13.8146 12.5782 13.3616 12.6214 12.7706C12.6356 12.5734 12.5977 12.3758 12.5115 12.1984C12.4721 12.1174 12.423 12.0413 12.3652 11.9719C12.3439 11.9438 12.3187 11.9183 12.2899 11.8969C12.2096 11.8369 12.1571 11.7495 12.1425 11.6505C12.1279 11.5515 12.1526 11.4525 12.2126 11.3723C12.2722 11.292 12.36 11.2395 12.459 11.2249C12.5587 11.2106 12.657 11.2354 12.7376 11.2954C12.7912 11.3351 12.8317 11.3865 12.858 11.4469C12.8711 11.4773 12.8801 11.5095 12.885 11.5418C12.9154 11.7469 13.1066 11.8875 13.3106 11.8583C13.5154 11.8279 13.6571 11.6378 13.6271 11.4326C13.6129 11.3355 13.5859 11.2406 13.5469 11.1503C13.5199 11.0876 13.4805 11.0321 13.4426 10.9759L13.71 10.6163C13.8337 10.4501 13.7992 10.2154 13.6327 10.0916C13.467 9.96827 13.2319 10.0024 13.1081 10.1689L12.8437 10.5244C12.6855 10.4753 12.5182 10.458 12.3502 10.4831C12.0529 10.527 11.7904 10.6838 11.6111 10.9249C11.2519 11.4083 11.3389 12.0878 11.8001 12.4658C11.8144 12.4849 11.8267 12.5051 11.8372 12.5265C11.8661 12.5861 11.8785 12.6503 11.8736 12.717C11.8586 12.9233 11.6734 13.0793 11.4727 13.0639C11.3726 13.0568 11.2815 13.011 11.2162 12.9353C11.1506 12.8595 11.1184 12.7628 11.1259 12.663C11.1409 12.4564 10.9852 12.2768 10.779 12.2618C10.5645 12.2479 10.3927 12.4024 10.3777 12.6086C10.356 12.9083 10.4524 13.1985 10.6492 13.4258C10.656 13.4336 10.6642 13.4389 10.671 13.4464L10.4235 13.7794C10.2986 13.9459 10.3331 14.1806 10.4996 14.304ZM2.31374 11.4866L12.7462 19.2454H12.7425L2.54624 16.0016C2.92499 14.8166 2.26874 13.5529 1.08374 13.1741L1.49999 11.8654L1.75124 11.0704L2.31374 11.4866Z" fill="#65BC6A"/>
<path d="M12.7425 19.2453L9.07872 18.0791L1.56373 12.4916L1.34998 12.3341L1.49998 11.8653L1.75123 11.0703L2.31373 11.4866L12.7425 19.2453Z" fill="#398F3E"/>
<path d="M13.5938 19.8755H3.75C3.75 18.6342 2.74125 17.6255 1.5 17.6255V15.668L2.54625 16.0017L12.7425 19.2455H12.7463L13.5938 19.8755Z" fill="#65BC6A"/>
<path d="M13.5938 19.8755H11.1862L2.54625 17.1267L1.5 16.793V15.668L2.54625 16.0017L12.7425 19.2455H12.7463L13.5938 19.8755Z" fill="#29752B"/>
<path d="M22.5001 17.625V19.5C22.5001 19.7062 22.3313 19.875 22.1251 19.875H20.9926L21.0976 19.5413L21.6563 17.79C21.9151 17.6812 22.2001 17.625 22.5001 17.625Z" fill="#236823"/>
<path d="M22.5 15.7617V17.6255C22.2 17.6255 21.915 17.6817 21.6562 17.7905L22.1512 16.2342V16.2305L22.2825 16.058L22.5 15.7617Z" fill="#29752B"/>
<path d="M22.1513 16.2334L21.6563 17.7896L21.0975 19.5409C20.8313 19.4546 20.5575 19.4246 20.2913 19.4396C20.0813 19.4509 19.875 19.4921 19.6763 19.5596L22.1513 16.2334Z" fill="#65BC6A"/>
<path d="M21.0975 19.5413L20.9925 19.875L20.5275 21.33C20.4675 21.525 20.2538 21.6337 20.0588 21.5737L18.54 21.09L18.7013 20.8688L19.6763 19.56C19.875 19.4925 20.0813 19.4513 20.2913 19.44C20.5575 19.425 20.8313 19.455 21.0975 19.5413ZM22.5 9.75V11.3325L21.7538 11.0925L20.7375 10.77H20.7338C20.43 10.3875 20.25 9.90375 20.25 9.375H22.125C22.3313 9.375 22.5 9.54375 22.5 9.75Z" fill="#398F3E"/>
<path d="M20.7337 10.77L17.6099 9.77625H17.6062L17.0699 9.375H20.2499C20.2499 9.90375 20.4299 10.3875 20.7337 10.77Z" fill="#65BC6A"/>
<path d="M4.00126 5.44473L3.20251 6.52098V6.51723L3.58501 5.31348L4.00126 5.44473Z" fill="#398F3E"/>
<path d="M3.74994 19.875H1.87494C1.66869 19.875 1.49994 19.7063 1.49994 19.5V17.625C2.74119 17.625 3.74994 18.6338 3.74994 19.875ZM1.08369 13.1738C2.26869 13.5525 2.92494 14.8163 2.54619 16.0013L1.49994 15.6675L0.757439 15.4313C0.562439 15.3713 0.453689 15.1575 0.513689 14.9625L1.08369 13.1738ZM8.57994 3.06001V3.06376C7.83369 4.05751 6.42744 4.26751 5.42994 3.52501L6.55119 2.02126C6.67119 1.85251 6.90744 1.81876 7.07244 1.94251L8.57994 3.06001ZM1.84869 8.34001C2.84619 9.07876 3.05619 10.4888 2.31369 11.4863L0.809939 10.3688C0.641189 10.245 0.607439 10.0088 0.731189 9.84376L1.84869 8.34001Z" fill="#398F3E"/>
<path d="M21.7425 11.1264C21.5812 11.5651 21.555 12.2664 21.6562 12.7839L17.61 9.77637L20.7337 10.7701H20.7375L21.7537 11.0926L21.7425 11.1264Z" fill="#65BC6A"/>
<path d="M21.6563 12.784C21.555 12.2665 21.5813 11.5653 21.7425 11.1265L21.7538 11.0928L22.5 11.3328L23.2425 11.569C23.4375 11.629 23.5463 11.8428 23.4863 12.0378L22.9425 13.7403L21.8175 12.9078L21.6563 12.784ZM22.1513 16.234L21.6563 17.7903L21.0975 19.5415C20.8313 19.4553 20.5575 19.4253 20.2913 19.4403C20.0813 19.4515 19.875 19.4928 19.6763 19.5603L22.1513 16.234Z" fill="#398F3E"/>
<path d="M20.2913 19.4402C20.0813 19.4515 19.875 19.4927 19.6763 19.5602L19.0275 20.434L18.7013 20.869L18.54 21.0902L19.7513 21.4765L20.0588 21.574C20.2538 21.634 20.4675 21.5252 20.5275 21.3302L20.9925 19.8752L21.03 19.7552L21.0975 19.5415C20.8313 19.4552 20.5575 19.4252 20.2913 19.4402Z" fill="#29752B"/>
<path d="M21.1275 10.8934L20.7375 10.7696H20.7338C20.6513 10.6684 20.58 10.5596 20.52 10.4434L21.1275 10.8934Z" fill="#236823"/>
<path d="M20.7337 10.77L17.6099 9.77625H17.6062L17.0699 9.375H19.0837L20.5199 10.4438C20.5799 10.56 20.6512 10.6687 20.7337 10.77Z" fill="#29752B"/>
<path d="M21.6112 11.7451C21.63 11.5914 21.6525 11.4414 21.6862 11.3101L21.1275 10.8939L20.7375 10.7701H20.7337L17.61 9.77637L21.3825 12.5814L21.6562 12.7839C21.5962 12.4726 21.5812 12.0939 21.6112 11.7451Z" fill="#398F3E"/>
<path d="M22.9087 13.7136L22.9837 13.6123L22.9424 13.7398L22.9087 13.7136Z" fill="#398F3E"/>
<path d="M23.3249 12.5246L21.8174 11.4071L21.6862 11.3096C21.6524 11.4408 21.6299 11.5908 21.6112 11.7446C21.5812 12.0933 21.5962 12.4721 21.6562 12.7833L21.8174 12.9071L22.9087 13.7133L22.9837 13.6121L23.3287 12.5283L23.3249 12.5246Z" fill="#29752B"/>
</svg>
