<svg width="60" height="60" viewBox="0 0 60 60" fill="none" xmlns="http://www.w3.org/2000/svg">
<circle cx="30" cy="30" r="29.5" fill="white" stroke="#B3B3B3"/>
<path d="M35.8701 39.8698C35.5601 39.8698 35.2501 39.7898 34.9701 39.6198L30.9601 37.2397C30.5401 37.2297 30.1201 37.1998 29.7201 37.1398C29.4501 37.0998 29.2201 36.9197 29.1201 36.6597C29.0201 36.3997 29.0701 36.1197 29.2501 35.9097C29.9101 35.1397 30.2501 34.2197 30.2501 33.2397C30.2501 30.8197 28.1201 28.8497 25.5001 28.8497C24.5201 28.8497 23.5801 29.1198 22.7901 29.6398C22.5701 29.7798 22.3001 29.7998 22.0601 29.6898C21.8301 29.5798 21.6601 29.3597 21.6301 29.0997C21.6001 28.8197 21.5801 28.5398 21.5801 28.2498C21.5801 23.2898 25.8801 19.2598 31.1601 19.2598C36.4401 19.2598 40.7401 23.2898 40.7401 28.2498C40.7401 30.9698 39.4801 33.4697 37.2601 35.1797L37.6001 37.8998C37.6801 38.5798 37.3801 39.2198 36.8101 39.5898C36.5301 39.7698 36.2001 39.8698 35.8701 39.8698ZM31.1501 35.7297C31.2901 35.7197 31.4301 35.7598 31.5501 35.8398L35.7401 38.3298C35.8501 38.3998 35.9401 38.3698 36.0001 38.3298C36.0501 38.2998 36.1301 38.2198 36.1101 38.0798L35.7201 34.9197C35.6901 34.6397 35.8101 34.3698 36.0301 34.2098C38.0701 32.7798 39.2401 30.5997 39.2401 28.2297C39.2401 24.0997 35.6201 20.7397 31.1601 20.7397C26.8701 20.7397 23.3501 23.8598 23.0901 27.7798C23.8401 27.4898 24.6501 27.3298 25.4901 27.3298C28.9401 27.3298 31.7401 29.9697 31.7401 33.2197C31.7501 34.0997 31.5401 34.9497 31.1501 35.7297Z" fill="#292D32"/>
<path d="M22.5798 40.7498C22.3198 40.7498 22.0698 40.6798 21.8398 40.5298C21.3898 40.2398 21.1498 39.7398 21.2098 39.2098L21.4098 37.6698C20.0598 36.5698 19.2598 34.9398 19.2598 33.2298C19.2598 31.2798 20.2798 29.4598 21.9898 28.3698C23.0198 27.6998 24.2398 27.3398 25.5098 27.3398C28.9598 27.3398 31.7598 29.9798 31.7598 33.2298C31.7598 34.5498 31.2798 35.8498 30.3998 36.8798C29.2698 38.2498 27.5798 39.0498 25.7198 39.1098L23.2798 40.5598C23.0598 40.6898 22.8198 40.7498 22.5798 40.7498ZM25.4998 28.8398C24.5198 28.8398 23.5798 29.1098 22.7898 29.6298C21.5098 30.4498 20.7498 31.7898 20.7498 33.2298C20.7498 34.6198 21.4298 35.8898 22.6298 36.7098C22.8598 36.8698 22.9798 37.1398 22.9498 37.4198L22.7298 39.1298L25.1198 37.7098C25.2398 37.6398 25.3698 37.5998 25.4998 37.5998C26.9698 37.5998 28.3598 36.9698 29.2398 35.8998C29.8998 35.1198 30.2498 34.1998 30.2498 33.2198C30.2498 30.8098 28.1198 28.8398 25.4998 28.8398Z" fill="#292D32"/>
</svg>
