<svg width="30" height="30" viewBox="0 0 30 30" fill="none" xmlns="http://www.w3.org/2000/svg">
<circle cx="15" cy="15" r="15" fill="white"/>
<path d="M10.6933 20.6807C10.2867 20.6807 9.90666 20.5407 9.63332 20.2807C9.28666 19.954 9.11999 19.4607 9.17999 18.9274L9.42666 16.7674C9.47332 16.3607 9.71999 15.8207 10.0067 15.5274L15.48 9.73402C16.8467 8.28735 18.2733 8.24735 19.72 9.61402C21.1667 10.9807 21.2067 12.4074 19.84 13.854L14.3667 19.6474C14.0867 19.9474 13.5667 20.2274 13.16 20.294L11.0133 20.6607C10.9 20.6674 10.8 20.6807 10.6933 20.6807ZM17.62 9.60735C17.1067 9.60735 16.66 9.92735 16.2067 10.4074L10.7333 16.2074C10.6 16.3474 10.4467 16.6807 10.42 16.874L10.1733 19.034C10.1467 19.254 10.2 19.434 10.32 19.5474C10.44 19.6607 10.62 19.7007 10.84 19.6674L12.9867 19.3007C13.18 19.2674 13.5 19.094 13.6333 18.954L19.1067 13.1607C19.9333 12.2807 20.2333 11.4674 19.0267 10.334C18.4933 9.82068 18.0333 9.60735 17.62 9.60735Z" fill="#2D2D2D"/>
<path d="M18.56 14.9672C18.5466 14.9672 18.5266 14.9672 18.5133 14.9672C16.4333 14.7606 14.76 13.1806 14.44 11.1139C14.4 10.8406 14.5866 10.5872 14.86 10.5406C15.1333 10.5006 15.3866 10.6872 15.4333 10.9606C15.6866 12.5739 16.9933 13.8139 18.62 13.9739C18.8933 14.0006 19.0933 14.2472 19.0666 14.5206C19.0333 14.7739 18.8133 14.9672 18.56 14.9672Z" fill="#2D2D2D"/>
</svg>
