<svg width="34" height="34" viewBox="0 0 34 34" fill="none" xmlns="http://www.w3.org/2000/svg">
<path d="M26.5722 8.71547L32.3952 9.13968L32.8194 3.31679L30.8239 3.17142L30.657 5.46237C27.4604 2.00387 22.9591 0 18.1806 0C8.80674 0 1.18066 7.62621 1.18066 17C1.18066 26.3737 8.80688 33.9999 18.1807 33.9999C23.8489 33.9999 29.1274 31.1804 32.3006 26.4576L30.6398 25.3418C27.839 29.5104 23.1814 31.9991 18.1807 31.9991C9.91008 31.9991 3.18148 25.2705 3.18148 17C3.18148 8.72942 9.91008 2.00082 18.1806 2.00082C22.4339 2.00082 26.4383 3.80215 29.2638 6.90544L26.7175 6.71997L26.5722 8.71547Z" fill="#FFA900"/>
<path d="M7.20117 20.5033C7.20117 18.4158 7.59616 17.4453 9.22105 16.7119C10.1802 16.2831 11.1168 15.8768 11.1168 14.929C11.1168 14.3196 10.7331 14.0037 10.1464 14.0037C9.42425 14.0037 8.74717 14.4777 8.34097 14.8952L7.22382 13.699C7.72027 13.1348 8.86 12.4014 10.3946 12.4014C12.1774 12.4014 13.1705 13.3605 13.1705 14.9064C13.1705 16.2153 12.437 16.8247 11.3877 17.3551C10.4737 17.8178 9.83046 18.2352 9.83046 18.8784H13.1818V20.5033H7.20117Z" fill="#666666"/>
<path d="M17.1537 20.4922V18.8108H13.9941V17.1972L17.7179 12.4805H18.9591V17.1972H19.9522V18.8108H18.9591V20.4922H17.1537ZM15.7883 17.1972H17.3568V15.1886L15.7883 17.1972Z" fill="#666666"/>
<path d="M26.6999 20.5035H24.8944V17.1747C24.8944 16.4074 24.556 16.0576 24.0369 16.0576C23.6081 16.0576 23.01 16.4751 22.7843 17.107V20.5035H20.979V12.2661H22.7845V15.5723C23.2133 14.8727 23.9693 14.4665 24.8382 14.4665C26.4292 14.4665 26.7 15.6851 26.7 16.712L26.6999 20.5035Z" fill="#666666"/>
<path d="M32.3005 26.4576L30.6397 25.3418C27.839 29.5104 23.1814 31.9991 18.1807 31.9991V34C23.849 34 29.1274 31.1804 32.3005 26.4576Z" fill="#FF8800"/>
<path d="M26.5723 8.71547L32.3952 9.13967L32.8194 3.31679L30.8239 3.17142L30.657 5.46237C27.4604 2.00387 22.9591 0 18.1807 0V2.00082C22.434 2.00082 26.4383 3.80215 29.2638 6.90544L26.7176 6.71997L26.5723 8.71547Z" fill="#FF8800"/>
</svg>
