<svg width="34" height="34" viewBox="0 0 34 34" fill="none" xmlns="http://www.w3.org/2000/svg">
<g clip-path="url(#clip0_648_5687)">
<path d="M8.92344 27.1858H12.1112L13.4081 22.1455L15.3375 22.642C15.3253 22.6893 13.8401 28.4618 13.6558 29.1782C10.9799 29.1782 4.98071 29.1782 4.98071 29.1782V27.1859C4.98065 27.1858 7.02433 27.1858 8.92344 27.1858Z" fill="#99BBFF"/>
<path d="M32.0141 21.7901L26.2258 20.3008L28.2117 12.583L34 14.0724L32.0141 21.7901Z" fill="#485866"/>
<path d="M26.2292 20.2822L27.2214 16.4212L33.013 17.9094L32.0208 21.7705L26.2292 20.2822Z" fill="#363D4D"/>
<path d="M17.0187 24.1029L11.2305 22.6135L12.7198 16.8252L18.5081 18.3146L17.0187 24.1029Z" fill="#363D4D"/>
<path d="M27.6588 22.7266L2.57617 16.2726L4.31377 9.51953L27.1003 10.2398L30.6376 11.15L27.6588 22.7266Z" fill="#E6F2FF"/>
<path d="M21.4305 14.9523L4.06567 10.4841L6.54799 0.836914L32.4684 7.50661L25.3375 13.9004L21.927 13.0229L21.4305 14.9523Z" fill="#485866"/>
<path d="M2.57568 16.2646L4.06392 10.4731L29.1607 16.9221L27.6724 22.7137L2.57568 16.2646Z" fill="#CCDDFF"/>
<path d="M8.91895 7.6123L9.41502 5.68178L11.3455 6.17786L10.8495 8.10838L8.91895 7.6123Z" fill="#4596E6"/>
<path d="M12.7776 8.60303L13.2737 6.67251L15.2042 7.16859L14.7081 9.09911L12.7776 8.60303Z" fill="#4596E6"/>
<path d="M16.6362 9.59326L17.1323 7.66274L19.0628 8.15882L18.5667 10.0893L16.6362 9.59326Z" fill="#4596E6"/>
<path d="M5.97684 33.1626H0V23.2012H5.97684V33.1626Z" fill="#363D4D"/>
</g>
<defs>
<clipPath id="clip0_648_5687">
<rect width="34" height="34" fill="white"/>
</clipPath>
</defs>
</svg>
