<svg width="34" height="34" viewBox="0 0 34 34" fill="none" xmlns="http://www.w3.org/2000/svg">
<path d="M34 17C34 21.5407 32.232 25.81 29.0207 29.0207C25.826 32.216 21.5827 33.9827 17.0667 33.9993V31.9993C25.3073 31.964 32 25.2493 32 17C32 15.3973 31.7487 13.82 31.2533 12.312L33.1533 11.688C33.7153 13.3973 34 15.1847 34 17Z" fill="#38336B"/>
<path d="M17.0666 31.9993V33.9993C17.0446 34 17.0219 34 16.9999 34C14.3219 34 11.7593 33.3947 9.38192 32.2013C7.90792 31.4613 6.53859 30.4967 5.33325 29.36V32H3.33325V26H9.66659V28H6.79859C9.55259 30.5653 13.1573 32 16.9999 32C17.0219 32 17.0446 32 17.0666 31.9993Z" fill="#6B61B1"/>
<path d="M30.6666 1.99982V7.99982H24.3333V5.99982H27.198C24.4546 3.45315 20.86 2.01649 17.0667 2.00049V0.000488281C21.42 0.0164883 25.5433 1.68382 28.6666 4.63582V1.99982H30.6666Z" fill="#38336B"/>
<path d="M17.0667 0.000666667V2.00067C17.0447 2 17.022 2 17 2C8.72867 2 2 8.72867 2 17C2 18.716 2.28733 20.398 2.85333 22L0.967333 22.6667C0.325333 20.85 0 18.9433 0 17C0 12.4593 1.768 8.19 4.97933 4.97933C8.19 1.768 12.4593 0 17 0C17.022 0 17.0447 0 17.0667 0.000666667Z" fill="#6B61B1"/>
<path d="M16 7V9.04867C13.7413 9.37267 12 11.32 12 13.6667C12 15.5 13.242 17.0913 15.0213 17.536L16 17.7807V22.9153C14.8513 22.6187 14 21.5733 14 20.3333H12C12 22.68 13.7413 24.6273 16 24.9513V27H17.0667V7H16ZM16 15.7193L15.506 15.596C14.6193 15.374 14 14.5807 14 13.6667C14 12.4267 14.8513 11.3813 16 11.0847V15.7193Z" fill="#53CB8A"/>
<path d="M18.9787 16.464L18 16.2193V11.0847C19.1487 11.3813 20 12.4267 20 13.6667H22C22 11.32 20.2587 9.37267 18 9.04867V7H17.0667V27H18V24.9513C20.2587 24.6273 22 22.68 22 20.3333C22 18.5 20.758 16.9087 18.9787 16.464ZM18 22.9153V18.2807L18.494 18.404C19.3807 18.626 20 19.4193 20 20.3333C20 21.5733 19.1487 22.6187 18 22.9153Z" fill="#19968C"/>
</svg>
