<svg width="34" height="34" viewBox="0 0 34 34" fill="none" xmlns="http://www.w3.org/2000/svg">
<path d="M25.1743 15.0073V33.0037H26.1704L26.7102 24.9138L26.1704 15.0073H25.1743Z" fill="#F9FCFE"/>
<path d="M26.1704 15.0073H27.1665V33.0037H26.1704V15.0073Z" fill="#EBF4FB"/>
<path d="M16.1498 19.37H13.9686L9.82992 13.1997H0V29.5785H21.673V25.3983L21.1471 24.5932C21.1471 24.078 21.6021 23.879 21.4695 23.4056C20.8185 21.0803 18.6801 19.37 16.1498 19.37ZM1.99219 15.1918H8.76735L11.5698 19.3699H1.99219V15.1918Z" fill="#FD5E81"/>
<path d="M18.1151 0V15.8849H26.1703L27.5505 8.27541L26.1703 0H18.1151Z" fill="#4B5F90"/>
<path d="M21.468 23.4062H18.2136V25.3984H21.673V24.8934C21.673 24.378 21.6005 23.8797 21.468 23.4062Z" fill="#FDDF5B"/>
<path d="M26.1704 0H34V15.8849H26.1704V0Z" fill="#263968"/>
<path d="M24.995 7.20856V5.32422H26.1703L27.4496 4.30907L26.1703 3.33203H23.0028V12.5527H24.995V9.20075H26.1703L27.0463 8.17457L26.1703 7.20856H24.995Z" fill="#F9FCFE"/>
<path d="M27.5816 3.33203H26.1704V5.32422H27.5816C28.1011 5.32422 28.5238 5.74689 28.5238 6.26639C28.5238 6.78589 28.1012 7.20856 27.5816 7.20856H26.1704V9.20075H27.5816C29.1996 9.20075 30.516 7.88438 30.516 6.26639C30.516 4.6484 29.1997 3.33203 27.5816 3.33203Z" fill="#D4E5FD"/>
<path d="M0 32.0078V34H17L18.5884 33.014L17 32.0078H0Z" fill="#D7E9FE"/>
<path d="M17 32.0078H34V34H17V32.0078Z" fill="#C8D2E9"/>
<path d="M11.4311 34C8.92802 34 6.8916 31.9635 6.8916 29.4604C6.8916 26.9573 8.92802 24.9209 11.4311 24.9209C13.9343 24.9209 15.9707 26.9573 15.9707 29.4604C15.9707 31.9635 13.9343 34 11.4311 34Z" fill="#E4336D"/>
</svg>
