<svg width="34" height="34" viewBox="0 0 34 34" fill="none" xmlns="http://www.w3.org/2000/svg">
<path d="M23.9492 7.45195H10.0507L7.47278 2.10645H26.5271L23.9492 7.45195Z" fill="#D7D7D7"/>
<path d="M23.9493 7.45195H17V2.10645H26.5272L23.9493 7.45195Z" fill="#B0B0B0"/>
<path d="M18.1086 8.4917H15.8912V12.2775H18.1086V8.4917Z" fill="#C2E2FD"/>
<path d="M18.1087 8.4917H17V12.2775H18.1087V8.4917Z" fill="#67B5F8"/>
<path d="M11.2356 11.5504L13.3143 12.3223L14.6321 8.77325L12.5534 8.0014L11.2356 11.5504Z" fill="#C2E2FD"/>
<path d="M19.3677 8.77227L20.6854 12.3213L22.7641 11.5494L21.4464 8.00043L19.3677 8.77227Z" fill="#67B5F8"/>
<path d="M8.59649 33.3204H5.50396C4.71173 33.3204 4.06958 32.6783 4.06958 31.8861V29.2688C4.06958 28.4766 4.71173 27.8345 5.50396 27.8345H8.59649C9.38872 27.8345 10.0309 28.4767 10.0309 29.2688V31.8861C10.0308 32.6783 9.38859 33.3204 8.59649 33.3204Z" fill="#444444"/>
<path d="M28.4962 33.3204H25.4036C24.6114 33.3204 23.9692 32.6783 23.9692 31.8861V29.2688C23.9692 28.4766 24.6115 27.8345 25.4036 27.8345H28.4962C29.2884 27.8345 29.9305 28.4767 29.9305 29.2688V31.8861C29.9305 32.6783 29.2884 33.3204 28.4962 33.3204Z" fill="#282828"/>
<path d="M6.88243 21.635H4.43954L3.53868 20.0286C3.21608 19.4533 3.22238 18.7701 3.55574 18.201C3.8891 17.6317 4.48198 17.292 5.14146 17.292H7.80136V19.0786L6.88243 21.635Z" fill="#6F6F6F"/>
<path d="M29.5604 21.6354H27.1175L26.1985 19.0791V17.2925H28.8584C29.518 17.2925 30.1107 17.6323 30.4441 18.2014C30.7775 18.7706 30.7839 19.4538 30.4612 20.0291L29.5604 21.6354Z" fill="#444444"/>
<path d="M27.7455 19.8486L25.4905 13.5762H8.50931L6.25429 19.8486H4.06946V29.6212H29.9304V19.8486H27.7455Z" fill="#BF0F36"/>
<path d="M29.9305 19.8486H27.7456L25.4906 13.5762H17V29.6212H29.9305V19.8486Z" fill="#9D092B"/>
<path d="M9.7657 15.3628H24.2344L25.8472 19.8486H8.15295L9.7657 15.3628Z" fill="#C2E2FD"/>
<path d="M9.79569 26.2369C10.7599 26.2369 11.5416 25.4552 11.5416 24.491C11.5416 23.5268 10.7599 22.7451 9.79569 22.7451C8.83146 22.7451 8.0498 23.5268 8.0498 24.491C8.0498 25.4552 8.83146 26.2369 9.79569 26.2369Z" fill="#F4DA49"/>
<path d="M24.2035 26.2369C25.1678 26.2369 25.9494 25.4552 25.9494 24.491C25.9494 23.5268 25.1678 22.7451 24.2035 22.7451C23.2393 22.7451 22.4576 23.5268 22.4576 24.491C22.4576 25.4552 23.2393 26.2369 24.2035 26.2369Z" fill="#E69824"/>
<path d="M24.2344 15.3628H17V19.8486H25.8471L24.2344 15.3628Z" fill="#67B5F8"/>
<path d="M34 33.4455H31.7826V2.77157H2.21737V33.4455H0V0.554199H34V33.4455Z" fill="#F4DA49"/>
</svg>
