<svg width="24" height="24" viewBox="0 0 24 24" fill="none" xmlns="http://www.w3.org/2000/svg">
<path d="M17.419 24.0001C17.2513 24.0001 17.0797 23.9772 16.91 23.9282L1.47713 19.4171C0.419198 19.099 -0.211571 17.9029 0.0658875 16.7482L2.01308 8.82637C2.08494 8.53551 2.35841 8.36666 2.62389 8.44074C2.89037 8.51808 3.04806 8.81766 2.9772 9.10743L1.031 17.0271C0.892274 17.6044 1.20965 18.2058 1.73962 18.3659L17.1665 22.8748C17.6965 23.0273 18.2434 22.6831 18.3811 22.1079L19.1606 18.9553C19.2325 18.6644 19.5059 18.4912 19.7724 18.5707C20.0389 18.6491 20.1956 18.9487 20.1247 19.2385L19.3462 22.3867C19.1117 23.3563 18.3033 24.0001 17.419 24.0001Z" fill="#2D2D2D"/>
<path d="M21.9571 17.464H5.98829C4.88744 17.464 3.99219 16.4868 3.99219 15.2852V2.2129C3.99219 1.01134 4.88744 0.0341797 5.98829 0.0341797H21.9571C23.0579 0.0341797 23.9532 1.01134 23.9532 2.2129V15.2852C23.9532 16.4868 23.0579 17.464 21.9571 17.464ZM5.98829 1.12354C5.43836 1.12354 4.99024 1.61266 4.99024 2.2129V15.2852C4.99024 15.8855 5.43836 16.3746 5.98829 16.3746H21.9571C22.507 16.3746 22.9552 15.8855 22.9552 15.2852V2.2129C22.9552 1.61266 22.507 1.12354 21.9571 1.12354H5.98829Z" fill="#2D2D2D"/>
<path d="M8.98243 7.65969C7.88158 7.65969 6.98633 6.68254 6.98633 5.48097C6.98633 4.2794 7.88158 3.30225 8.98243 3.30225C10.0833 3.30225 10.9785 4.2794 10.9785 5.48097C10.9785 6.68254 10.0833 7.65969 8.98243 7.65969ZM8.98243 4.39161C8.4325 4.39161 7.98438 4.88073 7.98438 5.48097C7.98438 6.08121 8.4325 6.57033 8.98243 6.57033C9.53236 6.57033 9.98048 6.08121 9.98048 5.48097C9.98048 4.88073 9.53236 4.39161 8.98243 4.39161Z" fill="#2D2D2D"/>
<path d="M4.56104 16.2983C4.43329 16.2983 4.30554 16.2449 4.20773 16.1392C4.01311 15.9268 4.01311 15.5815 4.20773 15.3691L8.92153 10.224C9.48642 9.60743 10.4735 9.60743 11.0384 10.224L12.4417 11.7557L16.3261 6.66833C16.6085 6.29904 17.0237 6.08444 17.4658 6.08008H17.4768C17.914 6.08008 18.3282 6.28706 18.6136 6.64981L23.8334 13.2971C24.013 13.5248 23.9891 13.869 23.7795 14.0651C23.5709 14.2612 23.2565 14.2361 23.0759 14.0063L17.8561 7.35899C17.7593 7.23698 17.6255 7.16944 17.4768 7.16944C17.373 7.15964 17.1904 7.23807 17.0936 7.36552L12.8588 12.9115C12.769 13.0291 12.6383 13.0999 12.4975 13.1065C12.3558 13.1174 12.2211 13.0564 12.1223 12.9474L10.3328 10.9942C10.1441 10.7894 9.81578 10.7894 9.62715 10.9942L4.91335 16.1392C4.81654 16.2449 4.68879 16.2983 4.56104 16.2983Z" fill="#2D2D2D"/>
</svg>
