<svg width="30" height="30" viewBox="0 0 30 30" fill="none" xmlns="http://www.w3.org/2000/svg">
<circle cx="15" cy="15" r="15" fill="white"/>
<path d="M18.4933 22.1663H11.5066C9.63995 22.1663 8.45329 21.053 8.34662 19.193L7.99995 13.693C7.94662 12.8597 8.23329 12.0597 8.80662 11.453C9.37329 10.8463 10.1733 10.4997 11 10.4997C11.2133 10.4997 11.42 10.373 11.52 10.173L12 9.21967C12.3933 8.43967 13.38 7.83301 14.24 7.83301H15.7666C16.6266 7.83301 17.6066 8.43967 18 9.21301L18.48 10.1863C18.58 10.373 18.78 10.4997 19 10.4997C19.8266 10.4997 20.6266 10.8463 21.1933 11.453C21.7666 12.0663 22.0533 12.8597 22 13.693L21.6533 19.1997C21.5333 21.0863 20.38 22.1663 18.4933 22.1663ZM14.24 8.83301C13.7466 8.83301 13.12 9.21967 12.8933 9.66634L12.4133 10.6263C12.1333 11.1663 11.5933 11.4997 11 11.4997C10.44 11.4997 9.91995 11.7263 9.53329 12.133C9.15329 12.5397 8.95995 13.073 8.99995 13.6263L9.34662 19.133C9.42662 20.4797 10.1533 21.1663 11.5066 21.1663H18.4933C19.84 21.1663 20.5666 20.4797 20.6533 19.133L21 13.6263C21.0333 13.073 20.8466 12.5397 20.4666 12.133C20.08 11.7263 19.56 11.4997 19 11.4997C18.4066 11.4997 17.8666 11.1663 17.5866 10.6397L17.1 9.66634C16.88 9.22634 16.2533 8.83967 15.76 8.83967H14.24V8.83301Z" fill="#2D2D2D"/>
<path d="M16 12.833H14C13.7267 12.833 13.5 12.6063 13.5 12.333C13.5 12.0597 13.7267 11.833 14 11.833H16C16.2733 11.833 16.5 12.0597 16.5 12.333C16.5 12.6063 16.2733 12.833 16 12.833Z" fill="#2D2D2D"/>
<path d="M15 19.5003C13.5267 19.5003 12.3334 18.307 12.3334 16.8337C12.3334 15.3603 13.5267 14.167 15 14.167C16.4734 14.167 17.6667 15.3603 17.6667 16.8337C17.6667 18.307 16.4734 19.5003 15 19.5003ZM15 15.167C14.08 15.167 13.3334 15.9137 13.3334 16.8337C13.3334 17.7537 14.08 18.5003 15 18.5003C15.92 18.5003 16.6667 17.7537 16.6667 16.8337C16.6667 15.9137 15.92 15.167 15 15.167Z" fill="#2D2D2D"/>
</svg>
