<?xml version="1.0" standalone="no"?>
<!DOCTYPE svg PUBLIC "-//W3C//DTD SVG 20010904//EN"
 "http://www.w3.org/TR/2001/REC-SVG-20010904/DTD/svg10.dtd">
<svg version="1.0" xmlns="http://www.w3.org/2000/svg"
 width="914.000000pt" height="837.000000pt" viewBox="0 0 914.000000 837.000000"
 preserveAspectRatio="xMidYMid meet">

<g transform="translate(0.000000,837.000000) scale(0.100000,-0.100000)"
fill="#000000" stroke="none">
<path d="M70 8277 c-34 -17 -52 -55 -47 -102 3 -22 296 -834 653 -1804 571
-1551 652 -1766 677 -1785 l28 -21 953 0 c1040 0 991 -3 1022 57 8 15 14 34
14 43 0 9 -153 432 -340 941 -187 509 -340 927 -340 930 0 2 777 4 1728 4
1891 0 1810 2 1996 -60 441 -147 773 -523 863 -977 23 -120 23 -356 -1 -478
-87 -444 -427 -828 -864 -974 -175 -59 11 -54 -2475 -60 l-2279 -6 -29 -33
c-18 -21 -29 -43 -29 -63 0 -21 1128 -3114 1380 -3781 33 -90 90 -119 159 -84
30 16 -10 -69 762 1618 l273 597 1070 4 c1052 3 1073 3 1209 25 682 111 1256
404 1726 882 675 686 983 1652 830 2595 -126 775 -545 1466 -1179 1944 -423
319 -923 518 -1470 586 -109 13 -495 15 -3195 15 -2442 0 -3075 -3 -3095 -13z
m6170 -137 c401 -34 761 -139 1120 -326 945 -493 1540 -1477 1540 -2549 0
-895 -425 -1753 -1135 -2290 -457 -345 -982 -542 -1560 -585 -82 -6 -546 -10
-1124 -10 -859 0 -987 -2 -1001 -15 -9 -8 -234 -491 -501 -1074 -266 -583
-487 -1056 -490 -1053 -6 8 -1307 3546 -1316 3580 l-5 21 2213 4 c2207 3 2214
3 2309 24 302 67 511 182 730 402 69 69 149 160 177 202 113 165 197 374 228
567 21 126 16 406 -9 517 -54 241 -158 447 -323 637 -206 240 -470 397 -788
471 -89 21 -103 21 -1929 24 -1711 3 -1840 2 -1857 -13 -11 -10 -19 -25 -19
-34 0 -10 158 -446 350 -969 193 -524 350 -954 350 -957 0 -2 -395 -4 -878 -4
l-879 0 -626 1703 c-344 936 -629 1710 -632 1720 -7 16 139 17 2966 17 1861 0
3017 -4 3089 -10z"/>
</g>
</svg>
