<svg width="154" height="173" viewBox="0 0 154 173" fill="none" xmlns="http://www.w3.org/2000/svg">
<path d="M34.7582 104.82C35.0379 104.311 35.4173 104.759 35.6774 104.78C39.2945 105.187 42.9106 105.676 46.5277 106.083C51.3437 106.613 56.1792 106.857 61.0147 107.162C68.728 107.63 76.4414 107.591 84.1548 107.468C88.2315 107.407 92.3277 107.183 96.3839 106.877C102.459 106.409 108.553 105.981 114.589 104.962C115.407 104.82 116.267 104.515 117.126 104.82C117.146 105.838 116.387 106.389 115.828 107.081C115.348 108.303 114.708 109.403 113.829 110.34C113.589 111.277 113.03 112.051 112.53 112.846C110.671 115.758 108.913 118.752 107.115 121.706C106.895 122.051 106.675 122.377 106.336 122.623C106.156 122.846 105.876 123.029 105.876 123.376C104.836 125.576 103.638 127.653 102.119 129.548V129.568C101.879 130.159 101.719 130.81 101.14 131.197V131.217C100.501 132.705 99.6216 134.028 98.7826 135.393C96.2841 139.507 93.7466 143.581 91.2687 147.716C90.9294 148.287 90.6097 148.877 90.0493 149.304C90.0102 149.366 89.9701 149.448 89.9094 149.509C89.1507 151.423 87.9117 153.073 86.8321 154.804C86.3129 155.64 85.9931 156.658 85.1737 157.269C85.1141 157.289 85.0935 157.33 85.0935 157.391C84.9536 158.084 84.6339 158.654 84.054 159.061C84.0139 159.143 83.9737 159.224 83.9141 159.286C83.5749 160.467 82.8551 161.424 82.0758 162.32C81.136 164.377 79.9772 166.313 78.5583 168.064C78.5182 168.125 78.4987 168.187 78.4586 168.247C77.9795 169.734 77.0202 170.916 76.0609 172.118C75.9612 172.118 75.8615 172.118 75.7607 172.118C75.2209 171.69 74.9217 171.099 74.7212 170.447C74.641 170.345 74.5618 170.223 74.4816 170.121C74.3223 169.999 74.1423 169.897 74.0415 169.713C73.1419 167.942 71.9636 166.333 70.9642 164.622C69.8456 162.707 68.6467 160.834 67.5075 158.96C67.2083 158.47 66.8886 158.002 66.7477 157.432C66.6674 157.33 66.5883 157.207 66.5081 157.106C66.3878 156.943 66.1883 156.841 66.0886 156.658C65.1098 154.783 63.8102 153.093 62.852 151.199C62.2319 149.977 61.3529 148.917 60.6342 147.736C58.6365 144.416 56.538 141.157 54.5598 137.817C52.0819 133.622 49.4045 129.548 46.9266 125.352C46.6263 124.842 46.3077 124.313 46.1277 123.722C46.0475 123.579 45.9684 123.417 45.8882 123.274C44.6492 121.766 43.8103 119.994 42.7512 118.385C41.2922 116.125 39.9341 113.802 38.5152 111.542C37.6361 110.156 36.6963 108.813 36.0167 107.285C35.7771 106.755 35.2178 106.368 34.9783 105.798C34.898 105.431 34.5783 105.208 34.7582 104.82Z" fill="#FFD263"/>
<path d="M154 90.4166C154 104.254 119.526 115.471 77.0004 115.471C34.4746 115.471 0 104.254 0 90.4166C0 76.5783 34.4737 65.3611 77.0004 65.3611C119.526 65.3602 154 76.5783 154 90.4166Z" fill="#2D2D2D"/>
<mask id="mask0_648_5145" style="mask-type:alpha" maskUnits="userSpaceOnUse" x="0" y="64" width="154" height="52">
<path d="M153.5 89.8539C153.5 93.1258 151.482 96.325 147.642 99.3088C143.808 102.288 138.23 104.992 131.291 107.272C117.42 111.831 98.225 114.659 77.0003 114.659C55.7756 114.659 36.5807 111.831 22.7091 107.272C15.7706 104.992 10.1917 102.288 6.35789 99.3088C2.51758 96.325 0.5 93.1258 0.5 89.8539C0.5 86.5817 2.51755 83.3823 6.35778 80.3984C10.1916 77.4195 15.7703 74.7152 22.7088 72.435C36.5803 67.8763 55.7752 65.0483 77.0003 65.0483C98.225 65.0479 117.42 67.8758 131.291 72.4346C138.23 74.7149 143.808 77.4193 147.642 80.3983C151.482 83.3822 153.5 86.5817 153.5 89.8539Z" fill="#2D2D2D" stroke="#2D2D2D"/>
</mask>
<g mask="url(#mask0_648_5145)">
<path d="M143.155 88.2375C143.155 98.4654 113.537 106.756 77.0001 106.756C40.4643 106.756 10.8452 98.4654 10.8452 88.2375C10.8452 78.0096 40.4634 69.7185 77.0001 69.7185C113.537 69.7185 143.155 78.0096 143.155 88.2375Z" fill="white"/>
</g>
<mask id="mask1_648_5145" style="mask-type:alpha" maskUnits="userSpaceOnUse" x="19" y="0" width="116" height="99">
<path d="M128.901 33.1472C128.917 33.1945 128.932 33.2427 128.948 33.3055C129.612 33.9562 129.785 34.8288 130.007 35.6851C130.67 36.5423 130.876 37.557 131.097 38.5725C131.127 38.9529 131.239 39.3178 131.444 39.6509C132.17 40.5872 132.202 41.7611 132.486 42.8403C133.007 44.8232 133.497 46.8387 133.608 48.9171C133.623 49.9163 133.75 50.8999 133.955 51.8836C134.398 55.5326 134.46 59.1816 133.955 62.8306C133.766 63.8617 133.623 64.8935 133.608 65.94C133.466 66.7172 133.529 67.5107 133.339 68.2878C133.26 68.6054 133.149 68.8911 133.024 69.176C133.007 69.2551 132.992 69.3507 132.976 69.4298C132.818 70.985 132.344 72.4919 131.981 73.9988C131.87 74.4274 131.728 74.8552 131.428 75.2046C130.623 77.3148 129.912 79.4724 128.901 81.5034C128.695 81.9156 129.043 82.0112 129.264 82.1377C130.101 82.6454 130.891 83.2005 131.554 83.9303C133.039 85.5328 133.039 87.1826 131.554 88.7687C130.401 90.0063 128.948 90.7998 127.432 91.4977C123.294 93.3859 118.903 94.4651 114.465 95.3369C107.672 96.6855 100.801 97.4472 93.8992 97.9231C85.0383 98.5419 76.1774 98.6692 67.3165 98.3198C57.5397 97.9231 47.7938 97.0668 38.2063 95.0202C33.7048 94.0684 29.2503 92.9255 25.16 90.6887C24.1653 90.1491 23.2331 89.483 22.4749 88.6259C21.164 87.1508 21.1477 85.5638 22.4431 84.0732C23.1543 83.2479 24.0385 82.6291 24.9707 82.074C25.1917 81.9475 25.4291 81.8674 25.2551 81.4871C24.2604 79.456 23.5338 77.2984 22.7276 75.1882C22.3489 74.5539 22.1433 73.8551 22.1116 73.1253C22.0644 72.967 22.001 72.8078 21.9539 72.6649C21.7646 72.4265 21.7012 72.1726 21.78 71.8714C21.78 71.8241 21.7646 71.7604 21.7646 71.7131C21.433 71.1734 21.2436 70.5865 21.2436 69.9359C21.2599 69.4126 21.038 68.9204 20.8804 68.4289C20.5959 67.5726 20.6747 66.6681 20.5642 65.7955C20.422 64.8591 20.2172 63.9391 20.2172 63.0028C20.2489 61.8607 19.9011 60.7815 19.9173 59.6077C19.9328 57.8468 20.1855 56.0697 19.8702 54.2925C19.7443 53.6419 19.9962 52.9912 20.2018 52.3725C20.3277 51.2778 20.2652 50.1512 20.5651 49.0729C20.6756 47.8826 20.7544 46.6933 21.1965 45.5504C21.2916 44.8524 21.2436 44.1063 21.6549 43.4875C21.8922 42.0124 22.366 40.6156 22.8398 39.2042C23.3925 37.5544 23.9297 35.9046 24.6091 34.3021C24.7668 33.9372 24.8936 33.556 25.2568 33.3339C25.304 33.3021 25.304 33.2548 25.304 33.1911C25.9354 31.4621 26.7888 29.8596 27.7835 28.3045C28.415 27.3208 28.9367 26.2425 29.6162 25.2898C30.2168 24.4644 30.7531 23.6081 31.4797 22.8783C32.1745 21.5143 33.249 20.4351 34.2437 19.3249C34.5915 18.9445 34.8597 18.484 35.3652 18.262C35.4123 18.262 35.4286 18.2302 35.4286 18.1828C36.0601 17.12 36.8972 16.2473 37.9716 15.613L37.9399 15.5657L37.9716 15.613C38.2243 15.2636 38.4771 14.9469 38.8875 14.7877C39.7563 13.6138 40.9566 12.7885 42.1098 11.9322C43.4679 10.9167 44.8267 9.88564 46.2481 8.96564C46.7536 8.64807 47.2746 8.33137 47.8272 8.10933C47.8906 8.04564 47.954 7.99831 48.0165 7.93462C49.5485 6.88726 51.1909 6.07828 52.9131 5.41216C52.9602 5.39667 53.0082 5.38032 53.0707 5.36483C53.7185 4.68236 54.6027 4.50852 55.456 4.30197C55.5032 4.28648 55.5511 4.27013 55.5983 4.25464C55.8827 3.92158 56.2777 3.77872 56.6727 3.65134C57.5252 3.35013 58.3939 3.09625 59.2627 2.87421C59.4367 2.90605 59.5626 2.79503 59.7048 2.71586C61.0003 2.04974 62.4054 1.74766 63.8277 1.52563C64.2544 1.46194 64.6802 1.31908 65.1231 1.30359C65.3913 1.31908 65.6441 1.31908 65.8651 1.12888C66.7339 0.716649 67.6661 0.716649 68.5974 0.668454C69.5922 0.62112 70.5715 0.493749 71.5508 0.319045C75.1835 -0.045856 78.8163 -0.156875 82.4491 0.303554C83.4755 0.478258 84.5183 0.62112 85.561 0.652963C86.4923 0.700297 87.4082 0.763982 88.277 1.16073C88.5143 1.33543 88.7825 1.25625 89.0515 1.28724C90.7728 1.4301 92.3836 1.98519 94.0423 2.41378C94.3268 2.49296 94.5795 2.60398 94.7851 2.82601C94.9428 3.00072 95.1638 3.03256 95.3849 3.01621C96.5219 3.38111 97.7539 3.47664 98.7178 4.31746C98.8283 4.49217 99.0339 4.42848 99.1916 4.49217C99.9816 4.5395 100.645 4.9044 101.261 5.39667H101.276C102.793 5.91992 104.182 6.68157 105.557 7.47506C105.778 7.60157 106.015 7.71345 106.141 7.96647C106.252 8.14117 106.41 8.26768 106.631 8.25219C107.263 8.39505 107.753 8.77544 108.178 9.23587L108.21 9.20403L108.178 9.23587C108.842 9.53709 109.537 9.77548 109.948 10.4571L109.964 10.4734C110.5 10.8228 111.069 11.1396 111.511 11.6C112.775 12.3298 113.88 13.2179 114.829 14.329C114.955 14.5192 115.097 14.6775 115.318 14.7731C115.681 14.9796 116.06 15.1698 116.25 15.582C116.645 15.7568 116.961 16.0261 117.245 16.3437C119.599 18.8343 121.904 21.3413 123.816 24.2132C124.606 25.387 125.49 26.4981 126.059 27.8148C126.042 28.0369 126.185 28.1642 126.343 28.2753C127.275 29.3381 127.843 30.5757 128.286 31.8924C128.349 32.0034 128.396 32.1145 128.459 32.21C128.758 32.4329 128.743 32.8296 128.901 33.1472Z" fill="white"/>
</mask>
<g mask="url(#mask1_648_5145)">
<path d="M129.046 32.9892C129.062 33.0363 129.078 33.0843 129.093 33.1468C129.76 33.7943 129.934 34.6628 130.156 35.5151C130.822 36.3682 131.029 37.378 131.251 38.3887C131.282 38.7672 131.394 39.1304 131.599 39.4619C132.329 40.3938 132.361 41.562 132.646 42.6361C133.17 44.6095 133.662 46.6155 133.773 48.684C133.788 49.6784 133.916 50.6574 134.121 51.6363C134.566 55.268 134.629 58.8996 134.121 62.5312C133.931 63.5573 133.788 64.5843 133.773 65.6258C133.63 66.3992 133.694 67.1889 133.503 67.9623C133.423 68.2784 133.312 68.5628 133.186 68.8463C133.17 68.9251 133.154 69.0201 133.138 69.0989C132.979 70.6467 132.504 72.1464 132.139 73.6462C132.028 74.0727 131.885 74.4984 131.584 74.8461C130.775 76.9463 130.061 79.0936 129.046 81.115C128.839 81.5252 129.188 81.6203 129.41 81.7462C130.251 82.2515 131.044 82.804 131.71 83.5303C133.201 85.1252 133.201 86.7671 131.71 88.3456C130.552 89.5773 129.093 90.367 127.571 91.0616C123.415 92.9408 119.006 94.0149 114.549 94.8825C107.727 96.2247 100.828 96.9827 93.8964 97.4564C84.9981 98.0722 76.0998 98.199 67.2015 97.8512C57.3835 97.4564 47.5964 96.6041 37.9684 94.5673C33.4479 93.62 28.9746 92.4826 24.8671 90.2565C23.8681 89.7195 22.932 89.0565 22.1706 88.2035C20.8541 86.7354 20.8378 85.156 22.1387 83.6725C22.8529 82.8511 23.7408 82.2353 24.6769 81.6828C24.8989 81.5569 25.1372 81.4773 24.9626 81.0987C23.9636 79.0773 23.234 76.93 22.4244 74.8299C22.0441 74.1986 21.8376 73.5031 21.8057 72.7768C21.7584 72.6192 21.6948 72.4607 21.6474 72.3186C21.4573 72.0813 21.3936 71.8286 21.4728 71.5289C21.4728 71.4818 21.4573 71.4184 21.4573 71.3713C21.1243 70.8342 20.9342 70.2501 20.9342 69.6026C20.9505 69.0818 20.7277 68.5919 20.5693 68.1028C20.2837 67.2506 20.3628 66.3504 20.2519 65.4819C20.109 64.55 19.9034 63.6344 19.9034 62.7025C19.9352 61.5659 19.5859 60.4918 19.6023 59.3236C19.6177 57.5711 19.8716 55.8024 19.5549 54.0337C19.4285 53.3862 19.6814 52.7387 19.8879 52.1229C20.0144 51.0334 19.9516 49.9122 20.2527 48.839C20.3637 47.6544 20.4429 46.4707 20.8868 45.3333C20.9823 44.6386 20.9342 43.896 21.3472 43.2802C21.5855 41.8121 22.0613 40.422 22.5371 39.0173C23.092 37.3754 23.6315 35.7335 24.3138 34.1386C24.4721 33.7755 24.5995 33.396 24.9643 33.1751C25.0116 33.1434 25.0116 33.0963 25.0116 33.0329C25.6457 31.3122 26.5027 29.7173 27.5016 28.1696C28.1357 27.1906 28.6597 26.1174 29.342 25.1692C29.9452 24.3479 30.4838 23.4956 31.2134 22.7693C31.9112 21.4117 32.9901 20.3377 33.9891 19.2328C34.3384 18.8542 34.6077 18.3959 35.1153 18.175C35.1627 18.175 35.179 18.1433 35.179 18.0962C35.8131 17.0384 36.6537 16.1699 37.7327 15.5386C37.9865 15.1909 38.2403 14.8757 38.6525 14.7172C39.5249 13.5489 40.7303 12.7275 41.8884 11.8753C43.2522 10.8646 44.6168 9.83852 46.0442 8.92291C46.5518 8.60686 47.075 8.29166 47.6299 8.07068C47.6936 8.0073 47.7573 7.96019 47.8201 7.89681C49.3585 6.85443 51.0079 6.04931 52.7373 5.38637C52.7846 5.37095 52.8328 5.35468 52.8956 5.33926C53.5461 4.66004 54.434 4.48703 55.291 4.28147C55.3383 4.26605 55.3865 4.24977 55.4338 4.23436C55.7194 3.90289 56.1161 3.76071 56.5127 3.63394C57.3688 3.33416 58.2413 3.08149 59.1137 2.86051C59.2884 2.8922 59.4149 2.78171 59.5577 2.70291C60.8586 2.03997 62.2697 1.73934 63.698 1.51836C64.1264 1.45497 64.5541 1.31279 64.9989 1.29737C65.2682 1.31279 65.522 1.31279 65.744 1.1235C66.6165 0.713233 67.5526 0.713233 68.4878 0.665268C69.4868 0.61816 70.4702 0.491396 71.4536 0.317524C75.1018 -0.0456375 78.7499 -0.156128 82.398 0.302107C83.4288 0.475979 84.4759 0.61816 85.523 0.649851C86.4582 0.696959 87.378 0.760341 88.2505 1.15519C88.4888 1.32907 88.7581 1.25027 89.0283 1.2811C90.7568 1.42328 92.3744 1.97573 94.0401 2.40228C94.3258 2.48108 94.5796 2.59157 94.7861 2.81255C94.9444 2.98642 95.1664 3.01811 95.3884 3.00184C96.5301 3.365 97.7674 3.46007 98.7354 4.29688C98.8463 4.47076 99.0528 4.40737 99.2112 4.47076C100.004 4.51786 100.67 4.88102 101.289 5.37095H101.305C102.827 5.89171 104.223 6.64972 105.603 7.43943C105.825 7.56534 106.063 7.67668 106.19 7.9285C106.301 8.10237 106.46 8.22828 106.682 8.21286C107.316 8.35504 107.808 8.73362 108.236 9.19185C108.903 9.49163 109.601 9.72889 110.013 10.4072L110.029 10.4235C110.568 10.7713 111.139 11.0865 111.583 11.5447C112.852 12.271 113.962 13.1549 114.914 14.2607C115.041 14.45 115.184 14.6076 115.406 14.7027C115.77 14.9082 116.151 15.0975 116.342 15.5078C116.738 15.6817 117.055 15.9497 117.341 16.2658C119.704 18.7445 122.02 21.2396 123.939 24.0977C124.732 25.266 125.62 26.3718 126.192 27.6823C126.175 27.9032 126.318 28.03 126.477 28.1405C127.413 29.1983 127.984 30.4299 128.428 31.7404C128.492 31.8509 128.539 31.9614 128.603 32.0565C128.903 32.2783 128.887 32.6732 129.046 32.9892Z" fill="#FFD263"/>
<path d="M129.046 32.9892L129.99 32.6614L129.969 32.5997L129.94 32.5413L129.046 32.9892ZM129.093 33.1468L128.122 33.3872L128.191 33.6649L128.396 33.8642L129.093 33.1468ZM130.156 35.5151L129.189 35.768L129.241 35.9677L129.368 36.1304L130.156 35.5151ZM131.251 38.3887L132.248 38.3071L132.242 38.24L132.228 38.1741L131.251 38.3887ZM131.599 39.4619L130.75 39.989L130.778 40.0354L130.812 40.0784L131.599 39.4619ZM132.646 42.6361L133.613 42.3799L133.613 42.3791L132.646 42.6361ZM133.773 48.684L134.773 48.6684L134.772 48.6494L134.771 48.6304L133.773 48.684ZM134.121 51.6363L135.114 51.5148L135.109 51.4725L135.1 51.4308L134.121 51.6363ZM134.121 62.5312L135.104 62.7134L135.108 62.6916L135.112 62.6696L134.121 62.5312ZM133.773 65.6258L134.756 65.8074L134.771 65.7247L134.773 65.6406L133.773 65.6258ZM133.503 67.9623L134.473 68.2053L134.473 68.2021L133.503 67.9623ZM133.186 68.8463L132.273 68.4388L132.229 68.5374L132.207 68.6431L133.186 68.8463ZM133.138 69.0989L132.159 68.8958L132.148 68.9461L132.143 68.9972L133.138 69.0989ZM132.139 73.6462L133.107 73.898L133.109 73.8903L133.11 73.8825L132.139 73.6462ZM131.584 74.8461L130.828 74.1915L130.713 74.3236L130.651 74.4868L131.584 74.8461ZM129.046 81.115L129.939 81.5645L129.939 81.5638L129.046 81.115ZM129.41 81.7462L129.926 80.8892L129.915 80.8826L129.904 80.8764L129.41 81.7462ZM131.71 83.5303L130.973 84.2062L130.98 84.2133L131.71 83.5303ZM131.71 88.3456L130.983 87.659L130.982 87.6606L131.71 88.3456ZM127.571 91.0616L127.983 91.9728L127.986 91.9714L127.571 91.0616ZM114.549 94.8825L114.358 93.901L114.356 93.9014L114.549 94.8825ZM93.8964 97.4564L93.8283 96.4587L93.8274 96.4587L93.8964 97.4564ZM67.2015 97.8512L67.1614 98.8504L67.1625 98.8504L67.2015 97.8512ZM37.9684 94.5673L38.1754 93.589L38.1735 93.5886L37.9684 94.5673ZM24.8671 90.2565L25.3435 89.3773L25.3406 89.3757L24.8671 90.2565ZM22.1706 88.2035L22.9166 87.5375L22.9151 87.5358L22.1706 88.2035ZM22.1387 83.6725L22.8906 84.3318L22.8934 84.3286L22.1387 83.6725ZM24.6769 81.6828L24.1836 80.813L24.1761 80.8172L24.1687 80.8216L24.6769 81.6828ZM24.9626 81.0987L25.8706 80.6798L25.865 80.6676L25.8591 80.6556L24.9626 81.0987ZM22.4244 74.8299L23.3574 74.4702L23.326 74.3886L23.2809 74.3138L22.4244 74.8299ZM21.8057 72.7768L22.8048 72.733L22.7993 72.6085L22.7635 72.4892L21.8057 72.7768ZM21.6474 72.3186L22.5963 72.0028L22.5397 71.8329L22.4277 71.6932L21.6474 72.3186ZM21.4728 71.5289L22.4396 71.7842L22.4728 71.6587V71.5289H21.4728ZM21.4573 71.3713H22.4573V71.0864L22.3072 70.8443L21.4573 71.3713ZM20.9342 69.6026L19.9346 69.5712L19.9342 69.5869V69.6026H20.9342ZM20.5693 68.1028L21.5208 67.7948L21.5175 67.785L20.5693 68.1028ZM20.2519 65.4819L21.2438 65.3551L21.2422 65.3427L21.2403 65.3304L20.2519 65.4819ZM19.9034 62.7025L18.9038 62.6745L18.9034 62.6885V62.7025H19.9034ZM19.6023 59.3236L20.6022 59.3375L20.6022 59.3324L19.6023 59.3236ZM19.5549 54.0337L20.5393 53.8575L20.5379 53.8498L20.5364 53.842L19.5549 54.0337ZM19.8879 52.1229L20.836 52.4408L20.8692 52.3418L20.8812 52.2382L19.8879 52.1229ZM20.2527 48.839L21.2155 49.1091L21.2399 49.0222L21.2484 48.9323L20.2527 48.839ZM20.8868 45.3333L21.8184 45.6969L21.8614 45.5867L21.8775 45.4695L20.8868 45.3333ZM21.3472 43.2802L22.1777 43.8372L22.2993 43.6559L22.3342 43.4405L21.3472 43.2802ZM22.5371 39.0173L23.4842 39.3382L23.4844 39.3375L22.5371 39.0173ZM24.3138 34.1386L23.3971 33.739L23.3944 33.7453L24.3138 34.1386ZM24.9643 33.1751L25.4824 34.0304L25.5018 34.0186L25.5207 34.006L24.9643 33.1751ZM25.0116 33.0329L24.0733 32.6871L24.0116 32.8545V33.0329H25.0116ZM27.5016 28.1696L26.6623 27.626L26.6614 27.6273L27.5016 28.1696ZM29.342 25.1692L28.536 24.5774L28.5303 24.5852L29.342 25.1692ZM31.2134 22.7693L31.9189 23.478L32.0307 23.3667L32.1028 23.2264L31.2134 22.7693ZM33.9891 19.2328L33.2541 18.5546L33.2473 18.5621L33.9891 19.2328ZM35.1153 18.175V17.175H34.9071L34.7162 17.2581L35.1153 18.175ZM35.179 18.0962L34.3213 17.582L34.179 17.8194V18.0962H35.179ZM37.7327 15.5386L38.2377 16.4017L38.4175 16.2965L38.5404 16.1282L37.7327 15.5386ZM38.6525 14.7172L39.0113 15.6506L39.2809 15.547L39.4537 15.3156L38.6525 14.7172ZM41.8884 11.8753L42.4811 12.6807L42.4839 12.6787L41.8884 11.8753ZM46.0442 8.92291L45.5156 8.07392L45.5043 8.08119L46.0442 8.92291ZM47.6299 8.07068L47.9999 8.99973L48.1902 8.92394L48.3354 8.77939L47.6299 8.07068ZM47.8201 7.89681L47.2591 7.06895L47.1784 7.12365L47.1098 7.19291L47.8201 7.89681ZM52.7373 5.38637L52.4275 4.43555L52.4032 4.44347L52.3793 4.45262L52.7373 5.38637ZM52.8956 5.33926L53.134 6.31043L53.4166 6.24107L53.6178 6.03092L52.8956 5.33926ZM55.291 4.28147L55.5242 5.25388L55.5629 5.2446L55.6007 5.23228L55.291 4.28147ZM55.4338 4.23436L55.7436 5.18517L56.009 5.09868L56.1913 4.88717L55.4338 4.23436ZM56.5127 3.63394L56.8172 4.58648L56.8302 4.58229L56.8432 4.57775L56.5127 3.63394ZM59.1137 2.86051L59.2923 1.87658L59.0787 1.83782L58.8682 1.89112L59.1137 2.86051ZM59.5577 2.70291L59.1037 1.81193L59.089 1.81939L59.0746 1.82733L59.5577 2.70291ZM63.698 1.51836L63.5516 0.529097L63.5451 0.530113L63.698 1.51836ZM64.9989 1.29737L65.056 0.29901L65.0102 0.296383L64.9643 0.297975L64.9989 1.29737ZM65.744 1.1235L65.3185 0.218566L65.1972 0.275609L65.0952 0.362584L65.744 1.1235ZM68.4878 0.665268L68.4407 -0.33363L68.4366 -0.333419L68.4878 0.665268ZM71.4536 0.317524L71.3546 -0.677558L71.3169 -0.673803L71.2795 -0.667204L71.4536 0.317524ZM82.398 0.302107L82.5643 -0.683963L82.5435 -0.687469L82.5226 -0.690097L82.398 0.302107ZM85.523 0.649851L85.5733 -0.348883L85.5633 -0.349388L85.5532 -0.349691L85.523 0.649851ZM88.2505 1.15519L88.8398 0.347329L88.7566 0.286623L88.6628 0.244153L88.2505 1.15519ZM89.0283 1.2811L88.9149 2.27465L88.9306 2.27644L88.9463 2.27774L89.0283 1.2811ZM94.0401 2.40228L94.306 1.43828L94.2971 1.43582L94.2882 1.43353L94.0401 2.40228ZM94.7861 2.81255L95.5256 2.13924L95.5167 2.12979L94.7861 2.81255ZM95.3884 3.00184L95.6915 2.04888L95.5077 1.99041L95.3153 2.00451L95.3884 3.00184ZM98.7354 4.29688L99.5783 3.75881L99.4997 3.63582L99.3894 3.54039L98.7354 4.29688ZM99.2112 4.47076L98.8395 5.39912L98.99 5.45938L99.1519 5.469L99.2112 4.47076ZM101.289 5.37095L100.668 6.15489L100.941 6.37095H101.289V5.37095ZM101.305 5.37095L101.628 4.42474L101.471 4.37095H101.305V5.37095ZM105.603 7.43943L105.106 8.30738L105.11 8.30925L105.603 7.43943ZM106.19 7.9285L105.296 8.37733L105.319 8.42325L105.347 8.46657L106.19 7.9285ZM106.682 8.21286L106.901 7.23709L106.758 7.20515L106.613 7.21526L106.682 8.21286ZM108.236 9.19185L107.505 9.87412L107.642 10.0213L107.826 10.1039L108.236 9.19185ZM110.013 10.4072L109.158 10.9265L109.221 11.0302L109.307 11.1159L110.013 10.4072ZM110.029 10.4235L109.323 11.1322L109.398 11.2065L109.487 11.2636L110.029 10.4235ZM111.583 11.5447L110.865 12.2405L110.963 12.3423L111.086 12.4126L111.583 11.5447ZM114.914 14.2607L115.746 13.7051L115.712 13.6543L115.672 13.6081L114.914 14.2607ZM115.406 14.7027L115.897 13.8314L115.849 13.8048L115.799 13.7834L115.406 14.7027ZM116.342 15.5078L115.435 15.9299L115.595 16.2721L115.94 16.4237L116.342 15.5078ZM117.341 16.2658L116.599 16.9363L116.608 16.9462L116.617 16.9559L117.341 16.2658ZM123.939 24.0977L123.109 24.6553L123.112 24.6595L123.939 24.0977ZM126.192 27.6823L127.189 27.756L127.207 27.5094L127.108 27.2826L126.192 27.6823ZM126.477 28.1405L127.227 27.4781L127.147 27.3878L127.048 27.319L126.477 28.1405ZM128.428 31.7404L127.481 32.0613L127.512 32.1545L127.561 32.2397L128.428 31.7404ZM128.603 32.0565L127.772 32.6129L127.868 32.7574L128.008 32.8608L128.603 32.0565ZM128.101 33.3171C128.107 33.3337 128.11 33.3448 128.113 33.3545C128.116 33.3638 128.119 33.3741 128.122 33.3872L130.064 32.9064C130.038 32.8047 130.013 32.7259 129.99 32.6614L128.101 33.3171ZM128.396 33.8642C128.818 34.2739 128.939 34.8119 129.189 35.768L131.124 35.2621C130.928 34.5138 130.701 33.3147 129.79 32.4294L128.396 33.8642ZM129.368 36.1304C129.87 36.7727 130.042 37.5439 130.274 38.6032L132.228 38.1741C132.016 37.2121 131.775 35.9636 130.945 34.8997L129.368 36.1304ZM130.254 38.4702C130.297 38.9953 130.454 39.5133 130.75 39.989L132.449 38.9347C132.333 38.7476 132.267 38.5392 132.248 38.3071L130.254 38.4702ZM130.812 40.0784C131.053 40.3863 131.2 40.757 131.319 41.2368C131.379 41.48 131.428 41.7294 131.484 42.0126C131.538 42.2861 131.599 42.5897 131.68 42.8931L133.613 42.3791C133.551 42.1455 133.501 41.9003 133.446 41.6236C133.393 41.3564 133.334 41.0542 133.26 40.7545C133.109 40.1487 132.875 39.4694 132.387 38.8454L130.812 40.0784ZM131.68 42.8923C132.203 44.8649 132.669 46.7822 132.774 48.7375L134.771 48.6304C134.654 46.4487 134.136 44.3542 133.613 42.3799L131.68 42.8923ZM132.773 48.6995C132.79 49.7695 132.926 50.813 133.143 51.8419L135.1 51.4308C134.905 50.5018 134.787 49.5873 134.773 48.6684L132.773 48.6995ZM133.129 51.7579C133.565 55.3211 133.624 58.8636 133.131 62.3928L135.112 62.6696C135.634 58.9356 135.567 55.2148 135.114 51.5148L133.129 51.7579ZM133.138 62.349C132.943 63.4015 132.79 64.4901 132.773 65.6109L134.773 65.6406C134.787 64.6784 134.919 63.7131 135.104 62.7134L133.138 62.349ZM132.789 65.4442C132.705 65.9022 132.682 66.363 132.658 66.7281C132.632 67.1181 132.604 67.4301 132.532 67.7226L134.473 68.2021C134.592 67.7212 134.628 67.2516 134.654 66.86C134.681 66.4436 134.698 66.1228 134.756 65.8074L132.789 65.4442ZM132.533 67.7194C132.473 67.9577 132.387 68.1836 132.273 68.4388L134.099 69.2537C134.238 68.9419 134.374 68.5991 134.473 68.2053L132.533 67.7194ZM132.207 68.6431C132.196 68.6962 132.186 68.7518 132.178 68.7925C132.17 68.8387 132.164 68.8701 132.159 68.8958L134.117 69.3021C134.128 69.249 134.138 69.1934 134.145 69.1527C134.154 69.1065 134.16 69.0751 134.165 69.0494L132.207 68.6431ZM132.143 68.9972C131.994 70.4541 131.554 71.8198 131.167 73.4098L133.11 73.8825C133.453 72.473 133.965 70.8392 134.133 69.2007L132.143 68.9972ZM131.171 73.3943C131.067 73.7938 130.97 74.0276 130.828 74.1915L132.34 75.5008C132.8 74.9692 132.989 74.3516 133.107 73.898L131.171 73.3943ZM130.651 74.4868C129.82 76.645 129.138 78.7031 128.152 80.6661L129.939 81.5638C130.984 79.4841 131.731 77.2476 132.517 75.2055L130.651 74.4868ZM128.152 80.6654C128.047 80.8758 127.956 81.1542 127.99 81.4731C128.025 81.812 128.186 82.0673 128.354 82.2383C128.505 82.3916 128.669 82.4847 128.753 82.5307C128.799 82.5554 128.844 82.5785 128.869 82.5912C128.901 82.6071 128.912 82.6129 128.917 82.616L129.904 80.8764C129.854 80.848 129.805 80.8233 129.776 80.8083C129.74 80.7901 129.724 80.7819 129.709 80.7736C129.672 80.7536 129.719 80.7737 129.78 80.8361C129.859 80.9164 129.958 81.063 129.979 81.2648C129.998 81.4466 129.942 81.5592 129.939 81.5645L128.152 80.6654ZM128.895 82.6033C129.703 83.089 130.402 83.5834 130.973 84.2061L132.447 82.8545C131.687 82.0246 130.799 81.4141 129.926 80.8892L128.895 82.6033ZM130.98 84.2133C131.612 84.8899 131.829 85.4668 131.829 85.9441C131.829 86.4202 131.613 86.9919 130.983 87.659L132.437 89.0323C133.298 88.1208 133.829 87.0822 133.829 85.9441C133.829 84.8071 133.299 83.7656 132.441 82.8474L130.98 84.2133ZM130.982 87.6606C129.962 88.7456 128.65 89.4701 127.156 90.1519L127.986 91.9714C129.536 91.2639 131.143 90.409 132.439 89.0307L130.982 87.6606ZM127.159 90.1505C123.11 91.9814 118.791 93.0379 114.358 93.901L114.74 95.8641C119.22 94.9919 123.72 93.9003 127.983 91.9728L127.159 90.1505ZM114.356 93.9014C107.589 95.2328 100.734 95.9868 93.8283 96.4587L93.9646 98.454C100.922 97.9786 107.866 97.2166 114.742 95.8637L114.356 93.9014ZM93.8274 96.4587C84.9655 97.0721 76.1033 97.1983 67.2406 96.852L67.1625 98.8504C76.0963 99.1996 85.0307 99.0723 93.9655 98.454L93.8274 96.4587ZM67.2417 96.852C57.4519 96.4583 47.7266 95.6096 38.1754 93.589L37.7615 95.5457C47.4661 97.5987 57.315 98.4544 67.1614 98.8504L67.2417 96.852ZM38.1735 93.5886C33.6688 92.6446 29.3161 91.5302 25.3435 89.3773L24.3906 91.1357C28.6332 93.4349 33.2269 94.5955 37.7633 95.5461L38.1735 93.5886ZM25.3406 89.3757C24.4115 88.8762 23.579 88.2796 22.9166 87.5376L21.4245 88.8694C22.2851 89.8335 23.3248 90.5627 24.3935 91.1373L25.3406 89.3757ZM22.9151 87.5358C22.3738 86.9322 22.1767 86.3952 22.1731 85.9359C22.1695 85.4774 22.3573 84.9399 22.8906 84.3318L21.3869 83.0132C20.6192 83.8886 20.1647 84.8825 20.1732 85.9516C20.1816 87.0199 20.6509 88.0066 21.426 88.8711L22.9151 87.5358ZM22.8934 84.3286C23.5033 83.6271 24.2836 83.0761 25.1852 82.544L24.1687 80.8216C23.198 81.3945 22.2025 82.0751 21.3841 83.0164L22.8934 84.3286ZM25.1703 82.5527C25.1886 82.5423 25.2031 82.5346 25.2392 82.5149C25.2689 82.4986 25.3139 82.4739 25.3615 82.4448C25.4493 82.3911 25.6122 82.284 25.7534 82.1051C25.9136 81.9022 26.0168 81.6446 26.0226 81.3519C26.0279 81.0865 25.9519 80.856 25.8706 80.6798L24.0545 81.5176C24.0606 81.5307 24.0202 81.4521 24.023 81.312C24.0264 81.1447 24.0889 80.9859 24.1836 80.8659C24.2593 80.7699 24.3319 80.7301 24.318 80.7386C24.3148 80.7405 24.3061 80.7456 24.281 80.7593C24.2622 80.7696 24.2208 80.7919 24.1836 80.813L25.1703 82.5527ZM25.8591 80.6556C24.887 78.6886 24.1866 76.6211 23.3574 74.4702L21.4913 75.1896C22.2814 77.239 23.0403 79.466 24.0661 81.5417L25.8591 80.6556ZM23.2809 74.3138C22.9878 73.8272 22.8294 73.2944 22.8048 72.733L20.8067 72.8206C20.8458 73.7119 21.1004 74.57 21.5678 75.3459L23.2809 74.3138ZM22.7635 72.4892C22.7181 72.338 22.6086 72.0399 22.5963 72.0028L20.6986 72.6344C20.7809 72.8816 20.7987 72.9004 20.848 73.0644L22.7635 72.4892ZM22.4277 71.6932C22.4173 71.6801 22.4165 71.6767 22.4197 71.6831C22.4233 71.6901 22.4294 71.7043 22.434 71.7243C22.4386 71.7445 22.4399 71.7629 22.4394 71.7768C22.439 71.7901 22.4372 71.7933 22.4396 71.7842L20.5059 71.2736C20.3398 71.9027 20.4939 72.4783 20.8671 72.944L22.4277 71.6932ZM22.4728 71.5289C22.4728 71.4662 22.4678 71.4135 22.4644 71.3825C22.461 71.3513 22.4569 71.3221 22.4553 71.3113C22.453 71.2945 22.4533 71.2961 22.4538 71.3007C22.4543 71.305 22.4573 71.3321 22.4573 71.3713H20.4573C20.4573 71.434 20.4622 71.4866 20.4656 71.5176C20.469 71.5488 20.4732 71.578 20.4747 71.5889C20.4771 71.6057 20.4767 71.604 20.4763 71.5995C20.4758 71.5951 20.4728 71.568 20.4728 71.5289H22.4728ZM22.3072 70.8443C22.0597 70.4451 21.9342 70.0412 21.9342 69.6026H19.9342C19.9342 70.459 20.189 71.2234 20.6074 71.8982L22.3072 70.8443ZM21.9337 69.6339C21.9466 69.2233 21.8642 68.8553 21.7763 68.5576C21.7056 68.3183 21.5674 67.9391 21.5207 67.7948L19.618 68.4108C19.7296 68.7556 19.782 68.8659 19.8582 69.1241C19.9172 69.3237 19.9381 69.4611 19.9346 69.5712L21.9337 69.6339ZM21.5175 67.785C21.4158 67.4816 21.3709 67.1452 21.3428 66.7309C21.3177 66.3595 21.304 65.8265 21.2438 65.3551L19.2599 65.6086C19.3107 66.0058 19.3129 66.3571 19.3474 66.866C19.3789 67.332 19.4372 67.8718 19.6212 68.4206L21.5175 67.785ZM21.2403 65.3304C21.0834 64.3065 20.9034 63.5329 20.9034 62.7025H18.9034C18.9034 63.7359 19.1347 64.7935 19.2634 65.6334L21.2403 65.3304ZM20.903 62.7305C20.9217 62.0622 20.8278 61.4258 20.7481 60.8804C20.6648 60.31 20.5953 59.8286 20.6022 59.3375L18.6024 59.3096C18.5929 59.9868 18.6898 60.6266 18.7691 61.1694C18.8521 61.7373 18.9169 62.2062 18.9038 62.6745L20.903 62.7305ZM20.6022 59.3324C20.61 58.4474 20.6744 57.6816 20.7027 56.714C20.7293 55.8048 20.7154 54.8412 20.5393 53.8575L18.5706 54.2099C18.7111 54.9949 18.7286 55.8001 18.7036 56.6555C18.6802 57.4525 18.61 58.4473 18.6023 59.3147L20.6022 59.3324ZM20.5364 53.842C20.4724 53.5145 20.5936 53.1637 20.836 52.4408L18.9398 51.8049C18.7692 52.3137 18.3845 53.2579 18.5735 54.2254L20.5364 53.842ZM20.8812 52.2382C20.9479 51.6641 20.9685 51.0389 21.0025 50.5432C21.0388 50.0129 21.093 49.5457 21.2155 49.1091L19.2899 48.5688C19.1113 49.2054 19.0463 49.8355 19.0072 50.4064C18.9656 51.012 18.9544 51.4921 18.8946 52.0075L20.8812 52.2382ZM21.2484 48.9323C21.3639 47.6988 21.4366 46.675 21.8184 45.6969L19.9553 44.9697C19.4491 46.2664 19.3635 47.61 19.2571 48.7457L21.2484 48.9323ZM21.8775 45.4695C21.9055 45.2661 21.9225 45.0625 21.9372 44.8926C21.9528 44.713 21.9664 44.5641 21.9872 44.423C22.0282 44.1453 22.088 43.9709 22.1777 43.8372L20.5166 42.7232C20.1933 43.2054 20.0707 43.7102 20.0086 44.1313C19.9779 44.3397 19.9599 44.5452 19.9447 44.7195C19.9288 44.9034 19.9159 45.0532 19.8962 45.1971L21.8775 45.4695ZM22.3342 43.4405C22.5569 42.0689 23.0031 40.7587 23.4842 39.3382L21.5899 38.6965C21.1195 40.0854 20.6141 41.5554 20.3601 43.12L22.3342 43.4405ZM23.4844 39.3375C24.0443 37.6811 24.5699 36.0825 25.2332 34.532L23.3944 33.7453C22.6932 35.3845 22.1398 37.0697 21.5897 38.6971L23.4844 39.3375ZM25.2305 34.5383C25.2527 34.4874 25.2743 34.4363 25.2927 34.3929C25.312 34.3474 25.3288 34.3082 25.3453 34.2709C25.3786 34.1957 25.4041 34.1441 25.427 34.1047C25.4489 34.0668 25.4637 34.0484 25.4711 34.0403C25.4771 34.0337 25.4798 34.0319 25.4824 34.0304L24.4462 32.3198C23.7448 32.7446 23.4975 33.5088 23.3971 33.739L25.2305 34.5383ZM25.5207 34.006C25.7728 33.8371 25.9166 33.5953 25.9758 33.3584C26.0002 33.2611 26.0069 33.1786 26.0094 33.1308C26.0119 33.0853 26.0116 33.0425 26.0116 33.0329H24.0116C24.0116 33.055 24.0113 33.0419 24.0123 33.024C24.0134 33.0038 24.0171 32.947 24.0356 32.8733C24.0552 32.7947 24.0924 32.6933 24.1627 32.5891C24.2341 32.4832 24.3209 32.4024 24.4079 32.3442L25.5207 34.006ZM25.9499 33.3787C26.5522 31.7445 27.371 30.216 28.3418 28.7119L26.6614 27.6273C25.6344 29.2186 24.7393 30.8798 24.0733 32.6871L25.9499 33.3787ZM28.3409 28.7133C28.6752 28.1972 28.9818 27.6539 29.2686 27.1599C29.5626 26.6534 29.8433 26.1847 30.1537 25.7533L28.5303 24.5852C28.1584 25.102 27.836 25.6439 27.5389 26.1559C27.2346 26.6802 26.9622 27.163 26.6623 27.626L28.3409 28.7133ZM30.1481 25.7611C30.8054 24.8659 31.2622 24.1317 31.9189 23.478L30.5079 22.0606C29.7054 22.8595 29.0849 23.8298 28.536 24.5774L30.1481 25.7611ZM32.1028 23.2264C32.7244 22.0172 33.6791 21.0667 34.7309 19.9034L33.2473 18.5621C32.3012 19.6086 31.098 20.8063 30.324 22.3122L32.1028 23.2264ZM34.724 19.9109C34.833 19.7928 34.9325 19.6719 35.0121 19.5756C35.0975 19.4723 35.1627 19.3936 35.2286 19.322C35.3555 19.1842 35.4392 19.1246 35.5145 19.0919L34.7162 17.2581C34.2838 17.4463 33.9791 17.7263 33.7571 17.9675C33.6486 18.0854 33.5492 18.2061 33.47 18.302C33.3849 18.405 33.3198 18.4835 33.2541 18.5546L34.724 19.9109ZM35.1153 19.175C35.3863 19.175 35.7375 19.0674 35.9748 18.7398C36.1665 18.475 36.179 18.2029 36.179 18.0962H34.179C34.179 18.0365 34.1833 17.8038 34.355 17.5667C34.5723 17.2666 34.8917 17.175 35.1153 17.175V19.175ZM36.0367 18.6103C36.5916 17.6846 37.3154 16.9413 38.2377 16.4017L37.2277 14.6755C35.9921 15.3984 35.0346 16.3921 34.3213 17.582L36.0367 18.6103ZM38.5612 14.9787L38.5294 14.9316L36.8723 16.0515L36.9042 16.0986L38.5612 14.9787ZM38.5404 16.1282C38.794 15.7807 38.8991 15.6937 39.0113 15.6506L38.2936 13.7838C37.5815 14.0576 37.179 14.601 36.925 14.9491L38.5404 16.1282ZM39.4537 15.3156C40.216 14.2948 41.2714 13.571 42.4811 12.6807L41.2957 11.0699C40.1893 11.8841 38.8338 12.8031 37.8512 14.1189L39.4537 15.3156ZM42.4839 12.6787C43.858 11.6603 45.1916 10.6578 46.5841 9.76463L45.5043 8.08119C44.042 9.0192 42.6463 10.0689 41.293 11.0719L42.4839 12.6787ZM46.5727 9.77182C47.0818 9.45485 47.537 9.18404 47.9999 8.99973L47.26 7.14162C46.6129 7.39927 46.0218 7.75886 45.5157 8.07399L46.5727 9.77182ZM48.3354 8.77939C48.3396 8.7752 48.346 8.76925 48.3819 8.73796C48.4115 8.71222 48.4696 8.66207 48.5304 8.6007L47.1098 7.19291C47.1099 7.1928 47.1077 7.195 47.1012 7.20091C47.0938 7.20759 47.0851 7.21523 47.0687 7.22953C47.0412 7.25348 46.9839 7.30278 46.9244 7.36197L48.3354 8.77939ZM48.381 8.72467C49.8422 7.73462 51.4198 6.96236 53.0952 6.32011L52.3793 4.45262C50.5959 5.13626 48.8748 5.97424 47.2591 7.06895L48.381 8.72467ZM53.047 6.33718C53.1031 6.31893 53.1141 6.3153 53.134 6.31043L52.6572 4.36809C52.5514 4.39405 52.4662 4.42297 52.4275 4.43555L53.047 6.33718ZM53.6178 6.03092C54.0232 5.60766 54.5744 5.48171 55.5242 5.25388L55.0577 3.30905C54.2936 3.49235 53.069 3.71243 52.1734 4.6476L53.6178 6.03092ZM55.6007 5.23228C55.6274 5.22358 55.6539 5.2148 55.6773 5.20702C55.7016 5.19895 55.7229 5.19189 55.7436 5.18517L55.124 3.28355C55.0973 3.29224 55.0709 3.30103 55.0474 3.3088C55.0231 3.31687 55.0018 3.32393 54.9812 3.33065L55.6007 5.23228ZM56.1913 4.88717C56.2722 4.7933 56.4081 4.7172 56.8172 4.58648L56.2083 2.6814C55.8241 2.80421 55.1667 3.01247 54.6763 3.58154L56.1913 4.88717ZM56.8432 4.57775C57.6652 4.28991 58.5084 4.04542 59.3593 3.8299L58.8682 1.89112C57.9742 2.11756 57.0724 2.37841 56.1822 2.69013L56.8432 4.57775ZM58.9352 3.84445C59.2936 3.90947 59.5855 3.81627 59.773 3.72819C59.8586 3.68797 59.9305 3.64488 59.9697 3.62119C60.022 3.58962 60.0278 3.58563 60.0408 3.5785L59.0746 1.82733C59.0415 1.84564 59.0121 1.86303 58.9896 1.87654C58.9783 1.88332 58.9675 1.88986 58.9588 1.89519C58.9494 1.90092 58.9425 1.90512 58.9356 1.90929C58.9055 1.92748 58.9081 1.92481 58.9223 1.9181C58.9399 1.90987 58.9866 1.8896 59.0552 1.87694C59.1282 1.86348 59.2097 1.8616 59.2923 1.87658L58.9352 3.84445ZM60.0117 3.5939C61.1665 3.00542 62.4487 2.72354 63.8509 2.5066L63.5451 0.530113C62.0907 0.755129 60.5507 1.07452 59.1037 1.81193L60.0117 3.5939ZM63.8443 2.50759C64.0983 2.47002 64.3698 2.40594 64.5479 2.36851C64.7517 2.3257 64.9007 2.30138 65.0335 2.29677L64.9643 0.297975C64.6523 0.308788 64.365 0.363268 64.1367 0.411244C63.8827 0.46461 63.7262 0.503305 63.5516 0.529119L63.8443 2.50759ZM64.9417 2.29574C65.2096 2.31107 65.8407 2.35525 66.3929 1.88442L65.0952 0.362584C65.113 0.347344 65.1371 0.331595 65.1649 0.319212C65.1917 0.307288 65.2115 0.30309 65.2177 0.302016C65.2223 0.301222 65.2142 0.303057 65.1856 0.303404C65.1557 0.303766 65.117 0.302496 65.056 0.29901L64.9417 2.29574ZM66.1696 2.02844C66.8216 1.72184 67.5181 1.71632 68.5391 1.66396L68.4366 -0.333419C67.5871 -0.289851 66.4114 -0.295372 65.3185 0.218566L66.1696 2.02844ZM68.5349 1.66416C69.5871 1.61454 70.6143 1.48143 71.6277 1.30225L71.2795 -0.667204C70.3261 -0.498641 69.3865 -0.378221 68.4407 -0.333622L68.5349 1.66416ZM71.5527 1.31261C75.1578 0.953725 78.7253 0.848649 82.2734 1.29431L82.5226 -0.690097C78.7744 -1.1609 75.0457 -1.045 71.3546 -0.677558L71.5527 1.31261ZM82.2317 1.28818C83.2802 1.46505 84.3789 1.61568 85.4927 1.64939L85.5532 -0.349691C84.5728 -0.379363 83.5773 -0.513096 82.5643 -0.683963L82.2317 1.28818ZM85.4727 1.64858C86.4198 1.69629 87.1598 1.75925 87.8381 2.06623L88.6628 0.244153C87.5962 -0.238564 86.4967 -0.302371 85.5733 -0.348883L85.4727 1.64858ZM87.6611 1.96306C88.005 2.21397 88.357 2.26063 88.5825 2.27078C88.6809 2.2752 88.789 2.27307 88.8313 2.27286C88.891 2.27256 88.9092 2.27401 88.9149 2.27465L89.1417 0.287551C89.0122 0.272777 88.8955 0.272512 88.8213 0.272883C88.7705 0.273137 88.7609 0.273499 88.7246 0.273559C88.6988 0.273602 88.6831 0.273279 88.6724 0.272797C88.6503 0.271803 88.6674 0.27067 88.7029 0.28056C88.744 0.292008 88.7935 0.313517 88.8398 0.347329L87.6611 1.96306ZM88.9463 2.27774C90.5626 2.41069 92.0258 2.91875 93.7921 3.37102L94.2882 1.43353C92.7229 1.03272 90.951 0.435877 89.1103 0.284467L88.9463 2.27774ZM93.7742 3.36627C93.9771 3.42224 94.0286 3.46656 94.0555 3.4953L95.5167 2.12979C95.1306 1.71657 94.6745 1.53991 94.306 1.43828L93.7742 3.36627ZM94.0467 3.4858C94.5146 3.99975 95.1277 4.02363 95.4615 3.99916L95.3153 2.00451C95.2686 2.00794 95.2793 2.00106 95.3223 2.0126C95.3467 2.01914 95.3812 2.03152 95.4199 2.05413C95.4595 2.07723 95.4956 2.10644 95.5255 2.13929L94.0467 3.4858ZM95.0853 3.95479C95.4044 4.05629 95.7242 4.13718 96.0139 4.20975C96.313 4.28466 96.5787 4.35043 96.8369 4.42871C97.3457 4.58301 97.7472 4.7645 98.0814 5.05338L99.3894 3.54039C98.7555 2.99245 98.0545 2.708 97.4172 2.51477C97.1023 2.41928 96.7841 2.34089 96.4999 2.26968C96.2063 2.19614 95.9433 2.12896 95.6915 2.04888L95.0853 3.95479ZM97.8924 4.83495C98.0181 5.03172 98.1856 5.17816 98.3723 5.27542C98.5446 5.36512 98.7042 5.39758 98.7956 5.41239C98.8425 5.41999 98.8846 5.42479 98.9091 5.42753C98.9407 5.43107 98.9464 5.4316 98.9556 5.4328C98.9723 5.435 98.9167 5.43004 98.8395 5.39912L99.5828 3.54239C99.4264 3.47978 99.2856 3.45897 99.2157 3.44979C99.1815 3.44531 99.1434 3.44127 99.1315 3.43994C99.1124 3.4378 99.1111 3.43742 99.1154 3.43811C99.1215 3.43911 99.1988 3.45086 99.2962 3.50156C99.3474 3.52826 99.4013 3.56409 99.4529 3.61085C99.5045 3.65767 99.5461 3.70844 99.5783 3.75881L97.8924 4.83495ZM99.1519 5.469C99.657 5.49899 100.129 5.72808 100.668 6.15489L101.91 4.58701C101.212 4.03397 100.352 3.53673 99.2704 3.47251L99.1519 5.469ZM101.289 6.37095H101.305V4.37095H101.289V6.37095ZM100.981 6.31716C102.407 6.80469 103.731 7.52061 105.106 8.30738L106.1 6.57148C104.715 5.77884 103.248 4.97873 101.628 4.42474L100.981 6.31716ZM105.11 8.30925C105.142 8.32758 105.175 8.34587 105.201 8.36008C105.228 8.37539 105.25 8.38774 105.27 8.39948C105.312 8.42322 105.333 8.43702 105.344 8.44534C105.354 8.45275 105.349 8.4502 105.337 8.43731C105.324 8.42311 105.309 8.4025 105.296 8.37733L107.084 7.47966C106.789 6.89358 106.206 6.63175 106.096 6.5696L105.11 8.30925ZM105.347 8.46657C105.569 8.81443 106.028 9.26066 106.751 9.21046L106.613 7.21526C106.722 7.20768 106.836 7.23832 106.927 7.29554C106.967 7.32053 106.994 7.34527 107.01 7.36198C107.025 7.37845 107.032 7.38937 107.033 7.39043L105.347 8.46657ZM106.463 9.18863C106.821 9.26889 107.146 9.48912 107.505 9.87412L108.967 8.50959C108.471 7.97812 107.811 7.44119 106.901 7.23709L106.463 9.18863ZM108.941 9.90059L108.973 9.8689L107.562 8.45143L107.53 8.48312L108.941 9.90059ZM107.826 10.1039C108.628 10.4646 108.947 10.5785 109.158 10.9265L110.867 9.88802C110.254 8.87928 109.177 8.51865 108.646 8.27979L107.826 10.1039ZM109.307 11.1159L109.323 11.1322L110.735 9.71486L110.718 9.69859L109.307 11.1159ZM109.487 11.2636C110.108 11.6651 110.525 11.89 110.865 12.2405L112.301 10.8489C111.753 10.2829 111.027 9.87744 110.571 9.5834L109.487 11.2636ZM111.086 12.4126C112.267 13.0885 113.286 13.9023 114.157 14.9133L115.672 13.6081C114.638 12.4076 113.437 11.4536 112.08 10.6768L111.086 12.4126ZM114.083 14.8163C114.262 15.0844 114.539 15.4192 115.012 15.6219L115.799 13.7834C115.801 13.784 115.804 13.7858 115.808 13.7885C115.812 13.791 115.813 13.7924 115.811 13.7904C115.805 13.7849 115.785 13.764 115.746 13.7051L114.083 14.8163ZM114.915 15.5739C115.132 15.6964 115.24 15.7535 115.336 15.8264C115.411 15.8828 115.427 15.9131 115.435 15.9299L117.248 15.0857C116.894 14.324 116.169 13.985 115.897 13.8314L114.915 15.5739ZM115.94 16.4237C116.164 16.5218 116.37 16.6835 116.599 16.9363L118.083 15.5953C117.74 15.216 117.313 14.8415 116.743 14.5919L115.94 16.4237ZM116.617 16.9559C118.981 19.4352 121.242 21.8755 123.109 24.6553L124.769 23.5402C122.797 20.6036 120.427 18.0539 118.064 15.5757L116.617 16.9559ZM123.112 24.6595C123.965 25.9162 124.753 26.8848 125.275 28.0819L127.108 27.2826C126.488 25.8588 125.5 24.6158 124.766 23.536L123.112 24.6595ZM125.194 27.6085C125.134 28.4205 125.73 28.8393 125.907 28.962L127.048 27.319C126.985 27.2754 127.026 27.2939 127.075 27.3619C127.106 27.4033 127.14 27.4634 127.164 27.5408C127.188 27.6195 127.194 27.694 127.189 27.756L125.194 27.6085ZM125.728 28.8029C126.54 29.721 127.058 30.8134 127.481 32.0613L129.375 31.4195C128.91 30.0465 128.285 28.6756 127.227 27.4781L125.728 28.8029ZM127.561 32.2397C127.579 32.2706 127.592 32.2959 127.628 32.3659C127.658 32.4229 127.707 32.5162 127.772 32.6129L129.433 31.5C129.435 31.5016 129.428 31.4922 129.402 31.4426C129.383 31.4059 129.34 31.3208 129.294 31.2411L127.561 32.2397ZM128.008 32.8608C127.904 32.7835 127.893 32.6923 127.926 32.7941C127.933 32.8184 127.942 32.8469 127.953 32.8877C127.964 32.9239 127.979 32.9776 127.994 33.0289C128.025 33.1334 128.074 33.2815 128.152 33.4371L129.94 32.5413C129.94 32.5417 129.937 32.536 129.932 32.5211C129.926 32.5058 129.919 32.4849 129.91 32.4537C129.903 32.4304 129.856 32.2638 129.829 32.1809C129.755 31.9508 129.602 31.5513 129.197 31.2521L128.008 32.8608Z" fill="#FFD263"/>
<path d="M60.7324 34.8594H84.1805C89.01 34.8594 92.8103 35.9794 95.5813 38.2204C98.3769 40.4605 99.7747 43.3761 99.7747 46.9662C99.7747 50.8364 98.2244 54.0056 95.123 56.4757C92.0479 58.9449 87.8029 60.1804 82.3888 60.1804C80.5081 60.1804 78.5758 60.0531 76.5935 59.7985V72.86C76.5935 74.9219 77.0001 76.4119 77.8134 77.3283C78.652 78.2447 80.1515 78.8939 82.3125 79.2757V80.6121H60.7324V79.2757C63.0451 78.8175 64.5835 78.1302 65.346 77.2138C66.1338 76.2719 66.5277 74.6419 66.5277 72.3254V42.4588C66.5277 40.3714 66.1592 38.9323 65.4222 38.1432C64.6852 37.3541 63.1214 36.7049 60.7324 36.1958V34.8594ZM80.4446 37.4559H76.5935V57.0858C77.7625 57.4422 78.8816 57.6204 79.949 57.6204C82.7454 57.6204 84.931 56.7294 86.5067 54.9466C88.0824 53.1393 88.8703 50.6183 88.8703 47.3854C88.8703 44.4325 88.0951 42.0388 86.5448 40.206C84.9946 38.3723 82.9606 37.4559 80.4446 37.4559Z" fill="#2D2D2D"/>
</g>
</svg>
