<svg width="24" height="24" viewBox="0 0 24 24" fill="none" xmlns="http://www.w3.org/2000/svg">
<path fill-rule="evenodd" clip-rule="evenodd" d="M0 0H24V24H0V0Z" fill="white"/>
<path fill-rule="evenodd" clip-rule="evenodd" d="M11.9752 17.3679C13.2437 18.5081 14.9471 19.1997 16.8 19.1997C20.7793 19.1997 24 16.0334 24 12.1391C24 8.23286 20.7793 5.06641 16.8 5.06641C14.9471 5.06641 13.2437 5.7579 11.9752 6.89829C10.5203 8.19631 9.59998 10.0646 9.59998 12.1391C9.60012 14.2135 10.5203 16.082 11.9752 17.3679Z" fill="#E9B040"/>
<path fill-rule="evenodd" clip-rule="evenodd" d="M22.9333 16.2594C22.9333 16.1152 23.0488 16 23.1929 16C23.3514 16 23.4667 16.1154 23.4667 16.2594C23.4667 16.4181 23.3513 16.5333 23.1929 16.5333C23.0488 16.5333 22.9333 16.4181 22.9333 16.2594ZM23.1929 16.4758C23.3083 16.4758 23.409 16.3747 23.409 16.2595C23.409 16.1444 23.3081 16.0578 23.1929 16.0578C23.0917 16.0578 22.9911 16.1444 22.9911 16.2595C22.9911 16.3747 23.0919 16.4758 23.1929 16.4758ZM23.164 16.3893H23.1063V16.1442H23.2071C23.2217 16.1442 23.2506 16.1442 23.2649 16.1588C23.2937 16.173 23.2937 16.1876 23.2937 16.2165C23.2937 16.2453 23.2795 16.2741 23.2506 16.2741L23.3083 16.3895H23.236L23.2071 16.2884H23.164V16.3893V16.2451H23.2217C23.236 16.2451 23.236 16.2305 23.236 16.2163C23.236 16.2017 23.236 16.2017 23.2217 16.1874H23.164V16.3893Z" fill="#E9B040"/>
<path fill-rule="evenodd" clip-rule="evenodd" d="M14.3627 11.387C14.3378 11.1323 14.288 10.8897 14.2383 10.6349H9.83616C9.88593 10.3801 9.96057 10.1376 10.0351 9.89484H14.0269C13.9403 9.63945 13.8407 9.38842 13.7285 9.14266H10.3461C10.4705 8.8857 10.6074 8.63469 10.7565 8.39049H13.3058C13.1418 8.1314 12.959 7.88409 12.7588 7.65046H11.3037C11.5288 7.38231 11.774 7.13089 12.0374 6.89829C10.7566 5.77003 9.06531 5.06641 7.2 5.06641C3.23316 5.06641 0 8.23286 0 12.1391C0 16.0334 3.23316 19.1997 7.2 19.1997C9.06531 19.1997 10.7565 18.5081 12.0374 17.3679C12.2967 17.1393 12.5379 16.8919 12.7588 16.6277H11.3037C11.1046 16.3851 10.9306 16.1425 10.7565 15.8755H13.3058C13.4661 15.6356 13.6075 15.3842 13.7287 15.1233H10.3461C10.2341 14.8808 10.1223 14.6382 10.0351 14.3832H14.0269C14.1139 14.1406 14.1762 13.886 14.2381 13.631C14.2879 13.3884 14.3376 13.1338 14.3625 12.8788C14.3877 12.6329 14.4002 12.3858 14.4 12.1386C14.4 11.8843 14.3876 11.6296 14.3627 11.387Z" fill="#CC2131"/>
<path fill-rule="evenodd" clip-rule="evenodd" d="M22.9333 13.8661C22.9333 13.7118 23.0488 13.5996 23.1929 13.5996C23.3514 13.5996 23.4667 13.712 23.4667 13.8661C23.4667 14.0065 23.3513 14.1329 23.1929 14.1329C23.0488 14.1329 22.9333 14.0064 22.9333 13.8661ZM23.1929 14.0626C23.3083 14.0626 23.409 13.9783 23.409 13.8661C23.409 13.7539 23.3081 13.6697 23.1929 13.6697C23.0917 13.6697 22.9911 13.7539 22.9911 13.8661C22.9911 13.9783 23.0919 14.0626 23.1929 14.0626ZM23.164 13.9783H23.1063V13.7538H23.2649C23.2937 13.768 23.2937 13.7961 23.2937 13.8241C23.2937 13.838 23.2795 13.8661 23.2506 13.8803L23.3083 13.9785H23.236L23.2071 13.8942H23.164V13.9783V13.8521H23.1929C23.2071 13.8521 23.2217 13.8521 23.2217 13.8379C23.236 13.8379 23.236 13.824 23.236 13.8098C23.236 13.8098 23.236 13.7959 23.2217 13.7959C23.2217 13.7817 23.2071 13.7959 23.1929 13.7959H23.164V13.9783Z" fill="white"/>
<path fill-rule="evenodd" clip-rule="evenodd" d="M9.54241 14.2961C9.30926 14.3611 9.13735 14.4004 8.96559 14.4004C8.59737 14.4004 8.37635 14.1527 8.37635 13.7097C8.37635 13.6187 8.38863 13.5274 8.40091 13.4232L8.45003 13.1237L8.48686 12.876L8.81825 10.7394H9.55469L9.46874 11.2085H9.93519L9.82468 11.9902H9.35823L9.16191 13.2669C9.14963 13.3322 9.14963 13.3712 9.14963 13.3972C9.14963 13.5667 9.22331 13.6317 9.40734 13.6317C9.4933 13.6317 9.56682 13.6188 9.6405 13.6056L9.54241 14.2961ZM11.9236 14.27C11.6537 14.3483 11.4082 14.3872 11.1381 14.3872C10.3034 14.3872 9.82468 13.9181 9.82468 12.9934C9.82468 11.9119 10.3894 11.1301 11.1748 11.1301C11.8007 11.1301 12.2058 11.5731 12.2058 12.2635C12.2058 12.4982 12.1812 12.7196 12.12 13.0323H10.5857C10.5734 13.0844 10.5734 13.1105 10.5734 13.1366C10.5734 13.5014 10.8066 13.6837 11.2485 13.6837C11.5307 13.6837 11.7762 13.6187 12.0463 13.4885L11.9236 14.27ZM11.4695 12.407V12.2506C11.4695 11.9901 11.3344 11.8467 11.1013 11.8467C10.8557 11.8467 10.6839 12.042 10.6102 12.4068H11.4695V12.407ZM3.65086 14.3351H2.88986L3.33175 11.3778L2.3376 14.3351H1.8099L1.7485 11.3908L1.28205 14.3351H0.533325L1.1347 10.4918H2.25165L2.2762 12.8632L3.02493 10.4918H4.25238L3.65086 14.3351ZM5.50439 12.9412C5.43072 12.928 5.40616 12.928 5.35705 12.928C4.91515 12.928 4.69428 13.1103 4.69428 13.3971C4.69428 13.5926 4.80479 13.7229 4.97655 13.7229C5.34477 13.7229 5.49197 13.3971 5.50439 12.9412ZM6.11805 14.3351H5.45528L5.46756 14.0095C5.29565 14.2569 5.0625 14.3872 4.65744 14.3872C4.28922 14.3872 3.97011 14.0356 3.97011 13.5274C3.97011 13.3842 3.99467 13.254 4.03151 13.1237C4.15415 12.6414 4.60832 12.342 5.30793 12.3288C5.39388 12.3288 5.52881 12.3288 5.6516 12.342C5.67601 12.2377 5.67601 12.1984 5.67601 12.1334C5.67601 11.9249 5.51653 11.8597 5.16058 11.8597C4.93971 11.8597 4.69413 11.8988 4.52237 11.964L4.41186 11.9901L4.36275 12.0029L4.47326 11.2994C4.8292 11.1821 5.08691 11.1301 5.36933 11.1301C6.0321 11.1301 6.38804 11.4558 6.38804 12.0551C6.38804 12.2115 6.40032 12.3288 6.3512 12.6675L6.17944 13.788L6.15489 13.9835L6.14261 14.1399L6.13033 14.2441L6.11805 14.3351ZM15.6304 11.2344C15.8513 11.2344 16.0478 11.2996 16.3178 11.4428L16.4527 10.6089C16.379 10.5698 16.3544 10.5698 16.2564 10.5307L15.9497 10.4395C15.8514 10.4134 15.7288 10.4004 15.5936 10.4004C15.2129 10.4004 14.9921 10.4134 14.7591 10.5568C14.6363 10.648 14.4766 10.7653 14.3047 10.9737L14.2065 10.9477L13.4209 11.5339L13.4579 11.2082H12.6477L12.1692 14.3349H12.9427L13.2248 12.6545C13.2248 12.6545 13.3354 12.4197 13.3844 12.3418C13.5317 12.1463 13.6544 12.1463 13.8139 12.1463H13.8754C13.8496 12.3449 13.8373 12.5451 13.8384 12.7456C13.8384 13.7617 14.3784 14.4002 15.2131 14.4002C15.4218 14.4002 15.6062 14.3742 15.8883 14.296L16.0235 13.4101C15.7781 13.5533 15.557 13.6185 15.3729 13.6185C14.9188 13.6185 14.6485 13.2537 14.6485 12.6805C14.6483 11.8336 15.0535 11.2344 15.6304 11.2344ZM22.1476 10.4918L21.976 11.5862C21.7918 11.2865 21.5708 11.1432 21.2763 11.1432C20.871 11.1432 20.4907 11.3907 20.2574 11.8597V11.8468L19.7665 11.534L19.8156 11.2083H18.9932L18.5268 14.3351H19.2878L19.5457 12.6546C19.5457 12.6546 19.742 12.4199 19.7911 12.342C19.9139 12.1856 20.0365 12.1593 20.1348 12.1465C20.0489 12.407 19.9998 12.7196 19.9998 13.0716C19.9998 13.8533 20.3802 14.3743 20.9447 14.3743C21.2271 14.3743 21.448 14.2701 21.6566 14.0224L21.6199 14.3351H22.3442L22.9333 10.4918H22.1476ZM21.2027 13.5926C20.9449 13.5926 20.8099 13.3842 20.8099 12.9802C20.8099 12.3677 21.0554 11.9249 21.4112 11.9249C21.6812 11.9249 21.8164 12.1465 21.8164 12.5373C21.8164 13.1626 21.5709 13.5926 21.2027 13.5926ZM17.6557 12.9412C17.582 12.928 17.5575 12.928 17.5084 12.928C17.0662 12.928 16.8453 13.1103 16.8453 13.3971C16.8453 13.5926 16.956 13.7229 17.1277 13.7229C17.4959 13.7229 17.6433 13.3971 17.6557 12.9412ZM18.2694 14.3351H17.5942L17.6187 14.0095C17.447 14.2569 17.2135 14.3872 16.8088 14.3872C16.4281 14.3872 16.0969 14.0485 16.0969 13.5274C16.0969 12.785 16.6244 12.3289 17.4591 12.3289C17.5452 12.3289 17.68 12.3289 17.7906 12.3421C17.8152 12.2379 17.8276 12.1986 17.8276 12.1336C17.8276 11.925 17.668 11.8599 17.2998 11.8599C17.091 11.8599 16.8333 11.899 16.6616 11.9641L16.5633 11.9902L16.5142 12.0031L16.6246 11.2996C16.9807 11.1823 17.2385 11.1303 17.5206 11.1303C18.1834 11.1303 18.5271 11.456 18.5271 12.0552C18.5271 12.2116 18.5516 12.3289 18.4904 12.6677L18.3308 13.7881L18.3062 13.9836L18.2817 14.14L18.2695 14.2443V14.3351H18.2694ZM7.72586 11.8727C7.87321 11.8727 8.0818 11.8858 8.30282 11.9249L8.41333 11.1953C8.19231 11.1692 7.89776 11.1301 7.72586 11.1301C6.86677 11.1301 6.5845 11.6253 6.5845 12.1984C6.5845 12.5764 6.74398 12.8498 7.16132 13.0582C7.46815 13.2146 7.51726 13.2405 7.51726 13.3841C7.51726 13.5793 7.35778 13.6967 7.06309 13.6967C6.82994 13.6967 6.60892 13.6575 6.36348 13.5664L6.27753 14.2828L6.28966 14.296L6.43701 14.322C6.48613 14.3349 6.54752 14.3481 6.63347 14.361C6.81751 14.3742 6.97714 14.387 7.07537 14.387C7.9346 14.387 8.29054 14.0354 8.29054 13.3448C8.29054 12.915 8.09408 12.6545 7.71358 12.4722C7.3822 12.3156 7.34536 12.2898 7.34536 12.1463C7.34536 12.0031 7.49271 11.8727 7.72586 11.8727Z" fill="#1B3771"/>
<path fill-rule="evenodd" clip-rule="evenodd" d="M16.721 10.3292L16.5856 11.163C16.3152 11.0197 16.1184 10.9546 15.8971 10.9546C15.3192 10.9546 14.9136 11.5539 14.9136 12.4008C14.9136 12.9872 15.1841 13.3388 15.6391 13.3388C15.8233 13.3388 16.0447 13.2738 16.2906 13.1436L16.1554 14.0163C15.8725 14.0945 15.6882 14.1338 15.4791 14.1338C14.6432 14.1338 14.1268 13.4953 14.1268 12.4662C14.1268 11.098 14.8398 10.1338 15.8602 10.1338C15.9954 10.1338 16.1182 10.1468 16.2166 10.1729L16.5241 10.2511C16.6226 10.2902 16.6472 10.3032 16.721 10.3292ZM14.2375 10.9025H14.1637C13.9057 10.9025 13.7581 11.0328 13.5244 11.4105L13.5982 10.9284H12.8973L12.4181 14.0554H13.1928C13.4754 12.1402 13.5492 11.8144 13.918 11.8144H13.9672C14.041 11.4366 14.1392 11.1629 14.2622 10.9154L14.2375 10.9025ZM9.78708 14.0163C9.57814 14.0945 9.40595 14.1206 9.23391 14.1206C8.84048 14.1206 8.6191 13.8861 8.6191 13.4302C8.6191 13.352 8.6314 13.2479 8.64369 13.1565L8.69289 12.8439L8.72979 12.5965L9.06172 10.4595H9.82397L9.73788 10.9286H10.1313L10.0329 11.6973H9.63949L9.43055 13.0003C9.41825 13.0524 9.41825 13.0917 9.41825 13.1306C9.41825 13.287 9.49204 13.3522 9.67639 13.3522C9.76248 13.3522 9.83613 13.3522 9.88533 13.3261L9.78708 14.0163ZM6.82415 11.9187C6.82415 12.3098 6.99619 12.5832 7.40192 12.7917C7.72155 12.9481 7.77075 13.0001 7.77075 13.1305C7.77075 13.326 7.63546 13.4171 7.32812 13.4171C7.09459 13.4171 6.8855 13.3781 6.63966 13.2999L6.52897 14.0163L6.56587 14.0295L6.70116 14.0556C6.75021 14.0685 6.81185 14.0817 6.9101 14.0817C7.08214 14.1077 7.22973 14.1077 7.32812 14.1077C8.13943 14.1077 8.5207 13.7819 8.5207 13.0654C8.5207 12.6353 8.36096 12.3877 7.97983 12.1924C7.6479 12.036 7.611 11.9971 7.611 11.8537C7.611 11.6844 7.74629 11.6062 7.99213 11.6062C8.13972 11.6062 8.34866 11.6192 8.54545 11.6453L8.65599 10.9287C8.45935 10.8896 8.15202 10.8636 7.97983 10.8636C7.11918 10.8634 6.81185 11.3455 6.82415 11.9187ZM22.61 14.0556H21.8845L21.9215 13.7558C21.7124 13.9903 21.491 14.0945 21.2082 14.0945C20.6427 14.0945 20.2739 13.5867 20.2739 12.8049C20.2739 11.7625 20.8518 10.8764 21.5278 10.8764C21.8353 10.8764 22.0565 11.0198 22.2658 11.3064L22.4378 10.212H23.2001L22.61 14.0556ZM21.4788 13.326C21.8354 13.326 22.0813 12.883 22.0813 12.2705C22.0813 11.8666 21.9458 11.658 21.6754 11.658C21.3312 11.658 21.0732 12.088 21.0732 12.7005C21.0732 13.1176 21.2083 13.326 21.4788 13.326ZM12.1475 13.9903C11.8769 14.0817 11.6311 14.1206 11.3483 14.1206C10.4877 14.1206 10.0451 13.6386 10.0451 12.7135C10.0451 11.6452 10.6107 10.8504 11.3852 10.8504C12.0245 10.8504 12.4301 11.2934 12.4301 11.9839C12.4301 12.2185 12.4055 12.4401 12.3317 12.7656H10.8075C10.7952 12.8049 10.7952 12.831 10.7952 12.857C10.7952 13.2218 11.0289 13.4042 11.4713 13.4042C11.7541 13.4042 11.9999 13.352 12.2705 13.2087L12.1475 13.9903ZM11.7172 12.1271V11.9709C11.7172 11.7103 11.5819 11.567 11.3483 11.567C11.1025 11.567 10.9303 11.7625 10.8565 12.1271H11.7172ZM3.88582 14.0556H3.12357L3.56619 11.0979L2.5704 14.0556H2.04168L1.98018 11.1239L1.51311 14.0556H0.800049L1.40242 10.212H2.5089L2.5458 12.5964L3.28331 10.212H4.48819L3.88582 14.0556ZM5.79146 12.6614C5.71767 12.6614 5.68077 12.6485 5.61927 12.6485C5.18895 12.6485 4.96771 12.8178 4.96771 13.1305C4.96771 13.326 5.0661 13.4431 5.23814 13.4431C5.55778 13.4431 5.77916 13.1305 5.79146 12.6614ZM6.35693 14.0556H5.71752L5.72982 13.7297C5.53303 13.9903 5.2749 14.1077 4.91837 14.1077C4.50034 14.1077 4.21761 13.769 4.21761 13.2608C4.21761 12.4922 4.70928 12.0492 5.56993 12.0492C5.65602 12.0492 5.76672 12.0623 5.88956 12.0751C5.91416 11.971 5.91416 11.9319 5.91416 11.8798C5.91416 11.6714 5.77887 11.5932 5.42234 11.5932C5.2011 11.5932 4.95512 11.6192 4.78308 11.6714L4.67239 11.7105L4.59859 11.7235L4.70928 11.02C5.09041 10.9027 5.34855 10.8636 5.63143 10.8636C6.29529 10.8636 6.65182 11.1762 6.65182 11.7755C6.65182 11.9319 6.63952 12.0492 6.59032 12.401L6.41814 13.5086L6.39354 13.7038L6.38124 13.8602L6.36894 13.9777L6.35693 14.0556ZM17.9628 12.6614C17.8766 12.6614 17.8398 12.6485 17.7908 12.6485C17.3481 12.6485 17.1266 12.8178 17.1266 13.1305C17.1266 13.326 17.2374 13.4431 17.4095 13.4431C17.717 13.4431 17.9504 13.1305 17.9628 12.6614ZM18.5283 14.0556H17.889L17.9012 13.7297C17.7045 13.9903 17.4464 14.1077 17.0899 14.1077C16.6718 14.1077 16.3889 13.769 16.3889 13.2608C16.3889 12.4922 16.8806 12.0492 17.7413 12.0492C17.8275 12.0492 17.9382 12.0623 18.0487 12.0751C18.0733 11.971 18.0858 11.9319 18.0858 11.8798C18.0858 11.6714 17.9504 11.5932 17.5941 11.5932C17.3726 11.5932 17.1146 11.6192 16.9424 11.6714L16.844 11.7105L16.7702 11.7235L16.8808 11.02C17.262 10.9027 17.52 10.8636 17.8029 10.8636C18.4668 10.8636 18.811 11.1762 18.811 11.7755C18.811 11.9319 18.811 12.0492 18.7497 12.401L18.5898 13.5086L18.5652 13.7038L18.5406 13.8602L18.5284 13.9777V14.0556H18.5283ZM20.5937 10.9025H20.5199C20.2619 10.9025 20.1143 11.0328 19.8806 11.4105L19.9544 10.9284H19.2535L18.7863 14.0554H19.5485C19.8314 12.1402 19.9052 11.8144 20.274 11.8144H20.3232C20.397 11.4366 20.4953 11.1629 20.6182 10.9154L20.5937 10.9025Z" fill="white"/>
</svg>
