<svg width="40" height="40" viewBox="0 0 40 40" fill="none" xmlns="http://www.w3.org/2000/svg">
<circle cx="20" cy="20" r="20" fill="#FFD263"/>
<path d="M16.91 28.67C16.72 28.67 16.53 28.6 16.38 28.45C16.09 28.16 16.09 27.68 16.38 27.39L22.9 20.87C23.38 20.39 23.38 19.61 22.9 19.13L16.38 12.61C16.09 12.32 16.09 11.84 16.38 11.55C16.67 11.26 17.15 11.26 17.44 11.55L23.96 18.07C24.47 18.58 24.76 19.27 24.76 20C24.76 20.73 24.48 21.42 23.96 21.93L17.44 28.45C17.29 28.59 17.1 28.67 16.91 28.67Z" fill="black"/>
</svg>
