<svg width="21" height="21" viewBox="0 0 21 21" fill="none" xmlns="http://www.w3.org/2000/svg">
<path d="M10.3126 20.3957C4.73457 20.3957 0.229248 15.8904 0.229248 10.3123C0.229248 4.73432 4.73457 0.229004 10.3126 0.229004C15.8906 0.229004 20.3959 4.73432 20.3959 10.3123C20.3959 15.8904 15.8906 20.3957 10.3126 20.3957ZM10.3126 1.90241C5.67854 1.90241 1.90265 5.67829 1.90265 10.3123C1.90265 14.9464 5.67854 18.7223 10.3126 18.7223C14.9466 18.7223 18.7225 14.9464 18.7225 10.3123C18.7225 5.67829 14.9466 1.90241 10.3126 1.90241Z" fill="#2D2D2D"/>
<path d="M13.445 6.83685C14.0028 7.30884 14.2603 8.03827 14.2603 9.02515C14.2603 10.012 13.9599 10.6986 13.4021 11.1705C12.8443 11.6425 11.9432 11.8571 10.7847 11.8571H9.71204V14.5174C9.71204 14.9893 9.32587 15.4184 8.81098 15.4184C8.33899 15.4184 7.90991 15.0322 7.90991 14.5174V6.92267C7.90991 6.45068 8.29608 6.10742 8.72516 6.10742H10.6989C12.0291 6.10742 12.9301 6.36487 13.445 6.83685ZM12.1578 9.92622C12.3723 9.66877 12.4581 9.32551 12.4581 8.89643C12.4581 8.46735 12.3294 8.12409 12.0291 7.90955C11.7716 7.73792 11.3425 7.6092 10.7418 7.6092H9.71204V10.3124H10.9135C11.5571 10.3124 11.9432 10.1837 12.1578 9.92622Z" fill="#2D2D2D"/>
</svg>
