<svg width="24" height="24" viewBox="0 0 24 24" fill="none" xmlns="http://www.w3.org/2000/svg">
<path d="M18.0014 7.25288C17.8911 7.18723 17.7555 7.18266 17.6412 7.2407C17.5271 7.29888 17.4499 7.41162 17.4362 7.54012C17.4227 7.66509 17.4016 7.79001 17.3752 7.92108C16.6375 11.3062 15.156 12.9526 12.8449 12.9526H9.45394C9.27514 12.953 9.1212 13.0803 9.08546 13.2574L7.95514 18.6143L7.7532 19.9781C7.6371 20.5983 8.0402 21.1962 8.65353 21.3136C8.72118 21.3265 8.78981 21.3332 8.85865 21.3335H11.1268C11.6467 21.3351 12.0999 20.9764 12.2232 20.4657L13.1395 16.7621H15.1055C17.4257 16.7621 19.0292 14.8917 19.6207 11.4952C20.0112 9.87782 19.3652 8.18562 18.0014 7.25288Z" fill="#03A9F4"/>
<path d="M17.4359 4.29133C16.6813 3.43744 15.5983 2.9438 14.4571 2.93362H8.13292C7.18647 2.92855 6.3807 3.6193 6.24332 4.5534L4.27961 17.6208C4.18555 18.245 4.61651 18.827 5.24224 18.9209C5.29902 18.9294 5.35641 18.9336 5.41384 18.9336H8.34681C8.52804 18.9333 8.68407 18.8059 8.7203 18.6288L9.80108 13.6003H12.9326C15.6502 13.6003 17.4459 11.7054 18.2708 7.96218C18.304 7.81297 18.3294 7.66218 18.3472 7.51036C18.5386 6.35554 18.2046 5.17565 17.4359 4.29133Z" fill="#283593"/>
</svg>
