<?xml version="1.0" encoding="UTF-8" standalone="no"?>
<!-- Created with Inkscape (http://www.inkscape.org/) -->

<svg
   xmlns:dc="http://purl.org/dc/elements/1.1/"
   xmlns:cc="http://creativecommons.org/ns#"
   xmlns:rdf="http://www.w3.org/1999/02/22-rdf-syntax-ns#"
   xmlns:svg="http://www.w3.org/2000/svg"
   xmlns="http://www.w3.org/2000/svg"
   xmlns:sodipodi="http://sodipodi.sourceforge.net/DTD/sodipodi-0.dtd"
   xmlns:inkscape="http://www.inkscape.org/namespaces/inkscape"
   width="106.44926"
   height="114.5055"
   id="svg3111"
   version="1.1"
   inkscape:version="0.47 r22583"
   sodipodi:docname="Nouveau document 7">
  <defs
     id="defs3113">
    <inkscape:perspective
       sodipodi:type="inkscape:persp3d"
       inkscape:vp_x="0 : 526.18109 : 1"
       inkscape:vp_y="0 : 1000 : 0"
       inkscape:vp_z="744.09448 : 526.18109 : 1"
       inkscape:persp3d-origin="372.04724 : 350.78739 : 1"
       id="perspective3119" />
    <inkscape:perspective
       id="perspective3067"
       inkscape:persp3d-origin="0.5 : 0.33333333 : 1"
       inkscape:vp_z="1 : 0.5 : 1"
       inkscape:vp_y="0 : 1000 : 0"
       inkscape:vp_x="0 : 0.5 : 1"
       sodipodi:type="inkscape:persp3d" />
  </defs>
  <sodipodi:namedview
     id="base"
     pagecolor="#ffffff"
     bordercolor="#666666"
     borderopacity="1.0"
     inkscape:pageopacity="0.0"
     inkscape:pageshadow="2"
     inkscape:zoom="1.4"
     inkscape:cx="-9.0758708"
     inkscape:cy="41.348467"
     inkscape:document-units="px"
     inkscape:current-layer="layer1"
     showgrid="false"
     inkscape:window-width="573"
     inkscape:window-height="499"
     inkscape:window-x="1"
     inkscape:window-y="51"
     inkscape:window-maximized="0" />
  <metadata
     id="metadata3116">
    <rdf:RDF>
      <cc:Work
         rdf:about="">
        <dc:format>image/svg+xml</dc:format>
        <dc:type
           rdf:resource="http://purl.org/dc/dcmitype/StillImage" />
        <dc:title></dc:title>
      </cc:Work>
    </rdf:RDF>
  </metadata>
  <g
     inkscape:label="Calque 1"
     inkscape:groupmode="layer"
     id="layer1"
     transform="translate(-289.63252,-563.68086)">
    <path
       style="fill:#081d5c;fill-opacity:1;stroke:none;display:inline"
       d="m 396.08177,563.68086 c -15.25994,10.81003 -53.32805,39.13699 -100.75,34.09375 l -2.53125,-0.0312 0,20.8125 c 6.04957,0.80427 13.07816,0.83163 21.21875,-0.34375 47.22463,-6.81854 82.0625,-54.53125 82.0625,-54.53125 z"
       id="path2833" />
    <path
       style="fill:#081d5c;fill-opacity:1;stroke:none;display:inline"
       d="m 384.61302,607.18086 c -55.67305,0.96576 -89.8125,39.78125 -89.8125,39.78125 10.48798,-6.74866 46.58365,-29.44149 98,-15.125 l 0,-24.5 c -2.7762,-0.13723 -5.50954,-0.2027 -8.1875,-0.15625 z"
       id="path2835" />
    <rect
       transform="matrix(0.70675181,-0.70746158,0.70746158,0.70675181,0,0)"
       y="648.64642"
       x="-226.63196"
       height="11.139657"
       width="11.069153"
       id="rect2841"
       style="color:#000000;fill:#081d5c;fill-opacity:1;fill-rule:evenodd;stroke:none;stroke-width:4;marker:none;visibility:visible;display:inline;overflow:visible;enable-background:accumulate" />
    <rect
       style="color:#000000;fill:#fdc613;fill-opacity:1;fill-rule:evenodd;stroke:none;stroke-width:4;marker:none;visibility:visible;display:inline;overflow:visible;enable-background:accumulate"
       id="rect2837"
       width="11.069153"
       height="11.139657"
       x="-227.55411"
       y="646.56201"
       transform="matrix(0.70675181,-0.70746158,0.70746158,0.70675181,0,0)" />
    <rect
       transform="matrix(0.70675181,-0.70746158,0.70746158,0.70675181,0,0)"
       y="686.10468"
       x="-174.73831"
       height="11.139657"
       width="11.069153"
       id="rect2841-8"
       style="color:#000000;fill:#081d5c;fill-opacity:1;fill-rule:evenodd;stroke:none;stroke-width:4;marker:none;visibility:visible;display:inline;overflow:visible;enable-background:accumulate" />
    <rect
       style="color:#000000;fill:#fdc613;fill-opacity:1;fill-rule:evenodd;stroke:none;stroke-width:4;marker:none;visibility:visible;display:inline;overflow:visible;enable-background:accumulate"
       id="rect2837-1"
       width="11.069153"
       height="11.139657"
       x="-177.07538"
       y="685.43378"
       transform="matrix(0.70675181,-0.70746158,0.70746158,0.70675181,0,0)" />
    <rect
       transform="matrix(0.70675181,-0.70746158,0.70746158,0.70675181,0,0)"
       y="695.30585"
       x="-165.18936"
       height="11.139657"
       width="11.069153"
       id="rect2841-8-9"
       style="color:#000000;fill:#081d5c;fill-opacity:1;fill-rule:evenodd;stroke:none;stroke-width:4;marker:none;visibility:visible;display:inline;overflow:visible;enable-background:accumulate" />
    <rect
       style="color:#000000;fill:#fdc613;fill-opacity:1;fill-rule:evenodd;stroke:none;stroke-width:4;marker:none;visibility:visible;display:inline;overflow:visible;enable-background:accumulate"
       id="rect2837-1-1"
       width="11.069153"
       height="11.139657"
       x="-167.52643"
       y="694.63495"
       transform="matrix(0.70675181,-0.70746158,0.70746158,0.70675181,0,0)" />
    <g
       transform="matrix(1.1825849,0,0,0.84560526,32.935439,85.579452)"
       style="font-size:21.16187859px;font-style:normal;font-variant:normal;font-weight:normal;font-stretch:normal;text-align:justify;line-height:100%;writing-mode:lr-tb;text-anchor:start;fill:#081d5c;fill-opacity:1;stroke:none;display:inline;font-family:Hacen Dalal Text;-inkscape-font-specification:Hacen Dalal Text"
       id="text2893">
      <path
         d="m 304.14535,668.05191 1.56027,0 -0.0103,8.65902 c 0,0.4271 0,0.84386 0,1.25028 0,0.40644 -0.0103,0.7922 -0.031,1.15729 -0.0207,0.35821 -0.062,0.68887 -0.12399,0.99197 -0.0551,0.29621 -0.14122,0.55109 -0.25833,0.76463 -0.11022,0.20666 -0.25832,0.36855 -0.44431,0.48565 -0.186,0.11022 -0.42021,0.155 -0.70264,0.13433 l 0.0103,-13.44317"
         id="path2977" />
      <path
         d="m 300.89047,668.05191 1.56028,0 c -0.007,1.45352 -0.0138,2.90013 -0.0207,4.33984 -0.007,1.43285 -0.0103,2.87601 -0.0103,4.32951 0,0.64754 -0.0586,1.21585 -0.17566,1.70493 -0.11022,0.48221 -0.26177,0.90242 -0.45465,1.26062 -0.186,0.35133 -0.40643,0.64409 -0.66131,0.87831 -0.25488,0.22732 -0.52698,0.41332 -0.8163,0.55797 -0.28244,0.13778 -0.57176,0.23422 -0.86797,0.28933 -0.29621,0.0551 -0.58553,0.0827 -0.86797,0.0827 l -0.12399,0 -0.23766,-1.89093 0.76464,0 c 0.24799,0 0.48565,-0.062 0.71297,-0.18599 0.22733,-0.12399 0.43054,-0.31343 0.60965,-0.56831 0.1791,-0.25488 0.32032,-0.57176 0.42365,-0.95064 0.10332,-0.37886 0.15499,-0.82663 0.15499,-1.34328 l 0.0103,-8.50402"
         id="path2979" />
      <path
         d="m 294.39105,671.95777 1.56027,0 -0.0103,4.87715 c 0.0207,0.46843 0.0861,0.87831 0.19632,1.22962 0.11022,0.34444 0.25143,0.63032 0.42365,0.85764 0.17222,0.22733 0.36854,0.39954 0.58898,0.51664 0.22043,0.11023 0.4512,0.16533 0.69231,0.16533 l 0.39265,0 0.21699,1.89093 -0.23765,0 c -0.26178,0 -0.53043,-0.0241 -0.80597,-0.0723 -0.27555,-0.0482 -0.54765,-0.13088 -0.81631,-0.24799 -0.26866,-0.11711 -0.52698,-0.27554 -0.77497,-0.47532 -0.2411,-0.19976 -0.4581,-0.4512 -0.65097,-0.7543 -0.19289,0.29621 -0.40988,0.5442 -0.65098,0.74397 -0.2411,0.19977 -0.49598,0.35821 -0.76464,0.47532 -0.26177,0.1171 -0.53042,0.20321 -0.80597,0.25832 -0.27554,0.0482 -0.54076,0.0723 -0.79563,0.0723 l -0.22733,-1.89093 0.57865,0 c 0.23421,0 0.45809,-0.0551 0.67164,-0.16533 0.22043,-0.1171 0.41676,-0.28931 0.58898,-0.51664 0.1791,-0.22732 0.32376,-0.5132 0.43398,-0.85764 0.11022,-0.35131 0.17566,-0.76119 0.19633,-1.22962 l 0,-4.87715 m 0.74397,11.04592 c 0.14466,0 0.27898,0.0276 0.40298,0.0827 0.13088,0.0551 0.24455,0.13089 0.34099,0.22733 0.0964,0.0964 0.17221,0.20666 0.22732,0.33065 0.0551,0.124 0.0827,0.25488 0.0827,0.39266 -10e-6,0.14466 -0.0276,0.27898 -0.0827,0.40298 -0.0551,0.13088 -0.13088,0.24455 -0.22732,0.34099 -0.0964,0.10333 -0.21011,0.18255 -0.34099,0.23766 -0.124,0.0551 -0.25832,0.0827 -0.40298,0.0827 -0.14467,0 -0.27899,-0.0276 -0.40299,-0.0827 -0.124,-0.0551 -0.23421,-0.13433 -0.33065,-0.23766 -0.0896,-0.0964 -0.16189,-0.21011 -0.21699,-0.34099 -0.0551,-0.124 -0.0827,-0.25832 -0.0827,-0.40298 0,-0.13778 0.0276,-0.26866 0.0827,-0.39266 0.0551,-0.12399 0.12743,-0.23421 0.21699,-0.33065 0.0964,-0.0964 0.20665,-0.17222 0.33065,-0.22733 0.124,-0.0551 0.25832,-0.0827 0.40299,-0.0827"
         id="path2981" />
      <path
         d="m 287.99495,671.92677 1.56028,0 -0.0103,4.14351 c 0.007,0.26178 0.0207,0.52355 0.0413,0.78531 0.0207,0.26177 0.0551,0.51665 0.10333,0.76463 0.0551,0.24111 0.12399,0.47533 0.20665,0.70265 0.0896,0.22044 0.20322,0.42021 0.34099,0.59931 0.16532,0.22733 0.35821,0.39954 0.57865,0.51664 0.22043,0.11023 0.4512,0.16533 0.6923,0.16533 l 0.39266,0 0.22732,1.89093 -0.24799,0 c -0.39955,0 -0.81631,-0.0586 -1.25029,-0.17566 -0.4271,-0.12399 -0.82664,-0.34787 -1.19862,-0.67164 -0.0758,0.65442 -0.18944,1.21929 -0.34099,1.6946 -0.15155,0.47532 -0.34787,0.8783 -0.58897,1.20896 -0.24111,0.33754 -0.53043,0.61308 -0.86797,0.82663 -0.33755,0.21355 -0.72675,0.38232 -1.16762,0.50632 l -0.0207,-1.96326 c 0.2411,-0.13777 0.45809,-0.31343 0.65098,-0.52698 0.19288,-0.22044 0.35476,-0.49254 0.48564,-0.81631 0.13777,-0.33065 0.2411,-0.72674 0.30999,-1.18828 0.0689,-0.46843 0.10333,-1.01952 0.10333,-1.65328 l 0,-6.80941"
         id="path2983" />
      <path
         d="m 283.2418,671.95777 1.56027,0 c 0,0.79909 -0.003,1.59473 -0.0103,2.38691 -10e-6,0.7922 -10e-6,1.58439 0,2.37658 -10e-6,0.64754 -0.0586,1.21585 -0.17566,1.70493 -0.11022,0.48221 -0.26177,0.90242 -0.45465,1.26062 -0.186,0.35133 -0.40643,0.64409 -0.66131,0.87831 -0.25488,0.22732 -0.52698,0.41332 -0.8163,0.55797 -0.28244,0.13778 -0.57521,0.23422 -0.8783,0.28933 -0.29622,0.0551 -0.58554,0.0827 -0.86797,0.0827 l -0.11366,0 -0.22733,-1.89093 0.74397,0 c 0.24799,0 0.48565,-0.062 0.71298,-0.18599 0.22732,-0.12399 0.42709,-0.31343 0.59931,-0.56831 0.1791,-0.25488 0.32032,-0.57176 0.42365,-0.95064 0.11021,-0.37886 0.16532,-0.82663 0.16533,-1.34328 l 0,-4.59816 m 0.8473,11.04592 c 0.14466,0 0.27898,0.0276 0.40298,0.0827 0.13088,0.0551 0.24455,0.13089 0.34099,0.22733 0.0964,0.0964 0.17221,0.20666 0.22733,0.33065 0.0551,0.124 0.0827,0.25488 0.0827,0.39266 -10e-6,0.14466 -0.0276,0.27898 -0.0827,0.40298 -0.0551,0.13088 -0.13089,0.24455 -0.22733,0.34099 -0.0964,0.10333 -0.21011,0.18255 -0.34099,0.23766 -0.124,0.0551 -0.25832,0.0827 -0.40298,0.0827 -0.13778,0 -0.27211,-0.0276 -0.40299,-0.0827 -0.124,-0.0551 -0.23421,-0.13433 -0.33065,-0.23766 -0.0896,-0.0964 -0.16189,-0.21011 -0.21699,-0.34099 -0.0551,-0.124 -0.0827,-0.25832 -0.0827,-0.40298 0,-0.13778 0.0276,-0.26866 0.0827,-0.39266 0.0551,-0.12399 0.12743,-0.23421 0.21699,-0.33065 0.0964,-0.0964 0.20665,-0.17222 0.33065,-0.22733 0.13088,-0.0551 0.26521,-0.0827 0.40299,-0.0827 m -2.35591,0 c 0.14466,0 0.27898,0.0276 0.40298,0.0827 0.13088,0.0551 0.24455,0.13089 0.34099,0.22733 0.0964,0.0964 0.17221,0.20666 0.22732,0.33065 0.0551,0.124 0.0827,0.25488 0.0827,0.39266 -1e-5,0.14466 -0.0276,0.27898 -0.0827,0.40298 -0.0551,0.13088 -0.13088,0.24455 -0.22732,0.34099 -0.0964,0.10333 -0.21011,0.18255 -0.34099,0.23766 -0.124,0.0551 -0.25832,0.0827 -0.40298,0.0827 -0.13778,0 -0.27211,-0.0276 -0.40299,-0.0827 -0.124,-0.0551 -0.23421,-0.13433 -0.33065,-0.23766 -0.0896,-0.0964 -0.16189,-0.21011 -0.217,-0.34099 -0.0551,-0.124 -0.0827,-0.25832 -0.0827,-0.40298 0,-0.13778 0.0276,-0.26866 0.0827,-0.39266 0.0551,-0.12399 0.12744,-0.23421 0.217,-0.33065 0.0964,-0.0964 0.20665,-0.17222 0.33065,-0.22733 0.13088,-0.0551 0.26521,-0.0827 0.40299,-0.0827"
         id="path2985" />
      <path
         d="m 276.38071,671.95777 c 0.33066,10e-6 0.62687,0.0207 0.88864,0.062 0.26176,0.0344 0.49253,0.093 0.6923,0.17566 0.17222,0.0689 0.34443,0.16878 0.51665,0.29965 0.1791,0.12401 0.34787,0.279 0.50632,0.46499 0.37198,0.45465 0.67163,1.0023 0.89896,1.64293 0.22732,0.64065 0.34099,1.34674 0.34099,2.11826 0,0.62687 -0.0517,1.17796 -0.15499,1.65327 -0.10334,0.46843 -0.248,0.8783 -0.43399,1.22962 l 0.92997,0 0.23766,1.89093 -5.35247,0 0.0103,-1.89093 1.31229,0 c 0.23421,0 0.46153,-0.0585 0.68197,-0.17566 0.22043,-0.12399 0.41676,-0.3031 0.58898,-0.53731 0.17221,-0.2411 0.30998,-0.54076 0.41332,-0.89897 0.10332,-0.36509 0.15499,-0.78874 0.15499,-1.27095 0,-0.49598 -0.0551,-0.92307 -0.16533,-1.28129 -0.11022,-0.3582 -0.25488,-0.65441 -0.43398,-0.88863 -0.17222,-0.23421 -0.36855,-0.40642 -0.58898,-0.51665 -0.22044,-0.1171 -0.43743,-0.17565 -0.65097,-0.17566 l -1.16763,0 0,-1.90126 0.77497,0"
         id="path2987" />
      <path
         d="m 267.73203,668.05191 1.56028,0 -0.0103,8.65902 c 0,0.4271 0,0.84386 0,1.25028 0,0.40644 -0.0103,0.7922 -0.031,1.15729 -0.0207,0.35821 -0.062,0.68887 -0.124,0.99197 -0.0551,0.29621 -0.14122,0.55109 -0.25832,0.76463 -0.11022,0.20666 -0.25833,0.36855 -0.44432,0.48565 -0.18599,0.11022 -0.4202,0.155 -0.70264,0.13433 l 0.0103,-13.44317"
         id="path2989" />
      <path
         d="m 264.47716,668.05191 1.56027,0 c -0.007,1.45352 -0.0138,2.90013 -0.0207,4.33984 -0.007,1.43285 -0.0103,2.87601 -0.0103,4.32951 0,0.64754 -0.0586,1.21585 -0.17566,1.70493 -0.11022,0.48221 -0.26177,0.90242 -0.45465,1.26062 -0.18599,0.35133 -0.40643,0.64409 -0.66131,0.87831 -0.25488,0.22732 -0.52698,0.41332 -0.8163,0.55797 -0.28244,0.13778 -0.57176,0.23422 -0.86797,0.28933 -0.29621,0.0551 -0.58553,0.0827 -0.86797,0.0827 l -0.12399,0 -0.23766,-1.89093 0.76464,0 c 0.24799,0 0.48565,-0.062 0.71297,-0.18599 0.22733,-0.12399 0.43054,-0.31343 0.60965,-0.56831 0.1791,-0.25488 0.32032,-0.57176 0.42365,-0.95064 0.10333,-0.37886 0.15499,-0.82663 0.15499,-1.34328 l 0.0103,-8.50402"
         id="path2991" />
      <path
         d="m 257.97773,671.95777 1.56028,0 -0.0103,4.87715 c 0.0207,0.46843 0.0861,0.87831 0.19632,1.22962 0.11022,0.34444 0.25143,0.63032 0.42365,0.85764 0.17221,0.22733 0.36854,0.39954 0.58898,0.51664 0.22043,0.11023 0.4512,0.16533 0.69231,0.16533 l 0.39265,0 0.21699,1.89093 -0.23765,0 c -0.26178,0 -0.53044,-0.0241 -0.80597,-0.0723 -0.27556,-0.0482 -0.54766,-0.13088 -0.81631,-0.24799 -0.26866,-0.11711 -0.52698,-0.27554 -0.77497,-0.47532 -0.2411,-0.19976 -0.4581,-0.4512 -0.65097,-0.7543 -0.19289,0.29621 -0.40988,0.5442 -0.65098,0.74397 -0.2411,0.19977 -0.49598,0.35821 -0.76464,0.47532 -0.26177,0.1171 -0.53042,0.20321 -0.80597,0.25832 -0.27554,0.0482 -0.54076,0.0723 -0.79564,0.0723 l -0.22732,-1.89093 0.57864,0 c 0.23422,0 0.4581,-0.0551 0.67165,-0.16533 0.22043,-0.1171 0.41676,-0.28931 0.58897,-0.51664 0.17911,-0.22732 0.32377,-0.5132 0.43399,-0.85764 0.11021,-0.35131 0.17566,-0.76119 0.19632,-1.22962 l 0,-4.87715 m 1.87027,-3.62687 c 0.14465,2e-5 0.28243,0.0276 0.41332,0.0827 0.13088,0.0551 0.24454,0.1309 0.34098,0.22732 0.0964,0.0965 0.17221,0.21012 0.22733,0.34099 0.0551,0.12401 0.0827,0.25489 0.0827,0.39265 0,0.14468 -0.0276,0.28245 -0.0827,0.41332 -0.0551,0.12401 -0.13089,0.23423 -0.22733,0.33065 -0.0964,0.0965 -0.2101,0.17568 -0.34098,0.23766 -0.13089,0.0551 -0.26867,0.0827 -0.41332,0.0827 -0.13778,10e-6 -0.26866,-0.0276 -0.39265,-0.0827 -0.124,-0.062 -0.23422,-0.1412 -0.33066,-0.23766 -0.0964,-0.0964 -0.17222,-0.20664 -0.22732,-0.33065 -0.0551,-0.13087 -0.0827,-0.26864 -0.0827,-0.41332 0,-0.13776 0.0275,-0.26864 0.0827,-0.39265 0.0551,-0.13087 0.13088,-0.24453 0.22732,-0.34099 0.0964,-0.0964 0.20666,-0.1722 0.33066,-0.22732 0.12399,-0.0551 0.25487,-0.0827 0.39265,-0.0827 m -2.34558,0 c 0.14466,2e-5 0.27899,0.0276 0.40298,0.0827 0.13089,0.0551 0.24455,0.1309 0.34099,0.22732 0.0964,0.0965 0.17221,0.21012 0.22733,0.34099 0.062,0.12401 0.093,0.25489 0.093,0.39265 0,0.14468 -0.031,0.28245 -0.093,0.41332 -0.0551,0.12401 -0.13089,0.23423 -0.22733,0.33065 -0.0964,0.0965 -0.2101,0.17568 -0.34099,0.23766 -0.12399,0.0551 -0.25832,0.0827 -0.40298,0.0827 -0.13778,10e-6 -0.2721,-0.0276 -0.40299,-0.0827 -0.12399,-0.062 -0.23421,-0.1412 -0.33065,-0.23766 -0.0895,-0.0964 -0.16188,-0.20664 -0.21699,-0.33065 -0.0551,-0.13087 -0.0827,-0.26864 -0.0827,-0.41332 0,-0.13776 0.0276,-0.26864 0.0827,-0.39265 0.0551,-0.13087 0.12744,-0.24453 0.21699,-0.34099 0.0964,-0.0964 0.20666,-0.1722 0.33065,-0.22732 0.13089,-0.0551 0.26521,-0.0827 0.40299,-0.0827"
         id="path2993" />
      <path
         d="m 249.58738,682.93136 c 0.26866,0 0.53042,-0.0172 0.7853,-0.0517 0.26177,-0.0344 0.50976,-0.0999 0.74398,-0.19633 0.2411,-0.10333 0.46842,-0.24799 0.68197,-0.43398 0.21355,-0.186 0.40987,-0.43743 0.58898,-0.75431 -0.51665,0.007 -0.97819,-0.0964 -1.38462,-0.30999 -0.39954,-0.21354 -0.74397,-0.49942 -1.03329,-0.85763 -0.28932,-0.3651 -0.52354,-0.7853 -0.70264,-1.26062 -0.17911,-0.4822 -0.30655,-0.98163 -0.38232,-1.49828 -0.0827,-0.52353 -0.11022,-1.05051 -0.0827,-1.58094 0.0207,-0.53731 0.0861,-1.04362 0.19632,-1.51894 0.11711,-0.47531 0.27555,-0.90585 0.47532,-1.29162 0.20666,-0.38576 0.45465,-0.6923 0.74397,-0.91964 0.28932,-0.22731 0.61653,-0.35475 0.98163,-0.38231 0.3651,-0.0344 0.76808,0.0655 1.20896,0.29965 0.26176,0.1309 0.49942,0.31344 0.71297,0.54765 0.21354,0.23422 0.40298,0.50632 0.56831,0.8163 0.33065,0.59243 0.5752,1.28818 0.73364,2.08726 0.15843,0.7922 0.23076,1.61883 0.21699,2.4799 0,0.248 -0.0103,0.49943 -0.031,0.75431 -0.0138,0.24799 -0.0345,0.49598 -0.062,0.74397 l 0.94029,0 0.23766,1.89093 -1.60161,0 c -0.19977,0.61309 -0.46154,1.13318 -0.7853,1.56028 -0.31688,0.42709 -0.67853,0.77497 -1.08496,1.04362 -0.39954,0.26866 -0.83008,0.46498 -1.29162,0.58898 -0.45465,0.124 -0.91619,0.18599 -1.38461,0.18599 l 0.0103,-1.94259 m 3.42021,-3.32721 c 0.0344,-0.23421 0.062,-0.48564 0.0827,-0.7543 0.0207,-0.26866 0.0344,-0.5442 0.0413,-0.82664 0.007,-0.28932 0,-0.57864 -0.0207,-0.86797 -0.0138,-0.28931 -0.0413,-0.57519 -0.0827,-0.85763 -0.0758,-0.53042 -0.18255,-0.96785 -0.32032,-1.31229 -0.13089,-0.35131 -0.28244,-0.61997 -0.45465,-0.80597 -0.16533,-0.18598 -0.34099,-0.2962 -0.52698,-0.33065 -0.18599,-0.0413 -0.36165,-0.0172 -0.52698,0.0723 -0.23422,0.124 -0.41676,0.32722 -0.54765,0.60964 -0.13088,0.28245 -0.21699,0.60621 -0.25832,0.9713 -0.0413,0.36511 -0.0413,0.75431 0,1.16762 0.0482,0.40644 0.13088,0.79565 0.24799,1.16763 0.12399,0.3651 0.27899,0.69575 0.46498,0.99196 0.19288,0.28933 0.41676,0.50287 0.67165,0.64064 0.22732,0.11711 0.44431,0.17222 0.65097,0.16533 0.21355,-0.007 0.40643,-0.0172 0.57865,-0.031"
         id="path2995" />
      <path
         d="m 246.3325,671.95777 1.56028,0 c -10e-6,0.79909 -0.003,1.59473 -0.0103,2.38691 0,0.7922 0,1.58439 0,2.37658 0,0.64754 -0.0586,1.21585 -0.17566,1.70493 -0.11022,0.48221 -0.26177,0.90242 -0.45465,1.26062 -0.18599,0.35133 -0.40643,0.64409 -0.66131,0.87831 -0.25488,0.22732 -0.52698,0.41332 -0.8163,0.55797 -0.28243,0.13778 -0.5752,0.23422 -0.8783,0.28933 -0.29621,0.0551 -0.58553,0.0827 -0.86797,0.0827 l -0.11366,0 -0.22732,-1.89093 0.74397,0 c 0.24799,0 0.48565,-0.062 0.71297,-0.18599 0.22732,-0.12399 0.42709,-0.31343 0.59931,-0.56831 0.1791,-0.25488 0.32032,-0.57176 0.42365,-0.95064 0.11022,-0.37886 0.16533,-0.82663 0.16533,-1.34328 l 0,-4.59816 m 0.79564,-3.62687 c 0.14465,2e-5 0.27898,0.0276 0.40298,0.0827 0.13088,0.0551 0.24454,0.1309 0.34099,0.22732 0.10332,0.0965 0.18254,0.21012 0.23766,0.34099 0.0551,0.12401 0.0827,0.25489 0.0827,0.39265 0,0.14468 -0.0276,0.28245 -0.0827,0.41332 -0.0551,0.12401 -0.13434,0.23423 -0.23766,0.33065 -0.0965,0.0965 -0.21011,0.17568 -0.34099,0.23766 -0.124,0.0551 -0.25833,0.0827 -0.40298,0.0827 -0.13778,10e-6 -0.27211,-0.0276 -0.40299,-0.0827 -0.124,-0.062 -0.23421,-0.1412 -0.33065,-0.23766 -0.0896,-0.0964 -0.16189,-0.20664 -0.21699,-0.33065 -0.0551,-0.13087 -0.0827,-0.26864 -0.0827,-0.41332 0,-0.13776 0.0275,-0.26864 0.0827,-0.39265 0.0551,-0.13087 0.12743,-0.24453 0.21699,-0.34099 0.0964,-0.0964 0.20665,-0.1722 0.33065,-0.22732 0.13088,-0.0551 0.26521,-0.0827 0.40299,-0.0827"
         id="path2997" />
      <path
         d="m 231.77338,671.95777 1.56027,0 0,3.64753 c 0,0.26178 0,0.53388 0,0.8163 0.007,0.27555 0.0275,0.5511 0.062,0.82664 0.0344,0.26866 0.0861,0.53043 0.15499,0.7853 0.0758,0.25489 0.18255,0.4891 0.32032,0.70264 0.13777,0.21355 0.28243,0.35477 0.43399,0.42365 0.15154,0.062 0.29965,0.0723 0.44431,0.031 0.14466,-0.0413 0.27899,-0.12743 0.40299,-0.25832 0.12399,-0.13088 0.22732,-0.28243 0.30999,-0.45465 0.18598,-0.38576 0.28931,-0.81974 0.30999,-1.30195 0.0207,-0.48909 0.031,-1.01262 0.031,-1.57061 l 0,-3.64753 1.56027,0 0,3.64753 c -10e-6,0.27555 0.003,0.55454 0.0103,0.83697 0.007,0.27555 0.031,0.54765 0.0723,0.8163 0.0413,0.26866 0.10677,0.52699 0.19633,0.77497 0.0895,0.24111 0.21698,0.46843 0.38232,0.68198 0.12399,0.16533 0.25143,0.28244 0.38232,0.35132 0.13776,0.0689 0.27209,0.093 0.40298,0.0723 0.13088,-0.0207 0.25143,-0.0861 0.36166,-0.19633 0.1102,-0.11021 0.20665,-0.25832 0.28932,-0.44431 0.0964,-0.2411 0.16876,-0.53042 0.21699,-0.86797 0.0551,-0.34443 0.0758,-0.70264 0.062,-1.07463 l 0,-4.59816 1.57061,0 c -2e-5,0.59932 -0.003,1.19519 -0.0103,1.7876 -0.007,0.58554 -0.003,1.18141 0.0103,1.7876 0.007,0.25489 0.0172,0.53388 0.031,0.83697 0.0138,0.29622 0.0413,0.59587 0.0827,0.89896 0.0482,0.30311 0.11709,0.59932 0.20666,0.88864 0.0964,0.28244 0.22731,0.53732 0.39265,0.76464 0.1722,0.23421 0.36508,0.40643 0.57865,0.51664 0.22042,0.11023 0.45119,0.16533 0.6923,0.16533 l 0.39265,0 0.217,1.89093 -0.23766,0 c -0.20667,0 -0.44778,-0.0138 -0.72331,-0.0413 -0.26867,-0.0344 -0.54421,-0.10677 -0.82663,-0.21699 -0.27556,-0.11022 -0.54422,-0.26866 -0.80597,-0.47532 -0.26178,-0.20666 -0.48911,-0.48564 -0.68198,-0.83697 -0.24111,0.44777 -0.52354,0.80253 -0.8473,1.0643 -0.31689,0.25488 -0.65787,0.39609 -1.02296,0.42365 -0.35822,0.0207 -0.72676,-0.0861 -1.10563,-0.32032 -0.37199,-0.23422 -0.7302,-0.61653 -1.07462,-1.14696 -0.31,0.47532 -0.61999,0.85764 -0.92997,1.14696 -0.30999,0.28932 -0.63031,0.4512 -0.96096,0.48564 -0.32377,0.0345 -0.66476,-0.0758 -1.02297,-0.33065 -0.35132,-0.25488 -0.72331,-0.68886 -1.11595,-1.30195 -0.19289,0.29621 -0.40988,0.5442 -0.65098,0.74397 -0.2411,0.19977 -0.49598,0.35821 -0.76464,0.47532 -0.26177,0.1171 -0.53042,0.20321 -0.80597,0.25832 -0.27554,0.0482 -0.54076,0.0723 -0.79563,0.0723 l -0.22733,-1.89093 0.57865,0 c 0.23421,0 0.45809,-0.0551 0.67164,-0.16533 0.22043,-0.1171 0.41676,-0.28931 0.58898,-0.51664 0.1791,-0.22732 0.32376,-0.5132 0.43398,-0.85764 0.11021,-0.35131 0.17566,-0.76119 0.19633,-1.22962 l 0,-4.87715"
         id="path2999" />
      <path
         d="m 227.11322,674.86133 c 0.17909,1e-5 0.34097,0.0586 0.48564,0.17566 0.15154,0.11711 0.28587,0.26522 0.40299,0.44431 0.0551,0.0827 0.12398,0.24111 0.20666,0.47532 0.0827,0.23422 0.1722,0.50632 0.26865,0.8163 0.10332,0.30311 0.2101,0.62343 0.32033,0.96097 0.1102,0.33066 0.22042,0.6372 0.33065,0.91963 0.1171,0.27555 0.23076,0.50287 0.34099,0.68197 0.11709,0.17911 0.22731,0.26866 0.33065,0.26866 l 0.43399,0 0.23765,1.89093 -0.77497,0.0207 c -0.35133,0.007 -0.65443,-0.0827 -0.9093,-0.26866 -0.248,-0.19288 -0.46843,-0.43743 -0.66131,-0.73364 -0.186,-0.3031 -0.35132,-0.64064 -0.49598,-1.01263 -0.14467,-0.37198 -0.279,-0.73363 -0.40298,-1.08496 -0.12401,-0.35131 -0.248,-0.67508 -0.37199,-0.9713 -0.124,-0.2962 -0.26177,-0.52008 -0.41332,-0.67164 l -0.40298,0 c 0.12399,0.47532 0.18254,0.96442 0.17566,1.46728 -1e-5,0.50288 -0.0792,0.96097 -0.23766,1.37428 -0.124,0.31 -0.28244,0.57521 -0.47531,0.79564 -0.19289,0.21355 -0.403,0.39266 -0.63031,0.53731 -0.22734,0.14467 -0.46155,0.25833 -0.70264,0.34099 -0.24111,0.0758 -0.47188,0.13433 -0.69231,0.17566 -0.22044,0.0413 -0.42021,0.0689 -0.59931,0.0827 -0.17222,0.007 -0.30655,0.0103 -0.40299,0.0103 l -0.66131,-0.0207 c -0.39954,-0.0276 -0.80597,-0.12399 -1.21929,-0.28932 -0.40643,-0.17221 -0.77841,-0.44087 -1.11595,-0.80597 -0.33066,-0.36509 -0.60276,-0.8473 -0.81631,-1.44661 -0.20666,-0.59931 -0.30998,-1.35017 -0.30998,-2.25259 l 1.59127,0 c 0,0.47533 0.0482,0.86109 0.14466,1.15729 0.0964,0.29622 0.23421,0.56488 0.41332,0.80597 0.16532,0.23422 0.37543,0.42366 0.63031,0.56832 0.26176,0.14466 0.54075,0.24799 0.83697,0.30999 0.30309,0.0551 0.60619,0.0689 0.9093,0.0413 0.30998,-0.0344 0.59241,-0.11022 0.8473,-0.22733 0.26176,-0.1171 0.4822,-0.27898 0.66131,-0.48565 0.1791,-0.20665 0.28931,-0.45809 0.33065,-0.7543 0.0207,-0.15844 0.0103,-0.33065 -0.031,-0.51665 -0.0413,-0.19288 -0.11022,-0.36854 -0.20666,-0.52698 -0.0482,-0.0758 -0.124,-0.13777 -0.22732,-0.18599 -0.0965,-0.0482 -0.217,-0.0999 -0.36165,-0.155 l -1.69461,0 0,-1.91159 4.91849,0 m -3.17222,8.14236 c 0.14466,0 0.28243,0.0276 0.41332,0.0827 0.13088,0.0551 0.24454,0.13089 0.34099,0.22733 0.0964,0.0964 0.17221,0.20666 0.22732,0.33065 0.0551,0.124 0.0827,0.25488 0.0827,0.39266 0,0.14466 -0.0276,0.27898 -0.0827,0.40298 -0.0551,0.13088 -0.13089,0.24455 -0.22732,0.34099 -0.0965,0.10333 -0.21011,0.18255 -0.34099,0.23766 -0.13089,0.0551 -0.26866,0.0827 -0.41332,0.0827 -0.13778,0 -0.27211,-0.0276 -0.40298,-0.0827 -0.124,-0.0551 -0.23422,-0.13433 -0.33066,-0.23766 -0.0896,-0.0964 -0.16189,-0.21011 -0.21699,-0.34099 -0.0551,-0.124 -0.0827,-0.25832 -0.0827,-0.40298 -1e-5,-0.13778 0.0275,-0.26866 0.0827,-0.39266 0.0551,-0.12399 0.12743,-0.23421 0.21699,-0.33065 0.0964,-0.0964 0.20666,-0.17222 0.33066,-0.22733 0.13087,-0.0551 0.2652,-0.0827 0.40298,-0.0827 m -2.34558,0 c 0.14466,0 0.27899,0.0276 0.40299,0.0827 0.13088,0.0551 0.24454,0.13089 0.34098,0.22733 0.0964,0.0964 0.17222,0.20666 0.22733,0.33065 0.0551,0.124 0.0827,0.25488 0.0827,0.39266 0,0.14466 -0.0276,0.27898 -0.0827,0.40298 -0.0551,0.13088 -0.13089,0.24455 -0.22733,0.34099 -0.0964,0.10333 -0.2101,0.18255 -0.34098,0.23766 -0.124,0.0551 -0.25833,0.0827 -0.40299,0.0827 -0.13777,0 -0.2721,-0.0276 -0.40298,-0.0827 -0.124,-0.0551 -0.23422,-0.13433 -0.33066,-0.23766 -0.0964,-0.0964 -0.17222,-0.21011 -0.22732,-0.34099 -0.0551,-0.124 -0.0827,-0.25832 -0.0827,-0.40298 0,-0.13778 0.0276,-0.26866 0.0827,-0.39266 0.0551,-0.12399 0.13088,-0.23421 0.22732,-0.33065 0.0964,-0.0964 0.20666,-0.17222 0.33066,-0.22733 0.13088,-0.0551 0.26521,-0.0827 0.40298,-0.0827"
         id="path3001" />
    </g>
    <g
       transform="matrix(0.91894619,0,0,1.088203,32.935439,85.579452)"
       style="font-size:10.35382462px;font-style:normal;font-variant:normal;font-weight:normal;font-stretch:normal;text-align:justify;line-height:100%;writing-mode:lr-tb;text-anchor:start;fill:#081d5c;fill-opacity:1;stroke:none;display:inline;font-family:Arial;-inkscape-font-specification:Arial"
       id="text2897">
      <path
         d="m 279.33853,544.44244 0,-7.35081 1.49645,0 0,6.10209 3.7209,0 0,1.24872 -5.21735,0"
         style="font-weight:bold;line-height:100%;font-family:Arial;-inkscape-font-specification:Arial Bold"
         id="path3004" />
      <path
         d="m 292.31114,544.44244 -1.6279,0 -0.64711,-1.6835 -2.96257,0 -0.61172,1.6835 -1.58746,0 2.88674,-7.41147 1.5824,0 2.96762,7.41147 m -2.75529,-2.93223 -1.02123,-2.75024 -1.001,2.75024 2.02223,0"
         style="font-weight:bold;line-height:100%;font-family:Arial;-inkscape-font-specification:Arial Bold"
         id="path3006" />
      <path
         d="m 295.59727,544.44244 0,-7.41147 2.4014,0 c 0.91,0 1.50318,0.0371 1.77956,0.11122 0.42466,0.11123 0.78024,0.3539 1.06673,0.728 0.28647,0.37075 0.42971,0.85103 0.42972,1.44084 -10e-6,0.45501 -0.0826,0.83755 -0.24772,1.14762 -0.16516,0.31008 -0.37581,0.55443 -0.63195,0.73306 -0.25278,0.17526 -0.51062,0.29154 -0.7735,0.34883 -0.35727,0.0708 -0.87462,0.10617 -1.55207,0.10617 l -0.97572,0 0,2.79573 -1.49645,0 m 1.49645,-6.15769 0,2.10312 0.819,0 c 0.58981,0 0.98415,-0.0388 1.18301,-0.11628 0.19884,-0.0775 0.35388,-0.19885 0.46511,-0.364 0.11459,-0.16514 0.17188,-0.35726 0.17189,-0.57634 -1e-5,-0.26962 -0.0792,-0.49207 -0.23761,-0.66733 -0.15842,-0.17526 -0.35895,-0.28479 -0.60162,-0.32861 -0.17863,-0.0337 -0.53758,-0.0506 -1.07684,-0.0506 l -0.72294,0"
         style="font-weight:bold;line-height:100%;font-family:Arial;-inkscape-font-specification:Arial Bold"
         id="path3008" />
      <path
         d="m 302.20996,540.78221 c 0,-0.75497 0.11291,-1.3886 0.33873,-1.9009 0.16851,-0.37748 0.3977,-0.7162 0.68755,-1.01617 0.29323,-0.29996 0.61341,-0.52241 0.96056,-0.66734 0.46174,-0.19547 0.99426,-0.29322 1.59757,-0.29322 1.092,0 1.96493,0.33873 2.61879,1.01617 0.65721,0.67745 0.98583,1.61947 0.98583,2.82607 0,1.19649 -0.32525,2.13345 -0.97572,2.8109 -0.65049,0.67407 -1.52005,1.01111 -2.60868,1.01111 -1.10212,0 -1.97842,-0.33535 -2.6289,-1.00606 -0.65049,-0.67407 -0.97573,-1.60093 -0.97573,-2.78056 m 1.54195,-0.0506 c 0,0.83923 0.1938,1.47623 0.58139,1.91101 0.3876,0.43141 0.87967,0.64711 1.47623,0.64711 0.59656,0 1.08526,-0.21402 1.46612,-0.64206 0.38422,-0.4314 0.57633,-1.07683 0.57634,-1.93628 -10e-6,-0.84934 -0.18706,-1.48297 -0.56117,-1.9009 -0.37075,-0.41792 -0.86451,-0.62689 -1.48129,-0.62689 -0.61678,0 -1.11391,0.21234 -1.49139,0.637 -0.37749,0.4213 -0.56623,1.05831 -0.56623,1.91101"
         style="font-weight:bold;line-height:100%;font-family:Arial;-inkscape-font-specification:Arial Bold"
         id="path3010" />
      <path
         d="m 310.18261,542.03093 1.45601,-0.14155 c 0.0876,0.4887 0.26457,0.84765 0.53083,1.07683 0.26963,0.22919 0.63195,0.34379 1.08695,0.34378 0.48196,10e-6 0.84428,-0.10111 1.08695,-0.30333 0.24603,-0.20559 0.36905,-0.44489 0.36906,-0.71789 -10e-6,-0.17526 -0.0522,-0.32356 -0.15673,-0.44489 -0.10111,-0.12471 -0.27974,-0.23256 -0.53589,-0.32356 -0.17526,-0.0607 -0.57465,-0.16852 -1.19817,-0.32356 -0.80215,-0.19885 -1.36501,-0.4432 -1.68856,-0.73306 -0.455,-0.40781 -0.68251,-0.90494 -0.68251,-1.49139 0,-0.37748 0.10617,-0.72968 0.31851,-1.05662 0.2157,-0.33029 0.52409,-0.58138 0.92517,-0.75328 0.40444,-0.17188 0.89146,-0.25783 1.46106,-0.25783 0.93022,0 1.62958,0.20391 2.09806,0.61172 0.47185,0.40782 0.71958,0.95214 0.74317,1.63295 l -1.49645,0.0657 c -0.064,-0.38085 -0.20222,-0.65385 -0.41455,-0.81901 -0.20897,-0.16851 -0.5241,-0.25277 -0.9454,-0.25278 -0.43478,1e-5 -0.77519,0.0893 -1.02122,0.26795 -0.15841,0.1146 -0.23762,0.26795 -0.23762,0.46006 0,0.17526 0.0741,0.32524 0.22245,0.44994 0.18874,0.15842 0.64711,0.32356 1.37512,0.49545 0.728,0.17189 1.26557,0.35052 1.61273,0.53589 0.35051,0.18201 0.62351,0.4331 0.819,0.75328 0.19885,0.31682 0.29827,0.70947 0.29828,1.17795 -1e-5,0.42467 -0.11797,0.82238 -0.35389,1.19312 -0.23593,0.37074 -0.5696,0.64711 -1.00101,0.82911 -0.43141,0.17863 -0.96899,0.26795 -1.61273,0.26795 -0.93697,0 -1.65654,-0.21571 -2.15873,-0.64712 -0.50219,-0.43477 -0.80215,-1.06672 -0.89989,-1.89584"
         style="font-weight:bold;line-height:100%;font-family:Arial;-inkscape-font-specification:Arial Bold"
         id="path3012" />
      <path
         d="m 319.14615,544.44244 0,-6.15769 -2.19918,0 0,-1.25378 5.88975,0 0,1.25378 -2.19412,0 0,6.15769 -1.49645,0"
         style="font-weight:bold;line-height:100%;font-family:Arial;-inkscape-font-specification:Arial Bold"
         id="path3014" />
      <path
         d="m 323.80739,544.44244 0,-7.41147 5.49542,0 0,1.25378 -3.99897,0 0,1.64306 3.72091,0 0,1.24873 -3.72091,0 0,2.01718 4.14052,0 0,1.24872 -5.63697,0"
         style="font-weight:bold;line-height:100%;font-family:Arial;-inkscape-font-specification:Arial Bold"
         id="path3016" />
      <path
         d="m 335.26334,544.44244 0,-6.15769 -2.19918,0 0,-1.25378 5.88975,0 0,1.25378 -2.19412,0 0,6.15769 -1.49645,0"
         style="font-weight:bold;line-height:100%;font-family:Arial;-inkscape-font-specification:Arial Bold"
         id="path3018" />
      <path
         d="m 339.91447,537.03097 1.49645,0 0,4.01413 c -10e-6,0.637 0.0185,1.04987 0.0556,1.23861 0.064,0.30334 0.2157,0.54769 0.455,0.73306 0.24266,0.182 0.57296,0.273 0.99089,0.273 0.42467,0 0.74485,-0.0859 0.96056,-0.25783 0.2157,-0.17526 0.34546,-0.38928 0.38928,-0.64206 0.0438,-0.25278 0.0657,-0.67239 0.0657,-1.25884 l 0,-4.10007 1.49645,0 0,3.89279 c -1e-5,0.88979 -0.0404,1.51836 -0.12134,1.88573 -0.0809,0.36738 -0.23088,0.67745 -0.44994,0.93023 -0.21571,0.25278 -0.50557,0.455 -0.86956,0.60667 -0.36401,0.14829 -0.83923,0.22244 -1.42568,0.22244 -0.70778,0 -1.24536,-0.0809 -1.61273,-0.24266 -0.364,-0.16515 -0.65217,-0.37749 -0.8645,-0.63701 -0.21234,-0.26289 -0.35221,-0.53757 -0.41961,-0.82406 -0.0978,-0.42466 -0.14662,-1.05155 -0.14661,-1.88067 l 0,-3.95346"
         style="font-weight:bold;line-height:100%;font-family:Arial;-inkscape-font-specification:Arial Bold"
         id="path3020" />
      <path
         d="m 347.422,544.44244 0,-7.41147 1.456,0 3.03335,4.94941 0,-4.94941 1.39028,0 0,7.41147 -1.5015,0 -2.98785,-4.83313 0,4.83313 -1.39028,0"
         style="font-weight:bold;line-height:100%;font-family:Arial;-inkscape-font-specification:Arial Bold"
         id="path3022" />
      <path
         d="m 354.84359,544.44244 0,-7.41147 1.49645,0 0,7.41147 -1.49645,0"
         style="font-weight:bold;line-height:100%;font-family:Arial;-inkscape-font-specification:Arial Bold"
         id="path3024" />
      <path
         d="m 357.38149,542.03093 1.45601,-0.14155 c 0.0876,0.4887 0.26457,0.84765 0.53083,1.07683 0.26963,0.22919 0.63195,0.34379 1.08695,0.34378 0.48196,10e-6 0.84428,-0.10111 1.08695,-0.30333 0.24603,-0.20559 0.36905,-0.44489 0.36906,-0.71789 -1e-5,-0.17526 -0.0523,-0.32356 -0.15672,-0.44489 -0.10112,-0.12471 -0.27975,-0.23256 -0.5359,-0.32356 -0.17526,-0.0607 -0.57465,-0.16852 -1.19817,-0.32356 -0.80215,-0.19885 -1.36501,-0.4432 -1.68856,-0.73306 -0.455,-0.40781 -0.6825,-0.90494 -0.6825,-1.49139 0,-0.37748 0.10616,-0.72968 0.3185,-1.05662 0.2157,-0.33029 0.52409,-0.58138 0.92517,-0.75328 0.40444,-0.17188 0.89146,-0.25783 1.46106,-0.25783 0.93022,0 1.62958,0.20391 2.09807,0.61172 0.47184,0.40782 0.71957,0.95214 0.74317,1.63295 l -1.49646,0.0657 c -0.064,-0.38085 -0.20222,-0.65385 -0.41455,-0.81901 -0.20897,-0.16851 -0.5241,-0.25277 -0.9454,-0.25278 -0.43478,1e-5 -0.77519,0.0893 -1.02122,0.26795 -0.15841,0.1146 -0.23762,0.26795 -0.23762,0.46006 0,0.17526 0.0742,0.32524 0.22245,0.44994 0.18874,0.15842 0.64711,0.32356 1.37512,0.49545 0.728,0.17189 1.26557,0.35052 1.61273,0.53589 0.35051,0.18201 0.62351,0.4331 0.819,0.75328 0.19885,0.31682 0.29827,0.70947 0.29828,1.17795 -10e-6,0.42467 -0.11797,0.82238 -0.35389,1.19312 -0.23593,0.37074 -0.5696,0.64711 -1.00101,0.82911 -0.43141,0.17863 -0.96899,0.26795 -1.61272,0.26795 -0.93697,0 -1.65655,-0.21571 -2.15874,-0.64712 -0.50218,-0.43477 -0.80215,-1.06672 -0.89989,-1.89584"
         style="font-weight:bold;line-height:100%;font-family:Arial;-inkscape-font-specification:Arial Bold"
         id="path3026" />
      <path
         d="m 364.63119,544.44244 0,-7.41147 1.49645,0 0,7.41147 -1.49645,0"
         style="font-weight:bold;line-height:100%;font-family:Arial;-inkscape-font-specification:Arial Bold"
         id="path3028" />
      <path
         d="m 367.54826,544.44244 0,-7.41147 5.49541,0 0,1.25378 -3.99896,0 0,1.64306 3.7209,0 0,1.24873 -3.7209,0 0,2.01718 4.14052,0 0,1.24872 -5.63697,0"
         style="font-weight:bold;line-height:100%;font-family:Arial;-inkscape-font-specification:Arial Bold"
         id="path3030" />
      <path
         d="m 374.47945,544.44244 0,-7.41147 1.45601,0 3.03335,4.94941 0,-4.94941 1.39028,0 0,7.41147 -1.5015,0 -2.98785,-4.83313 0,4.83313 -1.39029,0"
         style="font-weight:bold;line-height:100%;font-family:Arial;-inkscape-font-specification:Arial Bold"
         id="path3032" />
      <path
         d="m 381.96171,544.44244 0,-7.41147 1.456,0 3.03335,4.94941 0,-4.94941 1.39029,0 0,7.41147 -1.50151,0 -2.98785,-4.83313 0,4.83313 -1.39028,0"
         style="font-weight:bold;line-height:100%;font-family:Arial;-inkscape-font-specification:Arial Bold"
         id="path3034" />
      <path
         d="m 389.4288,544.44244 0,-7.41147 5.49542,0 0,1.25378 -3.99897,0 0,1.64306 3.72091,0 0,1.24873 -3.72091,0 0,2.01718 4.14052,0 0,1.24872 -5.63697,0"
         style="font-weight:bold;line-height:100%;font-family:Arial;-inkscape-font-specification:Arial Bold"
         id="path3036" />
    </g>
  </g>
</svg>
