<?xml version="1.0" encoding="utf-8"?>
<!-- Svg Vector Icons : http://www.onlinewebfonts.com/icon -->
<!DOCTYPE svg PUBLIC "-//W3C//DTD SVG 1.1//EN" "http://www.w3.org/Graphics/SVG/1.1/DTD/svg11.dtd">
<svg version="1.1" xmlns="http://www.w3.org/2000/svg" xmlns:xlink="http://www.w3.org/1999/xlink" x="0px" y="0px" viewBox="0 0 1000 1000" enable-background="new 0 0 1000 1000" xml:space="preserve">
<metadata> Svg Vector Icons : http://www.onlinewebfonts.com/icon </metadata>
<g><path d="M500,10c-203,0-367.6,162.2-367.6,362.4C132.5,572.6,500,990,500,990s367.5-417.4,367.5-617.6C867.5,172.2,703,10,500,10z M500,673c-170.5,0-308.8-135.5-308.8-302.7c0-167.2,138.2-302.7,308.8-302.7s308.8,135.5,308.8,302.7C808.8,537.5,670.5,673,500,673z"/><path d="M528.8,244.7H423.4v306.3h65.3V444.3h33.6c34.5,0.8,63.3-8.3,86.3-27.2c23-18.9,34.5-44.1,34.5-75.5C643.1,277,605,244.7,528.8,244.7z M516.9,394.2h-28.3v-98.9v0h28.9c38,0,57,16.3,57,48.8C574.5,377.6,555.3,394.2,516.9,394.2z"/></g>
</svg>